G04 Layer: BottomSilkscreenLayer*
G04 EasyEDA v6.5.54, 2026-04-10 22:32:50*
G04 3f3be1ec7deb419daeab65e36d49777c,c0d4400111084a648b8aab22d3886a6d,10*
G04 Gerber Generator version 0.2*
G04 Scale: 100 percent, Rotated: No, Reflected: No *
G04 Dimensions in millimeters *
G04 leading zeros omitted , absolute positions ,4 integer and 5 decimal *
%FSLAX45Y45*%
%MOMM*%

%ADD10C,0.0146*%

%LPD*%
G36*
X9068104Y6124803D02*
G01*
X9065514Y6117488D01*
X9065514Y6001359D01*
X9059570Y5999073D01*
X9034576Y5999073D01*
X9031782Y5996279D01*
X9031782Y5990234D01*
X9034576Y5987440D01*
X9111640Y5987440D01*
X9114434Y5990234D01*
X9114434Y5996482D01*
X9111538Y5998870D01*
X9084259Y5999683D01*
X9081262Y6002680D01*
X9080550Y6106515D01*
X9086900Y6113170D01*
X9111742Y6113170D01*
X9114078Y6118402D01*
X9111894Y6124803D01*
G37*
G36*
X8509355Y6124803D02*
G01*
X8507933Y6119571D01*
X8507933Y6003594D01*
X8505494Y5999073D01*
X8478672Y5999073D01*
X8474151Y5996686D01*
X8474151Y5990234D01*
X8476945Y5987440D01*
X8552840Y5987440D01*
X8555634Y5990234D01*
X8555634Y5996482D01*
X8552738Y5998870D01*
X8525510Y5999683D01*
X8522462Y6002680D01*
X8521801Y6106566D01*
X8528151Y6113170D01*
X8553348Y6113170D01*
X8555990Y6119012D01*
X8553348Y6124803D01*
G37*
G36*
X8206435Y6124803D02*
G01*
X8202930Y6117945D01*
X8202777Y6070701D01*
X8200745Y6075680D01*
X8183422Y6085230D01*
X8166709Y6085230D01*
X8155736Y6080353D01*
X8147964Y6073038D01*
X8141766Y6061354D01*
X8141766Y5988050D01*
X8148574Y5987288D01*
X8156346Y5988710D01*
X8156346Y6047536D01*
X8158835Y6061354D01*
X8162188Y6066586D01*
X8173720Y6072428D01*
X8183473Y6072428D01*
X8197240Y6067399D01*
X8202930Y6056223D01*
X8202930Y5989878D01*
X8207400Y5987440D01*
X8214106Y5987440D01*
X8216900Y5990234D01*
X8216900Y6120333D01*
X8214461Y6124803D01*
G37*
G36*
X7758430Y6124803D02*
G01*
X7755890Y6117488D01*
X7755890Y6073749D01*
X7753858Y6072479D01*
X7744612Y6081318D01*
X7736331Y6085230D01*
X7718958Y6085230D01*
X7706258Y6078829D01*
X7698943Y6070498D01*
X7694168Y6053277D01*
X7694168Y5990082D01*
X7697470Y5987338D01*
X7708747Y5988050D01*
X7709916Y6058255D01*
X7717028Y6067196D01*
X7727340Y6072327D01*
X7736484Y6072428D01*
X7749286Y6068415D01*
X7755890Y6059271D01*
X7755890Y5990234D01*
X7758684Y5987440D01*
X7767066Y5987440D01*
X7769859Y5990234D01*
X7769859Y6120333D01*
X7767421Y6124803D01*
G37*
G36*
X9189516Y6120079D02*
G01*
X9173413Y6118961D01*
X9170873Y6116878D01*
X9161119Y6114288D01*
X9148419Y6100013D01*
X9143441Y6082334D01*
X9143937Y6026302D01*
X9156090Y6026302D01*
X9157055Y6060236D01*
X9161018Y6067653D01*
X9169704Y6070092D01*
X9175546Y6069888D01*
X9181388Y6068263D01*
X9187180Y6056731D01*
X9187180Y6027521D01*
X9182709Y6017564D01*
X9173362Y6013043D01*
X9169450Y6013043D01*
X9161018Y6016548D01*
X9156090Y6026302D01*
X9143937Y6026302D01*
X9144101Y6005576D01*
X9151721Y6004052D01*
X9157309Y6008420D01*
X9162237Y6008420D01*
X9167063Y6003899D01*
X9176308Y6002375D01*
X9186367Y6003848D01*
X9193530Y6010706D01*
X9199981Y6022949D01*
X9199981Y6059068D01*
X9194749Y6069990D01*
X9194749Y6072174D01*
X9185859Y6080201D01*
X9174632Y6081725D01*
X9165742Y6079337D01*
X9162592Y6076188D01*
X9156700Y6077305D01*
X9160103Y6093968D01*
X9167672Y6103264D01*
X9179356Y6107379D01*
X9191396Y6107379D01*
X9203486Y6101638D01*
X9212224Y6088430D01*
X9212224Y6082131D01*
X9215678Y6070701D01*
X9215729Y6019139D01*
X9211106Y5996686D01*
X9208922Y5992672D01*
X9198305Y5982360D01*
X9184843Y5978194D01*
X9161780Y5978144D01*
X9157512Y5974283D01*
X9157512Y5970016D01*
X9162186Y5965342D01*
X9177528Y5965342D01*
X9202216Y5970219D01*
X9210497Y5976416D01*
X9216390Y5982208D01*
X9223502Y5995009D01*
X9225229Y6004356D01*
X9227261Y6006795D01*
X9230004Y6034582D01*
X9228632Y6071870D01*
X9222486Y6095136D01*
X9218879Y6102858D01*
X9209328Y6113272D01*
X9196527Y6118047D01*
G37*
G36*
X7968335Y6085281D02*
G01*
X7940395Y6084519D01*
X7933385Y6080607D01*
X7928762Y6080506D01*
X7918703Y6071412D01*
X7922259Y6064554D01*
X7928508Y6062980D01*
X7934553Y6068517D01*
X7951622Y6073902D01*
X7965998Y6072581D01*
X7976819Y6067755D01*
X7979409Y6060440D01*
X7979359Y6054394D01*
X7974888Y6047028D01*
X7970672Y6045758D01*
X7940802Y6039866D01*
X7935722Y6039815D01*
X7928762Y6036005D01*
X7920481Y6031839D01*
X7914030Y6018733D01*
X7915605Y6006134D01*
X7922107Y5995924D01*
X7935722Y5987694D01*
X7952841Y5984900D01*
X7968335Y5986424D01*
X7981746Y5988913D01*
X7981746Y5990640D01*
X7988198Y5993333D01*
X7997952Y6002020D01*
X7993837Y6010148D01*
X7986522Y6009843D01*
X7975295Y6000496D01*
X7963001Y5997956D01*
X7947355Y5997956D01*
X7938719Y6000343D01*
X7930489Y6008116D01*
X7930540Y6017158D01*
X7933385Y6022746D01*
X7939227Y6027013D01*
X7957870Y6029350D01*
X7979968Y6034430D01*
X7987944Y6040424D01*
X7994548Y6049518D01*
X7994548Y6063234D01*
X7990890Y6070244D01*
X7982407Y6079642D01*
G37*
G36*
X8950858Y6085230D02*
G01*
X8936685Y6078524D01*
X8928201Y6069787D01*
X8921343Y6059068D01*
X8918397Y6035141D01*
X8919921Y6022949D01*
X8933840Y6022949D01*
X8934754Y6053226D01*
X8942730Y6066840D01*
X8954211Y6072428D01*
X8970670Y6072174D01*
X8982303Y6066028D01*
X8989974Y6050889D01*
X8989110Y6018326D01*
X8982913Y6004915D01*
X8980982Y6004915D01*
X8975852Y6000140D01*
X8962491Y5997956D01*
X8952026Y5999327D01*
X8939276Y6006795D01*
X8933840Y6022949D01*
X8919921Y6022949D01*
X8921038Y6014008D01*
X8927236Y6002020D01*
X8935161Y5993739D01*
X8950502Y5985865D01*
X8971838Y5985916D01*
X8981998Y5988761D01*
X8984640Y5990793D01*
X8995613Y6000496D01*
X9001709Y6011316D01*
X9005011Y6028385D01*
X9005011Y6043168D01*
X9001455Y6060135D01*
X8993936Y6071870D01*
X8987332Y6077661D01*
X8973007Y6085230D01*
G37*
G36*
X8722055Y6085230D02*
G01*
X8708948Y6077813D01*
X8701328Y6069533D01*
X8694775Y6053226D01*
X8694819Y6019495D01*
X8710472Y6019495D01*
X8710472Y6049721D01*
X8713063Y6058916D01*
X8719210Y6066993D01*
X8731504Y6072428D01*
X8743645Y6072327D01*
X8755634Y6066840D01*
X8761679Y6056528D01*
X8761679Y6014313D01*
X8757767Y6006033D01*
X8746642Y5998921D01*
X8727744Y5998921D01*
X8718296Y6005169D01*
X8712860Y6011316D01*
X8710472Y6019495D01*
X8694819Y6019495D01*
X8694826Y6017158D01*
X8701328Y6001613D01*
X8713368Y5988507D01*
X8728456Y5985052D01*
X8744356Y5986627D01*
X8751824Y5992063D01*
X8757615Y5994908D01*
X8761679Y5998311D01*
X8761679Y5955588D01*
X8766759Y5950204D01*
X8773210Y5950204D01*
X8776817Y5955385D01*
X8776817Y6077762D01*
X8773210Y6082893D01*
X8765336Y6082893D01*
X8761679Y6077762D01*
X8761679Y6070752D01*
X8758072Y6075934D01*
X8755481Y6075934D01*
X8751824Y6079134D01*
X8740190Y6085230D01*
G37*
G36*
X8615984Y6085230D02*
G01*
X8601354Y6078474D01*
X8589975Y6065316D01*
X8587130Y6056731D01*
X8584234Y6052058D01*
X8583371Y6022644D01*
X8584258Y6020612D01*
X8599627Y6020612D01*
X8600541Y6057950D01*
X8608415Y6067755D01*
X8620912Y6072428D01*
X8634222Y6072225D01*
X8645245Y6067196D01*
X8652154Y6058814D01*
X8654897Y6042812D01*
X8653475Y6017361D01*
X8648547Y6007201D01*
X8638438Y5998921D01*
X8616543Y5998514D01*
X8606688Y6005372D01*
X8602218Y6011062D01*
X8599627Y6020612D01*
X8584258Y6020612D01*
X8587994Y6012129D01*
X8589568Y6004966D01*
X8600440Y5993688D01*
X8610955Y5987694D01*
X8624468Y5984951D01*
X8644686Y5987643D01*
X8651697Y5991961D01*
X8662619Y6003188D01*
X8668613Y6016752D01*
X8671306Y6034024D01*
X8668715Y6053226D01*
X8661095Y6069431D01*
X8651748Y6078474D01*
X8637727Y6085027D01*
G37*
G36*
X8294268Y6085230D02*
G01*
X8275675Y6085179D01*
X8265210Y6080455D01*
X8257489Y6073038D01*
X8252409Y6064859D01*
X8247227Y6047384D01*
X8247125Y6023965D01*
X8247401Y6023051D01*
X8263229Y6023051D01*
X8264042Y6054394D01*
X8271967Y6066383D01*
X8285073Y6072428D01*
X8296605Y6072225D01*
X8308797Y6067196D01*
X8314690Y6059170D01*
X8314690Y6011672D01*
X8310930Y6005372D01*
X8300821Y5998972D01*
X8281466Y5998921D01*
X8275421Y6001258D01*
X8264702Y6013500D01*
X8263229Y6023051D01*
X8247401Y6023051D01*
X8252917Y6004712D01*
X8259876Y5995263D01*
X8270697Y5987592D01*
X8282736Y5985052D01*
X8298738Y5987338D01*
X8309406Y5994908D01*
X8312658Y5999327D01*
X8314639Y5996178D01*
X8314690Y5955385D01*
X8318296Y5950204D01*
X8324646Y5950204D01*
X8329777Y5953810D01*
X8329777Y6078677D01*
X8325967Y6082893D01*
X8318296Y6082893D01*
X8314690Y6077762D01*
X8314690Y6073749D01*
X8312353Y6072327D01*
X8307120Y6077915D01*
G37*
G36*
X8057184Y6085230D02*
G01*
X8042605Y6078474D01*
X8031276Y6065418D01*
X8025638Y6050889D01*
X8025384Y6020612D01*
X8027878Y6014618D01*
X8041690Y6014618D01*
X8041690Y6054394D01*
X8049209Y6067450D01*
X8062264Y6072428D01*
X8075422Y6072174D01*
X8085785Y6068110D01*
X8092236Y6061659D01*
X8095234Y6053226D01*
X8095234Y6019495D01*
X8093456Y6011265D01*
X8084769Y6002274D01*
X8079638Y5998921D01*
X8058556Y5998819D01*
X8047481Y6006033D01*
X8041690Y6014618D01*
X8027878Y6014618D01*
X8031124Y6006642D01*
X8036915Y5998514D01*
X8040878Y5994552D01*
X8052155Y5987694D01*
X8065566Y5984951D01*
X8085531Y5987389D01*
X8092897Y5991961D01*
X8103819Y6003188D01*
X8111439Y6019495D01*
X8111540Y6049772D01*
X8104682Y6066790D01*
X8091068Y6080607D01*
X8088223Y6080607D01*
X8080095Y6085128D01*
G37*
G36*
X7829499Y6085230D02*
G01*
X7816951Y6079490D01*
X7809738Y6071870D01*
X7803845Y6061354D01*
X7801254Y6046063D01*
X7801406Y6024118D01*
X7802217Y6019647D01*
X7816189Y6019647D01*
X7817103Y6053226D01*
X7823809Y6065570D01*
X7828635Y6068314D01*
X7839100Y6072428D01*
X7850733Y6072225D01*
X7861249Y6067552D01*
X7867751Y6059119D01*
X7867040Y6009741D01*
X7860334Y6002680D01*
X7852562Y5999022D01*
X7835239Y5998819D01*
X7822692Y6005982D01*
X7816189Y6019647D01*
X7802217Y6019647D01*
X7804353Y6007811D01*
X7810601Y5998768D01*
X7810601Y5996838D01*
X7822184Y5987694D01*
X7838694Y5984900D01*
X7853375Y5987643D01*
X7864500Y5997905D01*
X7867650Y5995314D01*
X7867650Y5955284D01*
X7870748Y5951067D01*
X7880807Y5951067D01*
X7883906Y5955284D01*
X7883906Y6078270D01*
X7879283Y6082893D01*
X7870444Y6082893D01*
X7865109Y6071920D01*
X7858912Y6079337D01*
X7846110Y6085230D01*
G37*
G36*
X7610551Y6085230D02*
G01*
X7598156Y6078931D01*
X7590028Y6072022D01*
X7583220Y6062624D01*
X7577785Y6041694D01*
X7577785Y6029147D01*
X7579636Y6021781D01*
X7594092Y6021781D01*
X7594092Y6052058D01*
X7598460Y6061354D01*
X7604658Y6067806D01*
X7613751Y6072428D01*
X7629550Y6072225D01*
X7638389Y6068110D01*
X7645196Y6061608D01*
X7650225Y6046571D01*
X7649057Y6020612D01*
X7645095Y6008979D01*
X7635849Y6000445D01*
X7624064Y5997905D01*
X7608620Y5999378D01*
X7595565Y6012891D01*
X7594092Y6021781D01*
X7579636Y6021781D01*
X7582611Y6010148D01*
X7589824Y5998870D01*
X7603032Y5987846D01*
X7619390Y5985154D01*
X7637424Y5987440D01*
X7649514Y5993892D01*
X7656423Y6002020D01*
X7662976Y6014821D01*
X7665466Y6037427D01*
X7663027Y6054750D01*
X7655610Y6069787D01*
X7645857Y6079236D01*
X7631887Y6085128D01*
G37*
G36*
X7297775Y6085179D02*
G01*
X7269835Y6084468D01*
X7254697Y6077204D01*
X7248347Y6071819D01*
X7252411Y6063691D01*
X7258862Y6062980D01*
X7265924Y6068923D01*
X7282332Y6073902D01*
X7297115Y6072530D01*
X7306462Y6067755D01*
X7308850Y6063284D01*
X7308850Y6052667D01*
X7302449Y6045758D01*
X7263536Y6038900D01*
X7252817Y6033516D01*
X7245654Y6022949D01*
X7244537Y6008624D01*
X7252817Y5995009D01*
X7265314Y5987592D01*
X7284974Y5984849D01*
X7305497Y5987389D01*
X7319924Y5994552D01*
X7327696Y6001207D01*
X7326172Y6008065D01*
X7320381Y6010757D01*
X7317689Y6010757D01*
X7311745Y6005169D01*
X7298944Y5998514D01*
X7272020Y5998514D01*
X7262317Y6004915D01*
X7260945Y6011316D01*
X7260081Y6014059D01*
X7262368Y6022238D01*
X7270089Y6027013D01*
X7288479Y6029401D01*
X7303617Y6033008D01*
X7311745Y6035497D01*
X7312914Y6036970D01*
X7319314Y6041034D01*
X7324445Y6050889D01*
X7324496Y6064859D01*
X7318451Y6074206D01*
X7312914Y6079236D01*
G37*
G36*
X8808466Y6083198D02*
G01*
X8802522Y6081725D01*
X8800134Y6077254D01*
X8802522Y6070955D01*
X8805926Y6040424D01*
X8808313Y6032296D01*
X8811717Y6003188D01*
X8814511Y5991555D01*
X8817914Y5987440D01*
X8831275Y5987440D01*
X8833916Y5990640D01*
X8837218Y6002020D01*
X8840012Y6020612D01*
X8845499Y6045504D01*
X8845499Y6050229D01*
X8848140Y6062472D01*
X8854795Y6049264D01*
X8858351Y6026454D01*
X8861704Y6014821D01*
X8864295Y5996178D01*
X8866581Y5988812D01*
X8870137Y5987440D01*
X8883650Y5987440D01*
X8885885Y5990386D01*
X8889949Y6012484D01*
X8894318Y6045098D01*
X8896807Y6056731D01*
X8899093Y6078626D01*
X8895232Y6082893D01*
X8888526Y6082893D01*
X8886494Y6077661D01*
X8880602Y6034582D01*
X8877858Y6007252D01*
X8870899Y6016853D01*
X8865514Y6047536D01*
X8863177Y6056731D01*
X8860332Y6076137D01*
X8854643Y6082893D01*
X8845804Y6082893D01*
X8840012Y6078372D01*
X8838539Y6062218D01*
X8834120Y6047384D01*
X8832545Y6032601D01*
X8828074Y6018326D01*
X8828024Y6012484D01*
X8825484Y6003290D01*
X8822893Y6007811D01*
X8818727Y6038088D01*
X8814054Y6077661D01*
G37*
G36*
X8362340Y6082893D02*
G01*
X8360409Y6077813D01*
X8363610Y6067196D01*
X8367979Y6057900D01*
X8373922Y6043930D01*
X8375396Y6038088D01*
X8379612Y6028791D01*
X8385556Y6014821D01*
X8387080Y6008979D01*
X8395004Y5992114D01*
X8399780Y5979363D01*
X8401964Y5977991D01*
X8401964Y5972657D01*
X8409127Y5958941D01*
X8415731Y5952794D01*
X8427720Y5950204D01*
X8440318Y5950204D01*
X8443823Y5955538D01*
X8441994Y5962446D01*
X8423605Y5963107D01*
X8420760Y5965494D01*
X8416290Y5974080D01*
X8411108Y5989777D01*
X8417306Y6006084D01*
X8419439Y6007404D01*
X8419439Y6011367D01*
X8426348Y6025286D01*
X8426399Y6029248D01*
X8432241Y6040170D01*
X8432241Y6043422D01*
X8438083Y6054394D01*
X8438083Y6057392D01*
X8442604Y6066332D01*
X8447024Y6077864D01*
X8445144Y6082893D01*
X8436102Y6082893D01*
X8432698Y6078829D01*
X8426399Y6065621D01*
X8426348Y6062522D01*
X8420608Y6050889D01*
X8420608Y6047333D01*
X8417407Y6042761D01*
X8413496Y6031128D01*
X8406282Y6012942D01*
X8402929Y6014212D01*
X8399830Y6014212D01*
X8394852Y6027623D01*
X8390331Y6037072D01*
X8390331Y6042050D01*
X8388146Y6043371D01*
X8383219Y6056731D01*
X8378698Y6066180D01*
X8378698Y6069990D01*
X8373618Y6078829D01*
X8370163Y6082893D01*
G37*
G36*
X7465009Y6082893D02*
G01*
X7461351Y6079236D01*
X7461351Y6071565D01*
X7464247Y6069177D01*
X7488732Y6068314D01*
X7498029Y6062776D01*
X7505598Y6055664D01*
X7507884Y6047384D01*
X7507935Y6001512D01*
X7503414Y5999073D01*
X7473442Y5999073D01*
X7470648Y5996279D01*
X7470648Y5990234D01*
X7473442Y5987440D01*
X7547660Y5987440D01*
X7552131Y5989878D01*
X7552131Y5996279D01*
X7549337Y5999073D01*
X7526832Y5999073D01*
X7523632Y6002934D01*
X7522870Y6064707D01*
X7525766Y6070092D01*
X7543647Y6070092D01*
X7550759Y6072581D01*
X7551928Y6077102D01*
X7550759Y6081623D01*
X7546898Y6082639D01*
X7513320Y6082893D01*
X7507935Y6077864D01*
X7507935Y6070244D01*
X7503871Y6067958D01*
X7493355Y6079540D01*
X7480553Y6082893D01*
G37*
G36*
X7363714Y6082893D02*
G01*
X7360056Y6077762D01*
X7360056Y5990234D01*
X7362850Y5987440D01*
X7370724Y5987440D01*
X7375194Y5989878D01*
X7375194Y5994450D01*
X7381240Y5994450D01*
X7390892Y5987592D01*
X7401001Y5985002D01*
X7414209Y5986576D01*
X7421372Y5989472D01*
X7429753Y5996889D01*
X7436307Y6007811D01*
X7437069Y6076543D01*
X7434630Y6082893D01*
X7426807Y6082893D01*
X7421930Y6077661D01*
X7421067Y6014821D01*
X7418222Y6006236D01*
X7408976Y5998870D01*
X7388809Y5998972D01*
X7379258Y6005830D01*
X7375347Y6015990D01*
X7375194Y6078677D01*
X7371334Y6082893D01*
G37*
G36*
X8730792Y5840780D02*
G01*
X8725357Y5836970D01*
X8715756Y5834837D01*
X8711793Y5831230D01*
X8701786Y5828995D01*
X8697772Y5825337D01*
X8687003Y5823356D01*
X8680450Y5818632D01*
X8675420Y5818632D01*
X8670290Y5816041D01*
X8665057Y5811266D01*
X8665057Y5652465D01*
X8733739Y5652465D01*
X8733739Y5752134D01*
X8736025Y5758129D01*
X8737854Y5758078D01*
X8759952Y5739384D01*
X8766911Y5735675D01*
X8782050Y5721807D01*
X8794851Y5713374D01*
X8804100Y5705805D01*
X8873083Y5705805D01*
X8910421Y5742990D01*
X8912656Y5742990D01*
X8914180Y5741416D01*
X8914180Y5662777D01*
X8912148Y5661558D01*
X8875217Y5698794D01*
X8873083Y5705805D01*
X8804100Y5705805D01*
X8804656Y5705348D01*
X8802471Y5701284D01*
X8781694Y5684215D01*
X8773109Y5678373D01*
X8769096Y5674715D01*
X8753500Y5661507D01*
X8751316Y5661507D01*
X8737142Y5649671D01*
X8733739Y5652465D01*
X8665057Y5652465D01*
X8665057Y5594451D01*
X8667851Y5591657D01*
X8673388Y5591657D01*
X8683091Y5586069D01*
X8691270Y5584342D01*
X8696807Y5580024D01*
X8702497Y5580024D01*
X8712200Y5574436D01*
X8720378Y5572709D01*
X8725916Y5568340D01*
X8733180Y5568340D01*
X8842451Y5677662D01*
X8849563Y5671972D01*
X8864701Y5661101D01*
X8883345Y5645505D01*
X8897721Y5635802D01*
X8898483Y5633821D01*
X8912098Y5622290D01*
X8920530Y5626557D01*
X8923731Y5626557D01*
X8930690Y5632399D01*
X8935923Y5632399D01*
X8938666Y5638342D01*
X8938666Y5769864D01*
X8929928Y5777890D01*
X8926372Y5777890D01*
X8917838Y5783732D01*
X8911285Y5783732D01*
X8904528Y5777890D01*
X8902598Y5777890D01*
X8886850Y5764733D01*
X8883345Y5760923D01*
X8872880Y5754116D01*
X8857742Y5741416D01*
X8854897Y5738012D01*
X8849563Y5734913D01*
X8842400Y5731103D01*
X8732621Y5840780D01*
G37*
G36*
X7370876Y5839612D02*
G01*
X7359853Y5833719D01*
X7357160Y5830874D01*
X7350810Y5822340D01*
X7347102Y5818632D01*
X7337298Y5818632D01*
X7332116Y5815025D01*
X7332116Y5787237D01*
X7469428Y5787237D01*
X7479385Y5767679D01*
X7494524Y5748578D01*
X7511084Y5728411D01*
X7515199Y5720435D01*
X7518400Y5724804D01*
X7518400Y5775198D01*
X7514894Y5787237D01*
X7568488Y5787237D01*
X7564374Y5780938D01*
X7564374Y5611926D01*
X7568692Y5605322D01*
X7565542Y5603341D01*
X7515047Y5603290D01*
X7513574Y5605627D01*
X7518400Y5611774D01*
X7518400Y5668010D01*
X7515047Y5672531D01*
X7511948Y5665266D01*
X7506157Y5657494D01*
X7500924Y5652058D01*
X7500924Y5650179D01*
X7489037Y5634126D01*
X7484465Y5629148D01*
X7480096Y5621324D01*
X7475372Y5612028D01*
X7475321Y5605678D01*
X7470800Y5603290D01*
X7417409Y5603290D01*
X7414768Y5606440D01*
X7419797Y5610860D01*
X7436916Y5631332D01*
X7436916Y5633415D01*
X7447991Y5646928D01*
X7454341Y5656376D01*
X7454341Y5657900D01*
X7459624Y5663438D01*
X7464856Y5670245D01*
X7472425Y5682030D01*
X7482230Y5693765D01*
X7484364Y5699404D01*
X7481722Y5705500D01*
X7443266Y5752896D01*
X7433767Y5765698D01*
X7419441Y5780481D01*
X7419441Y5782462D01*
X7414361Y5787237D01*
X7332116Y5787237D01*
X7332116Y5606643D01*
X7349744Y5606643D01*
X7354265Y5612384D01*
X7354265Y5734354D01*
X7357059Y5737148D01*
X7396734Y5737098D01*
X7400848Y5734710D01*
X7396175Y5728716D01*
X7396175Y5612384D01*
X7400950Y5605627D01*
X7399528Y5603290D01*
X7351014Y5603290D01*
X7349744Y5606643D01*
X7332116Y5606643D01*
X7332116Y5580989D01*
X7338923Y5574182D01*
X7579664Y5574182D01*
X7583220Y5577078D01*
X7587081Y5582869D01*
X7587081Y5809030D01*
X7585659Y5816041D01*
X7579969Y5818632D01*
X7405268Y5818632D01*
X7398816Y5822442D01*
X7394549Y5829706D01*
X7390231Y5834380D01*
X7379258Y5839409D01*
G37*
G36*
X7731810Y5838647D02*
G01*
X7721853Y5835954D01*
X7716316Y5830417D01*
X7716062Y5802934D01*
X7714437Y5797143D01*
X7701127Y5797143D01*
X7698892Y5793638D01*
X7698886Y5781548D01*
X7773365Y5781548D01*
X7773365Y5793740D01*
X7776260Y5797702D01*
X7836204Y5798261D01*
X7838541Y5791504D01*
X7838541Y5699201D01*
X7835747Y5696407D01*
X7814665Y5696458D01*
X7811516Y5698439D01*
X7811871Y5734862D01*
X7805775Y5737148D01*
X7781950Y5737148D01*
X7779156Y5739942D01*
X7779156Y5751830D01*
X7781950Y5754624D01*
X7807807Y5754624D01*
X7811566Y5757519D01*
X7812379Y5775350D01*
X7808315Y5777890D01*
X7776972Y5777890D01*
X7773365Y5781548D01*
X7698886Y5781548D01*
X7698841Y5622493D01*
X7761427Y5622493D01*
X7764119Y5631789D01*
X7770977Y5637174D01*
X7778597Y5637987D01*
X7783677Y5636920D01*
X7790037Y5629859D01*
X7797647Y5629859D01*
X7804200Y5636056D01*
X7809585Y5638190D01*
X7813497Y5637885D01*
X7818577Y5636920D01*
X7826908Y5627725D01*
X7826908Y5611266D01*
X7831277Y5611266D01*
X7836001Y5617870D01*
X7832699Y5622340D01*
X7832699Y5631078D01*
X7841386Y5638190D01*
X7847279Y5638038D01*
X7853172Y5636209D01*
X7860639Y5629351D01*
X7857845Y5626557D01*
X7851800Y5626557D01*
X7847279Y5630011D01*
X7845450Y5630062D01*
X7843062Y5623712D01*
X7850631Y5617514D01*
X7842605Y5612587D01*
X7840675Y5611977D01*
X7842300Y5605576D01*
X7846923Y5603087D01*
X7853222Y5609132D01*
X7859217Y5609132D01*
X7861706Y5606135D01*
X7853527Y5597448D01*
X7837627Y5597448D01*
X7832547Y5601563D01*
X7831277Y5611266D01*
X7826908Y5611266D01*
X7826908Y5605373D01*
X7818272Y5597448D01*
X7804048Y5597448D01*
X7797800Y5604002D01*
X7797800Y5618124D01*
X7801356Y5621121D01*
X7812836Y5621375D01*
X7815072Y5623661D01*
X7813802Y5630062D01*
X7811312Y5630062D01*
X7806537Y5625592D01*
X7798562Y5627217D01*
X7797647Y5629859D01*
X7790037Y5629859D01*
X7791958Y5627725D01*
X7791958Y5606186D01*
X7783677Y5597448D01*
X7769098Y5597448D01*
X7762646Y5604205D01*
X7761427Y5622493D01*
X7698841Y5622493D01*
X7698841Y5581345D01*
X7700264Y5577687D01*
X7910779Y5577687D01*
X7918958Y5581091D01*
X7922412Y5589422D01*
X7921752Y5641695D01*
X7925917Y5641695D01*
X7937042Y5636056D01*
X7940141Y5632348D01*
X7943291Y5634990D01*
X7943291Y5814415D01*
X7939430Y5818632D01*
X7935417Y5818632D01*
X7932420Y5822340D01*
X7914843Y5831738D01*
X7912303Y5835192D01*
X7899857Y5837986D01*
G37*
G36*
X8065211Y5834938D02*
G01*
X8055660Y5830468D01*
X8049717Y5829198D01*
X8036102Y5815380D01*
X8033715Y5811062D01*
X8031734Y5809742D01*
X8029244Y5794806D01*
X8030718Y5775655D01*
X8040065Y5761685D01*
X8048650Y5754928D01*
X8053324Y5753455D01*
X8059633Y5745530D01*
X8084769Y5745530D01*
X8090560Y5748731D01*
X8109203Y5748629D01*
X8115503Y5746292D01*
X8115452Y5724347D01*
X8116468Y5722620D01*
X8114842Y5718200D01*
X8111845Y5725515D01*
X8108645Y5725515D01*
X8104886Y5732881D01*
X8097570Y5739739D01*
X8084769Y5745530D01*
X8059674Y5745480D01*
X8048345Y5741720D01*
X8035848Y5728055D01*
X8030921Y5721451D01*
X8029244Y5705652D01*
X8030921Y5688025D01*
X8042706Y5673852D01*
X8049818Y5667400D01*
X8052155Y5667298D01*
X8063077Y5661507D01*
X8079892Y5661507D01*
X8095234Y5668873D01*
X8104886Y5676696D01*
X8107680Y5683554D01*
X8112302Y5684977D01*
X8114842Y5692241D01*
X8116163Y5688380D01*
X8114995Y5617819D01*
X8118500Y5600242D01*
X8124901Y5592216D01*
X8136991Y5580176D01*
X8144103Y5578805D01*
X8151114Y5575046D01*
X8165084Y5575249D01*
X8174278Y5580024D01*
X8179053Y5580024D01*
X8191855Y5592368D01*
X8198510Y5602020D01*
X8200390Y5618988D01*
X8198510Y5635802D01*
X8192414Y5643067D01*
X8192414Y5645048D01*
X8183676Y5653532D01*
X8176514Y5656732D01*
X8170214Y5664911D01*
X8180628Y5667552D01*
X8194192Y5682183D01*
X8196630Y5685383D01*
X8198561Y5688533D01*
X8200390Y5705144D01*
X8198510Y5721908D01*
X8193024Y5729427D01*
X8179511Y5742990D01*
X8176259Y5742990D01*
X8170468Y5745632D01*
X8175548Y5752541D01*
X8183778Y5756757D01*
X8193582Y5766257D01*
X8193582Y5769051D01*
X8198713Y5774486D01*
X8200440Y5790844D01*
X8198561Y5807608D01*
X8191449Y5818073D01*
X8178749Y5830316D01*
X8174075Y5830316D01*
X8163915Y5834888D01*
G37*
G36*
X8465413Y5830112D02*
G01*
X8411870Y5829706D01*
X8400948Y5824474D01*
X8395309Y5824474D01*
X8386724Y5818632D01*
X8382965Y5818632D01*
X8375345Y5812840D01*
X8373211Y5812840D01*
X8364118Y5805881D01*
X8352790Y5795975D01*
X8340598Y5783173D01*
X8333841Y5774994D01*
X8329777Y5766866D01*
X8321649Y5752084D01*
X8321649Y5748121D01*
X8316772Y5738926D01*
X8314690Y5721451D01*
X8313115Y5702046D01*
X8314271Y5690006D01*
X8333892Y5690006D01*
X8333994Y5717946D01*
X8339124Y5732424D01*
X8339124Y5740349D01*
X8342477Y5743143D01*
X8346287Y5754624D01*
X8348167Y5754624D01*
X8351113Y5762193D01*
X8362950Y5776163D01*
X8368792Y5782005D01*
X8382762Y5793943D01*
X8388603Y5795670D01*
X8395157Y5801207D01*
X8399932Y5801207D01*
X8407603Y5805932D01*
X8425840Y5808065D01*
X8433968Y5810504D01*
X8447938Y5810300D01*
X8454948Y5808167D01*
X8474252Y5805932D01*
X8480298Y5801207D01*
X8484514Y5801207D01*
X8490458Y5798464D01*
X8490458Y5796838D01*
X8498027Y5793689D01*
X8506155Y5788202D01*
X8512454Y5780582D01*
X8509762Y5777890D01*
X8505901Y5777890D01*
X8497112Y5770930D01*
X8495030Y5770930D01*
X8479282Y5760466D01*
X8475726Y5760466D01*
X8470442Y5754827D01*
X8464245Y5753303D01*
X8459622Y5749239D01*
X8444992Y5739434D01*
X8432850Y5726988D01*
X8426704Y5716778D01*
X8425078Y5709818D01*
X8398256Y5688330D01*
X8389772Y5686907D01*
X8382203Y5684316D01*
X8373465Y5675376D01*
X8373618Y5649010D01*
X8379256Y5641289D01*
X8394192Y5626658D01*
X8400694Y5625236D01*
X8406028Y5621121D01*
X8417306Y5619597D01*
X8425840Y5615533D01*
X8456117Y5615533D01*
X8463635Y5619648D01*
X8474710Y5620969D01*
X8480907Y5625287D01*
X8487562Y5626862D01*
X8493353Y5631891D01*
X8504986Y5639765D01*
X8512098Y5646928D01*
X8521293Y5660898D01*
X8524443Y5663387D01*
X8523528Y5667908D01*
X8518956Y5667146D01*
X8510828Y5661761D01*
X8502294Y5659069D01*
X8499500Y5655665D01*
X8491982Y5655665D01*
X8473795Y5651042D01*
X8459317Y5651042D01*
X8449157Y5654598D01*
X8435746Y5656021D01*
X8428278Y5661507D01*
X8423198Y5661507D01*
X8420150Y5665165D01*
X8411311Y5669686D01*
X8419998Y5677306D01*
X8425840Y5681319D01*
X8438642Y5690616D01*
X8446820Y5690616D01*
X8454948Y5694934D01*
X8460740Y5696661D01*
X8473592Y5704890D01*
X8528558Y5760313D01*
X8537041Y5751626D01*
X8537041Y5746242D01*
X8541867Y5739485D01*
X8543899Y5726125D01*
X8547404Y5716778D01*
X8547506Y5690971D01*
X8542832Y5677408D01*
X8542832Y5670550D01*
X8530793Y5646928D01*
X8524798Y5639612D01*
X8517788Y5629808D01*
X8500414Y5615533D01*
X8491016Y5609132D01*
X8487257Y5609132D01*
X8481060Y5604205D01*
X8467750Y5601208D01*
X8457285Y5597296D01*
X8418880Y5598058D01*
X8413038Y5602020D01*
X8402574Y5603544D01*
X8393887Y5609132D01*
X8390890Y5609132D01*
X8379256Y5617311D01*
X8371128Y5622747D01*
X8357158Y5638190D01*
X8351113Y5645759D01*
X8345068Y5657443D01*
X8339124Y5669584D01*
X8339124Y5675528D01*
X8333892Y5690006D01*
X8314271Y5690006D01*
X8316010Y5671413D01*
X8321649Y5659729D01*
X8321649Y5653786D01*
X8327491Y5645912D01*
X8327491Y5641848D01*
X8330539Y5638800D01*
X8341817Y5621426D01*
X8357260Y5605983D01*
X8373567Y5595366D01*
X8376666Y5591657D01*
X8380577Y5591657D01*
X8388451Y5585815D01*
X8394700Y5585815D01*
X8400897Y5580938D01*
X8417255Y5578906D01*
X8429193Y5575350D01*
X8451646Y5575350D01*
X8469884Y5580024D01*
X8477097Y5580024D01*
X8488019Y5585815D01*
X8492337Y5585815D01*
X8500211Y5591657D01*
X8504275Y5591657D01*
X8508136Y5595518D01*
X8515502Y5600852D01*
X8523630Y5605373D01*
X8538057Y5620156D01*
X8542274Y5625998D01*
X8544560Y5629757D01*
X8549081Y5636463D01*
X8553043Y5641136D01*
X8555786Y5649671D01*
X8558987Y5652312D01*
X8561476Y5663895D01*
X8565134Y5669534D01*
X8567572Y5694680D01*
X8567674Y5710986D01*
X8565184Y5738215D01*
X8560308Y5746191D01*
X8560308Y5751982D01*
X8555990Y5757519D01*
X8553246Y5765596D01*
X8548116Y5771083D01*
X8548370Y5780481D01*
X8571585Y5804103D01*
X8569248Y5810300D01*
X8563305Y5811418D01*
X8557666Y5806998D01*
X8554872Y5806998D01*
X8543442Y5799632D01*
X8538362Y5795162D01*
X8530336Y5794908D01*
X8509000Y5812840D01*
X8504834Y5812840D01*
X8499348Y5818632D01*
X8494420Y5818632D01*
X8486495Y5824474D01*
X8479383Y5824474D01*
X8472424Y5828284D01*
G37*
G36*
X9096908Y5827979D02*
G01*
X9094520Y5821730D01*
X9094825Y5757062D01*
X9093200Y5754420D01*
X9085529Y5761837D01*
X9076690Y5774994D01*
X9067139Y5786628D01*
X9059164Y5798261D01*
X9049613Y5809945D01*
X9040876Y5822746D01*
X9037015Y5824321D01*
X9026550Y5824423D01*
X9010243Y5818682D01*
X8999474Y5818632D01*
X8996680Y5815279D01*
X8998305Y5809945D01*
X9013799Y5791301D01*
X9022283Y5778347D01*
X9031224Y5769152D01*
X9038082Y5758688D01*
X9049258Y5745480D01*
X9049207Y5738926D01*
X9042349Y5728411D01*
X9032290Y5715609D01*
X9025432Y5705144D01*
X9015882Y5693511D01*
X9005925Y5677814D01*
X9004249Y5677814D01*
X8996680Y5666130D01*
X8997442Y5662066D01*
X9006738Y5660745D01*
X9016034Y5655665D01*
X9022537Y5655665D01*
X9034170Y5649772D01*
X9038691Y5652211D01*
X9045143Y5660847D01*
X9049258Y5664962D01*
X9049258Y5668314D01*
X9052153Y5671413D01*
X9059824Y5681878D01*
X9069070Y5695848D01*
X9078315Y5708650D01*
X9078315Y5710478D01*
X9089796Y5724245D01*
X9091320Y5729122D01*
X9094063Y5728258D01*
X9095232Y5659526D01*
X9098127Y5656021D01*
X9122003Y5654649D01*
X9134246Y5651246D01*
X9135465Y5656275D01*
X9134805Y5823915D01*
X9106712Y5825540D01*
X9101023Y5827826D01*
G37*
G36*
X9184233Y5783732D02*
G01*
X9174378Y5777382D01*
X9166758Y5770930D01*
X9164269Y5770930D01*
X9158376Y5766257D01*
X9149892Y5766257D01*
X9144914Y5769762D01*
X9142374Y5762447D01*
X9142374Y5757316D01*
X9149283Y5750052D01*
X9155734Y5746648D01*
X9168079Y5735726D01*
X9172397Y5727293D01*
X9177274Y5722823D01*
X9177274Y5717133D01*
X9182506Y5709818D01*
X9182506Y5676036D01*
X9177274Y5666790D01*
X9177274Y5663133D01*
X9171482Y5655208D01*
X9171482Y5652566D01*
X9155633Y5637631D01*
X9150756Y5633770D01*
X9145270Y5632094D01*
X9134297Y5626354D01*
X9097010Y5626455D01*
X9086850Y5632399D01*
X9083192Y5632399D01*
X9071508Y5641644D01*
X9061754Y5651601D01*
X9058503Y5659170D01*
X9056217Y5659170D01*
X9056217Y5657240D01*
X9050223Y5654040D01*
X9047022Y5646369D01*
X9040977Y5638444D01*
X9034678Y5636869D01*
X9031782Y5634431D01*
X9031782Y5630062D01*
X9026804Y5625084D01*
X9025077Y5617464D01*
X9040723Y5601970D01*
X9047327Y5603646D01*
X9055404Y5609132D01*
X9057284Y5609132D01*
X9063024Y5614365D01*
X9070543Y5620054D01*
X9078214Y5620054D01*
X9082430Y5616295D01*
X9092895Y5613603D01*
X9095790Y5609844D01*
X9095841Y5602732D01*
X9100464Y5592521D01*
X9101785Y5582920D01*
X9102801Y5577738D01*
X9107830Y5575046D01*
X9127794Y5575452D01*
X9129623Y5577281D01*
X9131757Y5590286D01*
X9135465Y5597550D01*
X9136888Y5612384D01*
X9142476Y5614924D01*
X9146235Y5614924D01*
X9156649Y5621020D01*
X9163913Y5617260D01*
X9168536Y5614365D01*
X9175140Y5609132D01*
X9178290Y5609132D01*
X9185198Y5603290D01*
X9191802Y5603290D01*
X9206382Y5617768D01*
X9206382Y5623661D01*
X9200591Y5630418D01*
X9200591Y5633161D01*
X9191853Y5644591D01*
X9188704Y5647944D01*
X9189872Y5658307D01*
X9192056Y5659729D01*
X9194749Y5664860D01*
X9194749Y5670499D01*
X9197644Y5672836D01*
X9203486Y5674156D01*
X9216288Y5678881D01*
X9227312Y5678982D01*
X9231426Y5685231D01*
X9232595Y5705754D01*
X9213951Y5712866D01*
X9197644Y5714187D01*
X9194749Y5716473D01*
X9194749Y5720537D01*
X9188754Y5729427D01*
X9188754Y5739739D01*
X9194749Y5746038D01*
X9194749Y5748223D01*
X9204858Y5763615D01*
X9206280Y5768949D01*
X9191853Y5783630D01*
G37*
G36*
X7777784Y5631789D02*
G01*
X7771028Y5623763D01*
X7771028Y5611317D01*
X7774431Y5604713D01*
X7777734Y5603443D01*
X7780324Y5606084D01*
X7780324Y5625236D01*
G37*
G36*
X7812430Y5614924D02*
G01*
X7807706Y5613501D01*
X7805724Y5611723D01*
X7809331Y5604713D01*
X7812633Y5603443D01*
X7815224Y5606084D01*
X7815224Y5612130D01*
G37*
G36*
X9106458Y5434482D02*
G01*
X9102699Y5433060D01*
X9099296Y5426456D01*
X9099296Y5418785D01*
X9103918Y5411216D01*
X9116466Y5411216D01*
X9122511Y5415940D01*
X9123984Y5423814D01*
X9122511Y5428437D01*
X9116415Y5434482D01*
G37*
G36*
X9227210Y5427624D02*
G01*
X9187180Y5426913D01*
X9174276Y5420461D01*
X9166809Y5407507D01*
X9166809Y5399582D01*
X9187738Y5399582D01*
X9189262Y5408980D01*
X9193022Y5410962D01*
X9203486Y5412282D01*
X9209887Y5409844D01*
X9209887Y5389372D01*
X9206026Y5386171D01*
X9194698Y5386527D01*
X9189262Y5390083D01*
X9187738Y5399582D01*
X9166809Y5399582D01*
X9166809Y5395163D01*
X9176461Y5380736D01*
X9179560Y5379567D01*
X9168536Y5372201D01*
X9164218Y5363260D01*
X9164218Y5358841D01*
X9183928Y5358841D01*
X9186824Y5367731D01*
X9191193Y5370423D01*
X9203486Y5371592D01*
X9209887Y5369102D01*
X9209887Y5347157D01*
X9201658Y5343194D01*
X9190685Y5346141D01*
X9186570Y5349900D01*
X9183928Y5358841D01*
X9164218Y5358841D01*
X9164269Y5348935D01*
X9166961Y5341924D01*
X9172041Y5336438D01*
X9181388Y5330291D01*
X9226296Y5329529D01*
X9229699Y5332323D01*
X9229699Y5423001D01*
G37*
G36*
X9021775Y5403037D02*
G01*
X9019540Y5401005D01*
X9011208Y5398363D01*
X9003893Y5392267D01*
X8996324Y5379212D01*
X8996324Y5356758D01*
X9016644Y5356758D01*
X9016644Y5373370D01*
X9022384Y5385612D01*
X9028430Y5387898D01*
X9034678Y5387746D01*
X9040977Y5385409D01*
X9046210Y5376976D01*
X9047175Y5357012D01*
X9042806Y5347766D01*
X9034627Y5343906D01*
X9028887Y5343347D01*
X9024213Y5345176D01*
X9019946Y5348884D01*
X9016644Y5356758D01*
X8996324Y5356758D01*
X8996324Y5352389D01*
X9001861Y5341924D01*
X9013444Y5330850D01*
X9019540Y5329123D01*
X9045346Y5329123D01*
X9058148Y5337606D01*
X9065514Y5349087D01*
X9068054Y5367274D01*
X9065260Y5383733D01*
X9059773Y5392013D01*
X9051696Y5398363D01*
X9040520Y5402834D01*
G37*
G36*
X9103614Y5400700D02*
G01*
X9100515Y5396636D01*
X9100413Y5348935D01*
X9098737Y5346293D01*
X9081719Y5345328D01*
X9079534Y5341924D01*
X9079484Y5332526D01*
X9082278Y5329732D01*
X9140748Y5329732D01*
X9143542Y5332526D01*
X9143492Y5341924D01*
X9141358Y5345379D01*
X9123883Y5346801D01*
X9120225Y5349798D01*
X9120225Y5379466D01*
X9125102Y5385612D01*
X9139275Y5385612D01*
X9143542Y5389422D01*
X9143542Y5397957D01*
X9140748Y5400700D01*
G37*
G36*
X8674150Y5074716D02*
G01*
X8669731Y5072380D01*
X8669731Y5069535D01*
X8672220Y5060238D01*
X8682228Y5038090D01*
X8683853Y5030774D01*
X8688374Y5021884D01*
X8688374Y5018328D01*
X8692997Y5011318D01*
X8692997Y5006594D01*
X8697620Y4997551D01*
X8701481Y4985715D01*
X8703513Y4983073D01*
X8707221Y4970576D01*
X8711438Y4962296D01*
X8713063Y4953609D01*
X8719972Y4950053D01*
X8723274Y4952796D01*
X8723274Y4957876D01*
X8718854Y4966512D01*
X8717280Y4972913D01*
X8711488Y4986883D01*
X8707120Y4996180D01*
X8704478Y5006441D01*
X8700008Y5014772D01*
X8698484Y5022850D01*
X8694420Y5029962D01*
X8691778Y5038293D01*
X8687206Y5047335D01*
X8687206Y5051602D01*
X8682634Y5060238D01*
X8681313Y5066588D01*
G37*
G36*
X8754973Y5073599D02*
G01*
X8752332Y5070398D01*
X8753805Y5066030D01*
X8763711Y5043932D01*
X8765336Y5036566D01*
X8769858Y5027726D01*
X8769858Y5024120D01*
X8774480Y5017160D01*
X8774480Y5012385D01*
X8779103Y5003342D01*
X8781745Y4995011D01*
X8785148Y4989576D01*
X8788450Y4976926D01*
X8792921Y4968138D01*
X8794445Y4960112D01*
X8800896Y4950764D01*
X8806484Y4951425D01*
X8808770Y4953711D01*
X8804757Y4960467D01*
X8804757Y4963668D01*
X8800388Y4972304D01*
X8798763Y4978704D01*
X8792972Y4992674D01*
X8788603Y5002022D01*
X8785961Y5012283D01*
X8781491Y5020614D01*
X8779967Y5028641D01*
X8775903Y5035753D01*
X8773007Y5045100D01*
X8770061Y5049723D01*
X8768435Y5057902D01*
X8764016Y5065166D01*
X8764016Y5069078D01*
X8761628Y5073599D01*
G37*
G36*
X7078268Y5073599D02*
G01*
X7076998Y5070348D01*
X7081520Y5061356D01*
X7083094Y5054396D01*
X7087514Y5045100D01*
X7093458Y5030825D01*
X7093559Y5027625D01*
X7098080Y5018328D01*
X7098131Y5015992D01*
X7103567Y5004358D01*
X7112355Y4978704D01*
X7123074Y4954270D01*
X7125208Y4951374D01*
X7131659Y4951374D01*
X7132878Y4954625D01*
X7128713Y4962448D01*
X7126986Y4970576D01*
X7122566Y4977841D01*
X7122566Y4981752D01*
X7118654Y4989220D01*
X7113574Y5003190D01*
X7107224Y5019497D01*
X7102703Y5032248D01*
X7098131Y5041747D01*
X7098131Y5046675D01*
X7095947Y5048046D01*
X7091070Y5061356D01*
X7087666Y5068722D01*
X7087666Y5070805D01*
X7084872Y5073599D01*
G37*
G36*
X6660896Y5073599D02*
G01*
X6658356Y5071110D01*
X6663080Y5059070D01*
X6668566Y5045964D01*
X6668566Y5043271D01*
X6674103Y5032298D01*
X6675678Y5024932D01*
X6680200Y5016093D01*
X6680200Y5012486D01*
X6684873Y5004866D01*
X6684873Y5001209D01*
X6691884Y4984546D01*
X6696303Y4975250D01*
X6697725Y4968748D01*
X6703568Y4955438D01*
X6705447Y4951933D01*
X6712813Y4951222D01*
X6714236Y4954879D01*
X6710832Y4960112D01*
X6709156Y4967071D01*
X6703517Y4979365D01*
X6703517Y4981905D01*
X6699046Y4990388D01*
X6690359Y5015992D01*
X6688074Y5020513D01*
X6680200Y5039969D01*
X6680200Y5042306D01*
X6674408Y5055057D01*
X6674358Y5057902D01*
X6669735Y5065522D01*
X6669735Y5068417D01*
X6666128Y5073599D01*
G37*
G36*
X8609787Y5073294D02*
G01*
X8603945Y5072227D01*
X8601354Y5071465D01*
X8599932Y5064302D01*
X8602167Y5058460D01*
X8607907Y5055819D01*
X8615222Y5058816D01*
X8617305Y5064302D01*
X8615984Y5070906D01*
G37*
G36*
X6933387Y5073192D02*
G01*
X6926681Y5071364D01*
X6925767Y5070398D01*
X6924446Y5062474D01*
X6929018Y5056835D01*
X6937552Y5057089D01*
X6940753Y5059730D01*
X6942226Y5065572D01*
X6939229Y5071770D01*
G37*
G36*
X9221571Y5072430D02*
G01*
X9220962Y5072380D01*
X9217456Y5070195D01*
X9216034Y5034584D01*
X9215729Y5033670D01*
X9211614Y5037226D01*
X9200286Y5042154D01*
X9190177Y5042154D01*
X9177883Y5036616D01*
X9170924Y5027676D01*
X9170873Y4970830D01*
X9174835Y4968341D01*
X9181388Y4970627D01*
X9182506Y5023408D01*
X9190431Y5031587D01*
X9197289Y5033111D01*
X9207550Y5031536D01*
X9216288Y5023307D01*
X9217050Y4971338D01*
X9220250Y4968646D01*
X9227362Y4970170D01*
X9227362Y5068824D01*
X9222181Y5072430D01*
G37*
G36*
X6443319Y5067757D02*
G01*
X6422898Y5066893D01*
X6413906Y5060696D01*
X6406997Y5052060D01*
X6401765Y5036210D01*
X6401936Y5033467D01*
X6413601Y5033467D01*
X6413703Y5041595D01*
X6418935Y5051907D01*
X6425031Y5056428D01*
X6440982Y5057343D01*
X6449872Y5054041D01*
X6450584Y5053228D01*
X6456883Y5039766D01*
X6455257Y5029962D01*
X6452209Y5022545D01*
X6442354Y5015382D01*
X6428587Y5015382D01*
X6418732Y5021173D01*
X6413601Y5033467D01*
X6401936Y5033467D01*
X6402933Y5018328D01*
X6408369Y5000802D01*
X6418630Y4985715D01*
X6429908Y4974336D01*
X6437376Y4968849D01*
X6444589Y4968849D01*
X6448552Y4971745D01*
X6434378Y4983378D01*
X6424523Y4995011D01*
X6417818Y5007051D01*
X6420916Y5013655D01*
X6422034Y5010556D01*
X6432753Y5005933D01*
X6443878Y5005882D01*
X6456527Y5009845D01*
X6462979Y5017058D01*
X6468313Y5031790D01*
X6468313Y5039258D01*
X6463588Y5054396D01*
X6456222Y5061966D01*
X6453378Y5061966D01*
X6450228Y5065064D01*
G37*
G36*
X6361836Y5067757D02*
G01*
X6341872Y5067096D01*
X6329426Y5059426D01*
X6325362Y5054396D01*
X6322669Y5045405D01*
X6324244Y5035753D01*
X6327394Y5029657D01*
X6334099Y5024018D01*
X6335268Y5017770D01*
X6327698Y5012588D01*
X6320485Y5000040D01*
X6320637Y4991506D01*
X6324549Y4981956D01*
X6329222Y4975707D01*
X6340805Y4968240D01*
X6367627Y4968240D01*
X6380835Y4976418D01*
X6384290Y4983530D01*
X6380429Y4988458D01*
X6373469Y4985461D01*
X6369202Y4980686D01*
X6354216Y4976622D01*
X6339687Y4980889D01*
X6336893Y4982972D01*
X6332829Y4995011D01*
X6333490Y5000447D01*
X6336690Y5008016D01*
X6344767Y5014214D01*
X6363258Y5014214D01*
X6366306Y5017871D01*
X6364071Y5024120D01*
X6351320Y5025491D01*
X6342888Y5027066D01*
X6338316Y5031130D01*
X6335623Y5036210D01*
X6335623Y5047488D01*
X6339586Y5053228D01*
X6342024Y5054955D01*
X6350965Y5057444D01*
X6363208Y5055920D01*
X6371132Y5049012D01*
X6374841Y5046929D01*
X6381038Y5053380D01*
X6372047Y5062524D01*
X6368694Y5065115D01*
G37*
G36*
X6260287Y5067757D02*
G01*
X6246063Y5060238D01*
X6238798Y5050332D01*
X6233160Y5027625D01*
X6233160Y5009946D01*
X6244539Y5009946D01*
X6245809Y5034584D01*
X6250178Y5047996D01*
X6256934Y5055006D01*
X6265214Y5057292D01*
X6269837Y5057089D01*
X6276848Y5055362D01*
X6282232Y5052466D01*
X6289040Y5037734D01*
X6289040Y4996789D01*
X6281674Y4981905D01*
X6274155Y4978298D01*
X6265926Y4976723D01*
X6257036Y4979619D01*
X6251600Y4984546D01*
X6248450Y4990541D01*
X6244539Y5009946D01*
X6233160Y5009946D01*
X6237986Y4985715D01*
X6243675Y4977434D01*
X6251600Y4969713D01*
X6261709Y4967782D01*
X6274816Y4967681D01*
X6281928Y4969103D01*
X6294729Y4981041D01*
X6296355Y4988052D01*
X6300673Y4997754D01*
X6302146Y5024120D01*
X6299555Y5040579D01*
X6294424Y5053228D01*
X6287516Y5061966D01*
X6284569Y5061966D01*
X6281470Y5064912D01*
X6275679Y5067604D01*
G37*
G36*
X6525971Y5067655D02*
G01*
X6507937Y5066995D01*
X6496812Y5059426D01*
X6488938Y5047437D01*
X6485788Y5031130D01*
X6485788Y5012029D01*
X6495948Y5012029D01*
X6497624Y5034584D01*
X6500063Y5046268D01*
X6506870Y5054904D01*
X6515506Y5057292D01*
X6521297Y5057038D01*
X6525971Y5056022D01*
X6531762Y5053736D01*
X6537909Y5045100D01*
X6540500Y5035753D01*
X6540500Y5000142D01*
X6537807Y4989322D01*
X6532270Y4981143D01*
X6524802Y4977993D01*
X6514947Y4977942D01*
X6507073Y4980533D01*
X6500825Y4987544D01*
X6498945Y4992674D01*
X6495948Y5012029D01*
X6485788Y5012029D01*
X6485788Y5004358D01*
X6488074Y4990388D01*
X6495440Y4975860D01*
X6506972Y4968443D01*
X6524802Y4967427D01*
X6534251Y4969967D01*
X6543598Y4977942D01*
X6551574Y4995011D01*
X6551574Y5040426D01*
X6544208Y5055565D01*
X6537604Y5061610D01*
X6530594Y5066334D01*
G37*
G36*
X9040876Y5066842D02*
G01*
X9034729Y5065268D01*
X9032951Y5062524D01*
X9032951Y5047894D01*
X9029547Y5039817D01*
X9004604Y5039817D01*
X9000337Y5035956D01*
X9004198Y5031689D01*
X9028887Y5031638D01*
X9032341Y5029454D01*
X9033103Y4983835D01*
X9029395Y4978146D01*
X9003893Y4978146D01*
X9000337Y4971237D01*
X9004858Y4968849D01*
X9034729Y4968849D01*
X9043416Y4977231D01*
X9043670Y5025288D01*
X9045244Y5031130D01*
X9063736Y5031790D01*
X9067901Y5035550D01*
X9063990Y5039817D01*
X9053068Y5039817D01*
X9045600Y5042458D01*
X9043416Y5048148D01*
X9043416Y5062118D01*
G37*
G36*
X8453018Y5066639D02*
G01*
X8451443Y5066588D01*
X8448700Y5064810D01*
X8446211Y5058308D01*
X8446211Y5044643D01*
X8440064Y5039817D01*
X8416493Y5039817D01*
X8413750Y5035448D01*
X8417712Y5031892D01*
X8443976Y5031130D01*
X8446160Y5027625D01*
X8446211Y4981752D01*
X8441029Y4978146D01*
X8416188Y4978146D01*
X8413800Y4971288D01*
X8417001Y4968646D01*
X8449665Y4969408D01*
X8456117Y4975860D01*
X8457285Y5029149D01*
X8459012Y5030927D01*
X8477199Y5031943D01*
X8481517Y5035143D01*
X8477300Y5039817D01*
X8463940Y5039817D01*
X8456676Y5046573D01*
X8456676Y5062982D01*
G37*
G36*
X8031937Y5066639D02*
G01*
X8028279Y5062982D01*
X8028279Y5047030D01*
X8022234Y5039817D01*
X7997698Y5039817D01*
X7994700Y5035753D01*
X7998358Y5031689D01*
X8020710Y5031638D01*
X8025790Y5030317D01*
X8028279Y5023205D01*
X8028279Y4982972D01*
X8022132Y4978146D01*
X7997088Y4978146D01*
X7994751Y4971389D01*
X7997342Y4968849D01*
X8027720Y4968849D01*
X8033308Y4971745D01*
X8038185Y4978298D01*
X8039353Y5028387D01*
X8043875Y5031689D01*
X8057235Y5031689D01*
X8063230Y5033975D01*
X8063230Y5037429D01*
X8058708Y5039817D01*
X8045297Y5039817D01*
X8037575Y5047284D01*
X8037575Y5062982D01*
X8033918Y5066639D01*
G37*
G36*
X7695438Y5066639D02*
G01*
X7692999Y5062118D01*
X7692999Y5047183D01*
X7690459Y5039817D01*
X7664145Y5039817D01*
X7659014Y5035651D01*
X7663078Y5032298D01*
X7690815Y5031486D01*
X7692999Y5025745D01*
X7692999Y4984089D01*
X7690307Y4978146D01*
X7664094Y4978146D01*
X7659166Y4971897D01*
X7661706Y4969408D01*
X7693964Y4968646D01*
X7703312Y4977079D01*
X7704074Y5029454D01*
X7707579Y5031638D01*
X7725511Y5031689D01*
X7727746Y5035804D01*
X7725511Y5039817D01*
X7715707Y5039868D01*
X7706868Y5041341D01*
X7703515Y5047894D01*
X7703515Y5064150D01*
X7699400Y5066538D01*
G37*
G36*
X6625539Y5066639D02*
G01*
X6578346Y5066588D01*
X6575653Y5064861D01*
X6574942Y5059070D01*
X6576720Y5056124D01*
X6613601Y5056124D01*
X6618731Y5052009D01*
X6620916Y5024323D01*
X6619036Y5022443D01*
X6607657Y5028184D01*
X6591147Y5028082D01*
X6582968Y5025186D01*
X6576364Y5019497D01*
X6570319Y5007813D01*
X6570319Y4989017D01*
X6576720Y4978095D01*
X6588252Y4969002D01*
X6601256Y4967376D01*
X6617004Y4968494D01*
X6630060Y4978146D01*
X6632498Y4982667D01*
X6632498Y4985105D01*
X6624929Y4988306D01*
X6617919Y4981752D01*
X6607454Y4977028D01*
X6603492Y4976977D01*
X6591147Y4979619D01*
X6582409Y4989017D01*
X6582409Y5006340D01*
X6589877Y5015738D01*
X6600190Y5020310D01*
X6609486Y5018836D01*
X6622592Y5011928D01*
X6626301Y5011877D01*
X6630416Y5016449D01*
X6627622Y5061204D01*
G37*
G36*
X9122003Y5066131D02*
G01*
X9118193Y5065268D01*
X9116771Y5058156D01*
X9116771Y5044846D01*
X9111843Y5040426D01*
X9086138Y5039258D01*
X9083700Y5035397D01*
X9086799Y5031689D01*
X9111589Y5031689D01*
X9116771Y5028082D01*
X9116771Y4981905D01*
X9112910Y4978704D01*
X9085478Y4977942D01*
X9084005Y4971237D01*
X9085478Y4968849D01*
X9117634Y4968849D01*
X9123781Y4973675D01*
X9126677Y4978704D01*
X9127794Y5028387D01*
X9132316Y5031689D01*
X9145727Y5031689D01*
X9151670Y5033975D01*
X9151670Y5037429D01*
X9147200Y5039817D01*
X9133179Y5039817D01*
X9127236Y5047640D01*
X9127185Y5060238D01*
X9125813Y5065318D01*
G37*
G36*
X6990892Y5050332D02*
G01*
X6986371Y5047894D01*
X6986371Y5044490D01*
X6991045Y5039817D01*
X6997750Y5039817D01*
X7000849Y5036108D01*
X6994296Y5024069D01*
X6994348Y5017719D01*
X7005320Y5017719D01*
X7007098Y5027574D01*
X7013295Y5032857D01*
X7028891Y5032603D01*
X7033006Y5031536D01*
X7037882Y5021935D01*
X7037730Y5013350D01*
X7033514Y5004409D01*
X7023049Y5001412D01*
X7013498Y5002784D01*
X7007047Y5008372D01*
X7005320Y5017719D01*
X6994348Y5017719D01*
X6994398Y5011826D01*
X6996023Y5006644D01*
X7001916Y4998923D01*
X7013752Y4992878D01*
X7034072Y4991811D01*
X7036104Y4989220D01*
X7037628Y4982870D01*
X7032345Y4980076D01*
X6998614Y4978603D01*
X6989775Y4973218D01*
X6986066Y4966055D01*
X6984500Y4959959D01*
X6994702Y4959959D01*
X6998055Y4966411D01*
X7002525Y4968849D01*
X7038492Y4968849D01*
X7041184Y4965547D01*
X7042556Y4957216D01*
X7038797Y4951476D01*
X7030466Y4947513D01*
X7005980Y4949037D01*
X6998208Y4952695D01*
X6994702Y4959959D01*
X6984500Y4959959D01*
X6989419Y4947310D01*
X6998614Y4942078D01*
X7007402Y4939639D01*
X7037781Y4939690D01*
X7050430Y4946904D01*
X7052716Y4951222D01*
X7052716Y4961686D01*
X7050481Y4967681D01*
X7047687Y4967681D01*
X7043623Y4971338D01*
X7048246Y4981803D01*
X7046264Y4990338D01*
X7040524Y4993233D01*
X7038187Y4994097D01*
X7045858Y5003749D01*
X7049262Y5013350D01*
X7049262Y5022037D01*
X7046620Y5029962D01*
X7039356Y5037632D01*
X7028891Y5042357D01*
X7009079Y5041646D01*
X7006183Y5043474D01*
X7006183Y5047894D01*
X7002068Y5050231D01*
G37*
G36*
X8936228Y5042154D02*
G01*
X8927134Y5037531D01*
X8921394Y5031790D01*
X8915146Y5018532D01*
X8915050Y5005527D01*
X8925966Y5005527D01*
X8927693Y5020919D01*
X8935516Y5029962D01*
X8943898Y5032705D01*
X8952026Y5032603D01*
X8956700Y5031435D01*
X8962136Y5026456D01*
X8965438Y5020157D01*
X8965438Y4989677D01*
X8960815Y4980686D01*
X8947302Y4976114D01*
X8934246Y4981041D01*
X8927338Y4989220D01*
X8925966Y5005527D01*
X8915050Y5005527D01*
X8914993Y4990998D01*
X8922766Y4975707D01*
X8930386Y4969002D01*
X8941206Y4967376D01*
X8953144Y4968798D01*
X8959037Y4973116D01*
X8965184Y4974640D01*
X8965996Y4944719D01*
X8969197Y4940909D01*
X8972245Y4940909D01*
X8975902Y4944567D01*
X8975902Y5035600D01*
X8972042Y5039817D01*
X8969095Y5039817D01*
X8964523Y5034076D01*
X8948521Y5042052D01*
G37*
G36*
X8860536Y5042154D02*
G01*
X8854846Y5036007D01*
X8854846Y5028539D01*
X8859672Y5022392D01*
X8867394Y5022392D01*
X8874607Y5029149D01*
X8874556Y5035753D01*
X8871661Y5039258D01*
X8867038Y5042052D01*
G37*
G36*
X8520785Y5042154D02*
G01*
X8510828Y5038394D01*
X8502294Y5029098D01*
X8500770Y5022951D01*
X8499500Y4971237D01*
X8505596Y4968443D01*
X8511286Y4971034D01*
X8511997Y5020614D01*
X8515502Y5027422D01*
X8521700Y5031994D01*
X8532926Y5033010D01*
X8541054Y5028793D01*
X8546338Y5020868D01*
X8546338Y4971237D01*
X8551265Y4968595D01*
X8556802Y4971084D01*
X8556802Y5035600D01*
X8552942Y5039817D01*
X8549944Y5039817D01*
X8545880Y5034483D01*
X8531758Y5042103D01*
G37*
G36*
X8354517Y5042154D02*
G01*
X8342020Y5036566D01*
X8334502Y5028692D01*
X8330567Y5017160D01*
X8341410Y5017160D01*
X8346389Y5026456D01*
X8354618Y5032857D01*
X8367623Y5032705D01*
X8371179Y5031130D01*
X8378647Y5025491D01*
X8380831Y5018328D01*
X8382152Y5012283D01*
X8376259Y5009591D01*
X8347405Y5009591D01*
X8341461Y5011826D01*
X8341410Y5017160D01*
X8330567Y5017160D01*
X8328659Y5011470D01*
X8328659Y5005070D01*
X8331555Y5003190D01*
X8379663Y5002022D01*
X8381542Y5000091D01*
X8381339Y4991100D01*
X8376970Y4983632D01*
X8370722Y4979009D01*
X8359546Y4976164D01*
X8346084Y4980686D01*
X8341664Y4986274D01*
X8336076Y4986274D01*
X8332012Y4983327D01*
X8337346Y4975504D01*
X8346948Y4968646D01*
X8365693Y4967325D01*
X8376564Y4970068D01*
X8380222Y4972913D01*
X8389213Y4982057D01*
X8393836Y4997602D01*
X8393734Y5010150D01*
X8390636Y5024577D01*
X8380628Y5036566D01*
X8368792Y5042001D01*
G37*
G36*
X8184235Y5042154D02*
G01*
X8173669Y5037226D01*
X8168233Y5029962D01*
X8164474Y5018786D01*
X8164474Y4971643D01*
X8167268Y4968849D01*
X8173516Y4968849D01*
X8176006Y4971796D01*
X8176717Y5021986D01*
X8183676Y5030419D01*
X8192770Y5033010D01*
X8203793Y5031486D01*
X8210499Y5024577D01*
X8211616Y4969408D01*
X8219338Y4968697D01*
X8222691Y4971440D01*
X8222691Y5035346D01*
X8220303Y5039817D01*
X8212429Y5039817D01*
X8207806Y5032552D01*
X8205165Y5037531D01*
X8196529Y5041900D01*
G37*
G36*
X8103209Y5042154D02*
G01*
X8090560Y5036159D01*
X8082991Y5028895D01*
X8082991Y5026355D01*
X8078266Y5017160D01*
X8077504Y5011826D01*
X8090001Y5011826D01*
X8090001Y5017668D01*
X8094878Y5026456D01*
X8099247Y5030571D01*
X8105292Y5032857D01*
X8114995Y5032705D01*
X8120684Y5030419D01*
X8129574Y5021376D01*
X8129574Y5012385D01*
X8126780Y5009591D01*
X8095945Y5009591D01*
X8090001Y5011826D01*
X8077504Y5011826D01*
X8076844Y5007203D01*
X8081009Y5002580D01*
X8125866Y5002580D01*
X8129574Y5001158D01*
X8129574Y4989626D01*
X8126882Y4984546D01*
X8122005Y4980279D01*
X8113826Y4976825D01*
X8104530Y4976774D01*
X8093405Y4981600D01*
X8092135Y4985004D01*
X8085074Y4986528D01*
X8081873Y4983378D01*
X8083753Y4976469D01*
X8097570Y4968240D01*
X8120888Y4968240D01*
X8133181Y4976114D01*
X8140242Y4986426D01*
X8142630Y5003190D01*
X8141360Y5018836D01*
X8137499Y5026964D01*
X8128203Y5037531D01*
X8118500Y5042001D01*
G37*
G36*
X7935569Y5042154D02*
G01*
X7923428Y5036312D01*
X7916418Y5028793D01*
X7910271Y5015992D01*
X7910207Y5005425D01*
X7920939Y5005425D01*
X7922209Y5016398D01*
X7926781Y5025288D01*
X7932267Y5030368D01*
X7938820Y5032857D01*
X7947355Y5032603D01*
X7951978Y5031435D01*
X7960004Y5024831D01*
X7964220Y5011318D01*
X7964271Y5002885D01*
X7961934Y4990388D01*
X7958277Y4982057D01*
X7950860Y4978146D01*
X7939938Y4976164D01*
X7927594Y4981092D01*
X7923275Y4990236D01*
X7920939Y5005425D01*
X7910207Y5005425D01*
X7910118Y4997348D01*
X7914741Y4982210D01*
X7926984Y4970119D01*
X7935722Y4967681D01*
X7949996Y4967681D01*
X7957261Y4969103D01*
X7970926Y4982210D01*
X7974736Y4995367D01*
X7974736Y5013858D01*
X7970469Y5026761D01*
X7963306Y5035854D01*
X7949692Y5042001D01*
G37*
G36*
X7836153Y5042154D02*
G01*
X7827162Y5036464D01*
X7824571Y5021630D01*
X7824571Y4971084D01*
X7830312Y4968494D01*
X7833664Y4971288D01*
X7834477Y5022951D01*
X7839100Y5032298D01*
X7848955Y5033010D01*
X7853629Y5025288D01*
X7853680Y4971084D01*
X7859217Y4968595D01*
X7864144Y4971237D01*
X7864144Y5024120D01*
X7868208Y5032298D01*
X7873695Y5033060D01*
X7879232Y5031638D01*
X7882788Y5024831D01*
X7882788Y4971237D01*
X7887716Y4968595D01*
X7893253Y4971084D01*
X7893253Y5036007D01*
X7888478Y5040325D01*
X7881823Y5037785D01*
X7872882Y5042001D01*
X7865059Y5042154D01*
X7858759Y5037683D01*
X7852664Y5036159D01*
X7843824Y5042154D01*
G37*
G36*
X7769199Y5042154D02*
G01*
X7755331Y5036820D01*
X7745475Y5023866D01*
X7743633Y5012690D01*
X7755534Y5012690D01*
X7756804Y5022392D01*
X7763459Y5030317D01*
X7770215Y5032857D01*
X7779715Y5032705D01*
X7785506Y5030419D01*
X7789925Y5026456D01*
X7795463Y5017770D01*
X7795463Y5011013D01*
X7788198Y5009591D01*
X7759801Y5009591D01*
X7755534Y5012690D01*
X7743633Y5012690D01*
X7742732Y5007254D01*
X7746796Y5002733D01*
X7794091Y5002022D01*
X7795615Y5000498D01*
X7795717Y4991506D01*
X7789164Y4980635D01*
X7777378Y4976926D01*
X7769250Y4976622D01*
X7758785Y4981295D01*
X7754366Y4986274D01*
X7750505Y4986274D01*
X7746136Y4983124D01*
X7750657Y4975961D01*
X7761122Y4968240D01*
X7786725Y4968240D01*
X7796479Y4975453D01*
X7802473Y4982565D01*
X7808264Y4998008D01*
X7808264Y5011318D01*
X7801711Y5028793D01*
X7793786Y5036718D01*
X7783220Y5042103D01*
G37*
G36*
X7601254Y5042154D02*
G01*
X7590281Y5037480D01*
X7583322Y5031587D01*
X7577581Y5023154D01*
X7575815Y5012385D01*
X7587996Y5012385D01*
X7589113Y5022291D01*
X7595819Y5030317D01*
X7602575Y5032857D01*
X7614412Y5032857D01*
X7621676Y5028438D01*
X7627112Y5020767D01*
X7627213Y5010150D01*
X7591450Y5009489D01*
X7587996Y5012385D01*
X7575815Y5012385D01*
X7575448Y5010150D01*
X7575448Y5006644D01*
X7577683Y5003190D01*
X7627213Y5002022D01*
X7627924Y4991506D01*
X7621066Y4980736D01*
X7608620Y4976520D01*
X7601915Y4977180D01*
X7591145Y4981803D01*
X7585354Y4987290D01*
X7577632Y4984038D01*
X7583017Y4976164D01*
X7590739Y4969662D01*
X7600442Y4967782D01*
X7614412Y4967681D01*
X7622743Y4969967D01*
X7632598Y4978400D01*
X7639913Y4992674D01*
X7639862Y5017211D01*
X7633208Y5028793D01*
X7626654Y5036921D01*
X7614412Y5041950D01*
G37*
G36*
X7346238Y5042154D02*
G01*
X7335723Y5036566D01*
X7329881Y5029962D01*
X7329779Y5027371D01*
X7334554Y5021326D01*
X7345324Y5031638D01*
X7353096Y5033111D01*
X7363002Y5031536D01*
X7371435Y5024120D01*
X7374280Y5014722D01*
X7373416Y4990388D01*
X7369962Y4983581D01*
X7363764Y4979009D01*
X7352487Y4976114D01*
X7341057Y4980381D01*
X7334910Y4986274D01*
X7331405Y4986274D01*
X7327036Y4983124D01*
X7331557Y4976012D01*
X7340447Y4968951D01*
X7351014Y4967376D01*
X7365746Y4968544D01*
X7376871Y4975402D01*
X7384897Y4989068D01*
X7385964Y5011470D01*
X7383424Y5023307D01*
X7376566Y5033467D01*
X7372299Y5037226D01*
X7361834Y5042001D01*
G37*
G36*
X7265060Y5042154D02*
G01*
X7254697Y5037277D01*
X7246924Y5029962D01*
X7243470Y5023307D01*
X7240785Y5014468D01*
X7251649Y5014468D01*
X7255459Y5024120D01*
X7260539Y5029657D01*
X7268006Y5032857D01*
X7278014Y5032603D01*
X7283094Y5031130D01*
X7291171Y5023916D01*
X7292746Y5013350D01*
X7291984Y4988763D01*
X7287158Y4982362D01*
X7281468Y4978146D01*
X7270699Y4976164D01*
X7259523Y4980432D01*
X7256068Y4983835D01*
X7252563Y4992674D01*
X7251649Y5014468D01*
X7240785Y5014468D01*
X7240168Y5012486D01*
X7240168Y4995011D01*
X7245400Y4982108D01*
X7251242Y4974945D01*
X7261098Y4968494D01*
X7277303Y4967376D01*
X7288072Y4970068D01*
X7291730Y4972913D01*
X7300722Y4982057D01*
X7304176Y4993690D01*
X7304176Y5012740D01*
X7301839Y5025186D01*
X7293000Y5035753D01*
X7280351Y5042052D01*
G37*
G36*
X7166254Y5042154D02*
G01*
X7158837Y5037632D01*
X7155738Y5032298D01*
X7155027Y4970068D01*
X7161022Y4968544D01*
X7164476Y4971440D01*
X7164476Y5023561D01*
X7167422Y5028793D01*
X7170674Y5032857D01*
X7177887Y5032806D01*
X7180376Y5031130D01*
X7184288Y5023205D01*
X7184288Y4970018D01*
X7190130Y4968544D01*
X7193584Y4971440D01*
X7193584Y5023612D01*
X7199426Y5032857D01*
X7207554Y5032857D01*
X7213396Y5023612D01*
X7213396Y4970018D01*
X7219238Y4968544D01*
X7222693Y4971440D01*
X7222693Y5037226D01*
X7219035Y5040274D01*
X7212126Y5037683D01*
X7204659Y5040172D01*
X7202424Y5042154D01*
X7195362Y5042154D01*
X7183272Y5035499D01*
X7181392Y5037277D01*
X7172553Y5042154D01*
G37*
G36*
X6764426Y5042154D02*
G01*
X6752945Y5038394D01*
X6745274Y5031130D01*
X6738620Y5019497D01*
X6738284Y5012182D01*
X6750050Y5012182D01*
X6750050Y5018989D01*
X6753352Y5025288D01*
X6760616Y5032197D01*
X6776262Y5032959D01*
X6783730Y5028285D01*
X6789775Y5019141D01*
X6789064Y5010150D01*
X6753301Y5009489D01*
X6750050Y5012182D01*
X6738284Y5012182D01*
X6738010Y5006238D01*
X6741007Y5002580D01*
X6788556Y5002580D01*
X6790944Y4996230D01*
X6789572Y4988966D01*
X6782511Y4980686D01*
X6772757Y4976672D01*
X6764375Y4976926D01*
X6756450Y4980279D01*
X6747256Y4987188D01*
X6742074Y4983835D01*
X6744360Y4977333D01*
X6752183Y4969713D01*
X6762292Y4967782D01*
X6776262Y4967681D01*
X6784695Y4970018D01*
X6795566Y4979619D01*
X6801866Y4991506D01*
X6801866Y5017160D01*
X6795160Y5030774D01*
X6788353Y5036921D01*
X6776262Y5041950D01*
G37*
G36*
X6882536Y5040071D02*
G01*
X6875475Y5038648D01*
X6872376Y5034584D01*
X6872224Y5029962D01*
X6866483Y5015992D01*
X6866483Y5012893D01*
X6860946Y4998516D01*
X6858406Y4989220D01*
X6852361Y4982768D01*
X6850380Y4983988D01*
X6847738Y4996180D01*
X6844741Y5000853D01*
X6841845Y5012486D01*
X6838696Y5019497D01*
X6834835Y5033365D01*
X6830212Y5039817D01*
X6827316Y5039817D01*
X6823202Y5036820D01*
X6825792Y5026456D01*
X6830110Y5015992D01*
X6833768Y5004358D01*
X6838645Y4990388D01*
X6841998Y4983073D01*
X6844792Y4970932D01*
X6850634Y4968697D01*
X6860082Y4969408D01*
X6866381Y4982210D01*
X6866483Y4986934D01*
X6869734Y4991658D01*
X6873748Y5005527D01*
X6875525Y5007813D01*
X6880301Y5022951D01*
X6884924Y5035702D01*
G37*
G36*
X7551623Y5039918D02*
G01*
X7524800Y5039258D01*
X7521549Y5028488D01*
X7512354Y5037480D01*
X7503820Y5039817D01*
X7490510Y5039817D01*
X7488021Y5035194D01*
X7490307Y5030927D01*
X7509002Y5028285D01*
X7517079Y5024882D01*
X7523073Y5013147D01*
X7523073Y4983226D01*
X7519822Y4978806D01*
X7496403Y4977892D01*
X7494930Y4971237D01*
X7496403Y4968849D01*
X7551877Y4968849D01*
X7554823Y4972405D01*
X7552181Y4978146D01*
X7538516Y4978146D01*
X7534554Y4982565D01*
X7535265Y5029454D01*
X7538770Y5031638D01*
X7549997Y5031689D01*
X7554468Y5034127D01*
X7554468Y5037074D01*
G37*
G36*
X8607399Y5039817D02*
G01*
X8602218Y5036210D01*
X8602218Y4982006D01*
X8598052Y4978247D01*
X8579612Y4977587D01*
X8578138Y4971745D01*
X8580374Y4968849D01*
X8636711Y4968849D01*
X8640470Y4971745D01*
X8639251Y4977892D01*
X8616035Y4978806D01*
X8613902Y4982210D01*
X8613902Y5027625D01*
X8615984Y5030978D01*
X8638489Y5032451D01*
X8640470Y5035651D01*
X8638235Y5039817D01*
G37*
G36*
X8245246Y5039817D02*
G01*
X8240826Y5036616D01*
X8243468Y5030825D01*
X8257031Y5029708D01*
X8269833Y5025847D01*
X8275624Y5017363D01*
X8276488Y4983937D01*
X8272678Y4978146D01*
X8252663Y4978146D01*
X8249564Y4974082D01*
X8249462Y4970221D01*
X8253171Y4968849D01*
X8307730Y4968849D01*
X8309102Y4972304D01*
X8307730Y4977841D01*
X8290001Y4978958D01*
X8287918Y4982210D01*
X8287918Y5027625D01*
X8290102Y5031079D01*
X8307527Y5031943D01*
X8308898Y5035499D01*
X8307527Y5039817D01*
X8280196Y5039817D01*
X8276691Y5036921D01*
X8272424Y5030114D01*
X8266379Y5037531D01*
X8258200Y5039817D01*
G37*
G36*
X6932675Y5039817D02*
G01*
X6928154Y5037429D01*
X6928154Y4982972D01*
X6922058Y4978146D01*
X6907377Y4978146D01*
X6902500Y4971897D01*
X6904990Y4969408D01*
X6963105Y4968697D01*
X6964527Y4972304D01*
X6963054Y4978146D01*
X6944766Y4978146D01*
X6938467Y4983124D01*
X6939229Y5028387D01*
X6943750Y5031689D01*
X6962851Y5031689D01*
X6964324Y5035499D01*
X6962952Y5039817D01*
G37*
G36*
X6522008Y5025898D02*
G01*
X6517792Y5025847D01*
X6512763Y5024475D01*
X6511035Y5018328D01*
X6511645Y5012486D01*
X6514033Y5009591D01*
X6521602Y5009591D01*
X6526428Y5013655D01*
X6527952Y5019954D01*
G37*
G36*
X6263436Y5025898D02*
G01*
X6259017Y5018633D01*
X6261049Y5011470D01*
X6264046Y5009591D01*
X6271615Y5009591D01*
X6276238Y5014214D01*
X6276238Y5019344D01*
X6269990Y5025898D01*
G37*
G36*
X8859469Y4986274D02*
G01*
X8854694Y4981498D01*
X8855405Y4970678D01*
X8861348Y4967325D01*
X8872067Y4968951D01*
X8874760Y4975504D01*
X8873185Y4984140D01*
X8868206Y4986121D01*
G37*
G36*
X7435037Y4986274D02*
G01*
X7430871Y4983276D01*
X7430871Y4972202D01*
X7433614Y4968951D01*
X7443876Y4967427D01*
X7449972Y4971389D01*
X7448854Y4983175D01*
X7444587Y4986274D01*
G37*
G36*
X9090609Y7023100D02*
G01*
X9038742Y7022134D01*
X9025432Y7017461D01*
X9018981Y7017461D01*
X9010243Y7012787D01*
X9004858Y7012787D01*
X8986469Y7003491D01*
X8983218Y7003491D01*
X8979001Y6998817D01*
X8974988Y6998817D01*
X8971991Y6995159D01*
X8964777Y6991756D01*
X8960104Y6988911D01*
X8955278Y6984238D01*
X8949893Y6980732D01*
X8936837Y6970014D01*
X8921699Y6953808D01*
X8907729Y6935368D01*
X8904782Y6929475D01*
X8900261Y6922516D01*
X8892997Y6907377D01*
X8888476Y6898741D01*
X8888476Y6894525D01*
X8883853Y6887565D01*
X8883751Y6880555D01*
X8879230Y6871258D01*
X8879179Y6860641D01*
X8875115Y6846773D01*
X8875115Y6803644D01*
X8879179Y6790994D01*
X8879230Y6780377D01*
X8883751Y6771030D01*
X8883802Y6764629D01*
X8888476Y6755942D01*
X8888476Y6750964D01*
X8893149Y6745071D01*
X8893149Y6741109D01*
X8897823Y6735216D01*
X8897823Y6731152D01*
X8901430Y6728104D01*
X8904732Y6720941D01*
X8907729Y6716420D01*
X8916466Y6704990D01*
X8916466Y6703059D01*
X8948521Y6670802D01*
X8958986Y6663740D01*
X8963050Y6662216D01*
X8963050Y6659829D01*
X8970619Y6656324D01*
X8977630Y6651650D01*
X8983421Y6649059D01*
X8986926Y6646976D01*
X8992768Y6644436D01*
X9001353Y6639966D01*
X9006890Y6639966D01*
X9011412Y6636562D01*
X9015425Y6636461D01*
X9022588Y6640830D01*
X9028277Y6648602D01*
X9028277Y6730085D01*
X9032087Y6734251D01*
X9030716Y6737858D01*
X9024213Y6737908D01*
X9014917Y6742430D01*
X9008465Y6742480D01*
X8999778Y6747154D01*
X8996934Y6747154D01*
X8978798Y6756704D01*
X8974124Y6760667D01*
X8964168Y6767322D01*
X8954871Y6778040D01*
X8947404Y6789674D01*
X8946134Y6790842D01*
X8940647Y6803644D01*
X8938666Y6814972D01*
X8935770Y6823456D01*
X8935872Y6846773D01*
X8939733Y6859422D01*
X8939733Y6867753D01*
X8944406Y6875373D01*
X8944406Y6880758D01*
X8949080Y6885025D01*
X8949080Y6889140D01*
X8951061Y6890410D01*
X8960866Y6903110D01*
X8958529Y6912000D01*
X8955735Y6929932D01*
X8958630Y6949287D01*
X8964472Y6961530D01*
X8969451Y6961784D01*
X8984589Y6961378D01*
X8993428Y6956856D01*
X8998813Y6956856D01*
X9003030Y6952234D01*
X9006179Y6952234D01*
X9023756Y6938213D01*
X9032443Y6938213D01*
X9045702Y6942886D01*
X9101734Y6942886D01*
X9114993Y6938213D01*
X9124086Y6938213D01*
X9135211Y6947560D01*
X9137497Y6947560D01*
X9140240Y6950811D01*
X9162846Y6961276D01*
X9180779Y6962495D01*
X9186722Y6956958D01*
X9186722Y6953351D01*
X9191396Y6944664D01*
X9191345Y6917842D01*
X9186722Y6907682D01*
X9186722Y6902043D01*
X9191955Y6894626D01*
X9200692Y6883247D01*
X9200692Y6879742D01*
X9205366Y6873849D01*
X9205366Y6868210D01*
X9210344Y6857339D01*
X9210395Y6812991D01*
X9205366Y6802069D01*
X9205366Y6797598D01*
X9200692Y6791655D01*
X9200692Y6788302D01*
X9196273Y6782714D01*
X9186164Y6771030D01*
X9170365Y6757060D01*
X9165996Y6756349D01*
X9161932Y6751828D01*
X9157919Y6751828D01*
X9151975Y6747154D01*
X9148267Y6747154D01*
X9139580Y6742480D01*
X9133382Y6742480D01*
X9123222Y6737908D01*
X9117939Y6737858D01*
X9116466Y6734048D01*
X9120378Y6717436D01*
X9120327Y6712508D01*
X9123578Y6709765D01*
X9137700Y6707174D01*
X9158173Y6710273D01*
X9167876Y6715810D01*
X9177985Y6725615D01*
X9190532Y6740347D01*
X9201302Y6747103D01*
X9218269Y6747154D01*
X9219539Y6743801D01*
X9217609Y6740448D01*
X9207347Y6732625D01*
X9199575Y6720941D01*
X9196070Y6717284D01*
X9196070Y6713169D01*
X9191396Y6707225D01*
X9191396Y6703110D01*
X9174835Y6686600D01*
X9171889Y6686600D01*
X9166352Y6682231D01*
X9159341Y6680962D01*
X9150045Y6677355D01*
X9129776Y6677253D01*
X9123324Y6679742D01*
X9120327Y6675628D01*
X9120479Y6651040D01*
X9123222Y6643014D01*
X9132570Y6636461D01*
X9137243Y6637426D01*
X9145371Y6640271D01*
X9154718Y6644386D01*
X9168079Y6651040D01*
X9175648Y6655053D01*
X9187992Y6663283D01*
X9189262Y6663283D01*
X9196476Y6670497D01*
X9204909Y6675831D01*
X9222282Y6693001D01*
X9236252Y6711289D01*
X9242653Y6720433D01*
X9242653Y6722313D01*
X9247327Y6726529D01*
X9247327Y6729882D01*
X9252000Y6735825D01*
X9252000Y6739229D01*
X9256623Y6745122D01*
X9256674Y6750100D01*
X9261297Y6757060D01*
X9261297Y6762343D01*
X9265970Y6771030D01*
X9265970Y6778548D01*
X9271000Y6790842D01*
X9271000Y6860743D01*
X9265970Y6873087D01*
X9265970Y6880606D01*
X9261297Y6889292D01*
X9261297Y6894525D01*
X9256674Y6901535D01*
X9256623Y6906463D01*
X9252000Y6912406D01*
X9252000Y6915759D01*
X9247784Y6921347D01*
X9244939Y6927189D01*
X9232341Y6945782D01*
X9209938Y6970877D01*
X9208312Y6970877D01*
X9193834Y6984847D01*
X9192666Y6984847D01*
X9181846Y6992416D01*
X9175648Y6996480D01*
X9169857Y6999325D01*
X9164269Y7003491D01*
X9160205Y7003491D01*
X9157462Y7006793D01*
X9150045Y7008368D01*
X9142780Y7012787D01*
X9137802Y7012787D01*
X9129115Y7017461D01*
X9121394Y7017461D01*
X9112758Y7021271D01*
G37*
G36*
X8019948Y7002221D02*
G01*
X8002473Y7000036D01*
X7983829Y6998462D01*
X7975193Y6994144D01*
X7971028Y6994144D01*
X7954873Y6984238D01*
X7939887Y6970268D01*
X7928559Y6950456D01*
X7928508Y6947408D01*
X7924139Y6937654D01*
X7922056Y6914337D01*
X7922056Y6775703D01*
X7971637Y6775703D01*
X7971688Y6845604D01*
X7973822Y6868922D01*
X7975346Y6891070D01*
X7979765Y6899859D01*
X7979918Y6903872D01*
X7986166Y6914489D01*
X7992262Y6923684D01*
X7998968Y6930390D01*
X8008112Y6936486D01*
X8018780Y6942734D01*
X8022285Y6942886D01*
X8029244Y6946646D01*
X8070037Y6950964D01*
X8158581Y6950760D01*
X8195868Y6946747D01*
X8203336Y6942886D01*
X8207756Y6942886D01*
X8213699Y6938213D01*
X8214969Y6938213D01*
X8223808Y6932320D01*
X8236051Y6920331D01*
X8236051Y6917639D01*
X8240725Y6913422D01*
X8240725Y6911238D01*
X8245398Y6905294D01*
X8245398Y6900367D01*
X8249107Y6893356D01*
X8253475Y6852615D01*
X8253475Y6767575D01*
X8249107Y6726783D01*
X8245398Y6719773D01*
X8245246Y6716268D01*
X8238947Y6705650D01*
X8232851Y6696506D01*
X8226145Y6689750D01*
X8217001Y6683654D01*
X8206333Y6677406D01*
X8201609Y6677253D01*
X8196072Y6673392D01*
X8149285Y6669176D01*
X8077047Y6669176D01*
X8053730Y6671360D01*
X8031581Y6672834D01*
X8022793Y6677253D01*
X8019491Y6677253D01*
X8009381Y6682638D01*
X7995869Y6692849D01*
X7985302Y6706616D01*
X7979765Y6716979D01*
X7979765Y6720992D01*
X7976006Y6726326D01*
X7971637Y6775703D01*
X7922056Y6775703D01*
X7922056Y6705803D01*
X7924038Y6682486D01*
X7928508Y6673697D01*
X7928508Y6670395D01*
X7934401Y6659321D01*
X7937804Y6655511D01*
X7937804Y6652768D01*
X7953552Y6636816D01*
X7972196Y6626148D01*
X7975193Y6625996D01*
X7984998Y6621627D01*
X8008315Y6619595D01*
X8216849Y6619595D01*
X8240115Y6621627D01*
X8249920Y6625996D01*
X8253780Y6625996D01*
X8264601Y6632956D01*
X8272780Y6637426D01*
X8287308Y6652615D01*
X8287308Y6654952D01*
X8290306Y6658051D01*
X8296656Y6668922D01*
X8296656Y6672681D01*
X8300974Y6681317D01*
X8302548Y6699961D01*
X8304682Y6718604D01*
X8304733Y6900367D01*
X8300516Y6941413D01*
X8296656Y6946900D01*
X8296656Y6951218D01*
X8290306Y6962140D01*
X8287308Y6965188D01*
X8287308Y6967981D01*
X8271306Y6983882D01*
X8253577Y6994144D01*
X8249970Y6994144D01*
X8241284Y6998462D01*
X8220354Y7000341D01*
X8206333Y7001967D01*
G37*
G36*
X8420709Y6997547D02*
G01*
X8406739Y6994194D01*
X8399983Y6994144D01*
X8387537Y6988403D01*
X8375294Y6982256D01*
X8353145Y6959701D01*
X8343544Y6939991D01*
X8338413Y6923684D01*
X8338759Y6809740D01*
X8515299Y6809740D01*
X8516874Y6812229D01*
X8523681Y6813702D01*
X8526424Y6817055D01*
X8530488Y6817055D01*
X8536432Y6821728D01*
X8539835Y6821728D01*
X8545728Y6826402D01*
X8549132Y6826402D01*
X8555075Y6831025D01*
X8558479Y6831025D01*
X8564372Y6835698D01*
X8567775Y6835698D01*
X8573719Y6840372D01*
X8577122Y6840372D01*
X8583015Y6845046D01*
X8586419Y6845046D01*
X8592362Y6849668D01*
X8595766Y6849668D01*
X8601659Y6854342D01*
X8605062Y6854342D01*
X8611006Y6859016D01*
X8614410Y6859016D01*
X8620302Y6863689D01*
X8623706Y6863689D01*
X8629650Y6868312D01*
X8633002Y6868312D01*
X8638946Y6872986D01*
X8642350Y6872986D01*
X8648090Y6877507D01*
X8653780Y6878929D01*
X8655456Y6877253D01*
X8655456Y6740093D01*
X8652052Y6738772D01*
X8648293Y6742480D01*
X8644178Y6742480D01*
X8639962Y6747154D01*
X8634882Y6747154D01*
X8630666Y6751828D01*
X8625535Y6751828D01*
X8621318Y6756501D01*
X8616238Y6756501D01*
X8612022Y6761124D01*
X8606891Y6761124D01*
X8602675Y6765798D01*
X8597595Y6765798D01*
X8593378Y6770471D01*
X8588248Y6770471D01*
X8584031Y6775145D01*
X8578951Y6775145D01*
X8574735Y6779768D01*
X8569604Y6779768D01*
X8565388Y6784441D01*
X8560308Y6784441D01*
X8556091Y6789115D01*
X8550960Y6789115D01*
X8546744Y6793788D01*
X8542274Y6793788D01*
X8536330Y6798411D01*
X8532317Y6798411D01*
X8528100Y6803085D01*
X8523224Y6803136D01*
X8515299Y6809740D01*
X8338759Y6809740D01*
X8339175Y6689496D01*
X8343239Y6682486D01*
X8343239Y6676390D01*
X8347913Y6670497D01*
X8347913Y6667093D01*
X8363915Y6646367D01*
X8378444Y6635140D01*
X8395766Y6625996D01*
X8400999Y6625996D01*
X8414258Y6621322D01*
X8764676Y6621322D01*
X8779256Y6625996D01*
X8782710Y6625996D01*
X8797036Y6633159D01*
X8803995Y6636867D01*
X8826500Y6659321D01*
X8830208Y6667347D01*
X8832240Y6670852D01*
X8837015Y6681317D01*
X8841740Y6704634D01*
X8841740Y6914337D01*
X8839657Y6924852D01*
X8835999Y6940854D01*
X8832545Y6945731D01*
X8832545Y6948830D01*
X8821623Y6965238D01*
X8809228Y6977837D01*
X8794699Y6987082D01*
X8778900Y6994144D01*
X8771382Y6994398D01*
X8759748Y6997395D01*
G37*
G36*
X7585760Y6986270D02*
G01*
X7572552Y6984695D01*
X7559141Y6980174D01*
X7553909Y6980174D01*
X7524800Y6970877D01*
X7520635Y6970877D01*
X7511491Y6966203D01*
X7506106Y6966203D01*
X7501483Y6963054D01*
X7493101Y6960311D01*
X7485786Y6951167D01*
X7485786Y6948982D01*
X7482027Y6945884D01*
X7479893Y6941159D01*
X7473035Y6930644D01*
X7469479Y6923684D01*
X7464856Y6915505D01*
X7457592Y6900367D01*
X7455458Y6896862D01*
X7452969Y6891070D01*
X7448499Y6882434D01*
X7448448Y6878218D01*
X7443825Y6871258D01*
X7443825Y6867093D01*
X7439152Y6857949D01*
X7439152Y6853072D01*
X7434529Y6843979D01*
X7434529Y6838645D01*
X7430008Y6824624D01*
X7425283Y6802526D01*
X7422896Y6786168D01*
X7421928Y6781292D01*
X7532928Y6781292D01*
X7533030Y6804812D01*
X7536992Y6811822D01*
X7537043Y6814972D01*
X7547813Y6828891D01*
X7557414Y6835038D01*
X7565593Y6838391D01*
X7581900Y6839051D01*
X7591196Y6835038D01*
X7599070Y6830466D01*
X7605623Y6823456D01*
X7611567Y6814616D01*
X7611618Y6811822D01*
X7615428Y6804812D01*
X7616545Y6785965D01*
X7685887Y6785965D01*
X7687005Y6804812D01*
X7690815Y6811822D01*
X7690815Y6814616D01*
X7696809Y6823456D01*
X7703312Y6830466D01*
X7711186Y6834987D01*
X7719364Y6838391D01*
X7735671Y6839051D01*
X7744968Y6835089D01*
X7754518Y6828942D01*
X7765389Y6814972D01*
X7765389Y6811822D01*
X7769352Y6804812D01*
X7769453Y6781292D01*
X7760360Y6762343D01*
X7750098Y6752742D01*
X7739176Y6746798D01*
X7717028Y6746748D01*
X7705394Y6752996D01*
X7694879Y6764375D01*
X7692136Y6767880D01*
X7685887Y6785965D01*
X7616545Y6785965D01*
X7610246Y6767880D01*
X7607503Y6764426D01*
X7597444Y6753148D01*
X7585354Y6746748D01*
X7563256Y6746798D01*
X7552334Y6752742D01*
X7542072Y6762343D01*
X7532928Y6781292D01*
X7421928Y6781292D01*
X7420406Y6773367D01*
X7420254Y6694525D01*
X7427975Y6686600D01*
X7430668Y6686600D01*
X7434884Y6681927D01*
X7437628Y6681927D01*
X7441844Y6677253D01*
X7443724Y6677253D01*
X7452563Y6671462D01*
X7455255Y6669227D01*
X7463028Y6665620D01*
X7472375Y6659880D01*
X7480503Y6656324D01*
X7484008Y6654292D01*
X7495692Y6649008D01*
X7504277Y6644640D01*
X7508494Y6644640D01*
X7515453Y6640017D01*
X7519670Y6639966D01*
X7529728Y6635394D01*
X7538923Y6633921D01*
X7546492Y6644081D01*
X7555585Y6658051D01*
X7555687Y6659676D01*
X7561478Y6668262D01*
X7561478Y6674967D01*
X7550150Y6679692D01*
X7534097Y6687159D01*
X7526528Y6692696D01*
X7526528Y6694474D01*
X7534656Y6700672D01*
X7543444Y6696100D01*
X7555077Y6691579D01*
X7581900Y6682689D01*
X7592364Y6681063D01*
X7607503Y6677355D01*
X7634325Y6674358D01*
X7668107Y6674358D01*
X7694879Y6677355D01*
X7710017Y6681063D01*
X7720533Y6682689D01*
X7739735Y6688886D01*
X7747304Y6691579D01*
X7758988Y6696100D01*
X7767726Y6700672D01*
X7775854Y6694474D01*
X7775854Y6692544D01*
X7768539Y6687362D01*
X7747304Y6677507D01*
X7740903Y6674967D01*
X7740903Y6668262D01*
X7746746Y6659676D01*
X7746746Y6658051D01*
X7756042Y6644640D01*
X7756093Y6642912D01*
X7764322Y6633921D01*
X7772958Y6635445D01*
X7781747Y6639966D01*
X7786370Y6639966D01*
X7795056Y6644640D01*
X7798104Y6644640D01*
X7806740Y6649008D01*
X7818374Y6654292D01*
X7821879Y6656324D01*
X7827721Y6658864D01*
X7831226Y6660997D01*
X7839100Y6664604D01*
X7842453Y6667957D01*
X7845196Y6667957D01*
X7858607Y6677253D01*
X7860538Y6677253D01*
X7864754Y6681927D01*
X7866634Y6681927D01*
X7876641Y6688683D01*
X7882178Y6694627D01*
X7881975Y6773367D01*
X7879486Y6786168D01*
X7877048Y6803644D01*
X7872679Y6821170D01*
X7871409Y6830720D01*
X7867903Y6837476D01*
X7867853Y6843268D01*
X7863230Y6853428D01*
X7863230Y6857949D01*
X7858607Y6867093D01*
X7858607Y6870649D01*
X7853934Y6879336D01*
X7853934Y6882434D01*
X7849463Y6891070D01*
X7846974Y6896862D01*
X7844840Y6900367D01*
X7837525Y6915505D01*
X7829346Y6930644D01*
X7822488Y6941159D01*
X7820152Y6946442D01*
X7817764Y6949287D01*
X7809331Y6960362D01*
X7800898Y6962749D01*
X7796377Y6966203D01*
X7790942Y6966203D01*
X7781798Y6970877D01*
X7777632Y6970877D01*
X7748473Y6980174D01*
X7743240Y6980174D01*
X7729829Y6984695D01*
X7722870Y6985660D01*
X7716469Y6986016D01*
X7711084Y6977278D01*
X7704378Y6963816D01*
X7701635Y6961530D01*
X7682077Y6965594D01*
X7620304Y6965594D01*
X7601153Y6961581D01*
X7598206Y6962800D01*
X7591399Y6977278D01*
G37*
G36*
X8181898Y6924192D02*
G01*
X8039760Y6923684D01*
X8032750Y6919620D01*
X8027822Y6919569D01*
X8021929Y6914946D01*
X8019745Y6914946D01*
X8008772Y6904126D01*
X8005419Y6896862D01*
X8003286Y6893356D01*
X7998636Y6877964D01*
X8021675Y6877964D01*
X8021675Y6892544D01*
X8030057Y6900925D01*
X8045348Y6900925D01*
X8054289Y6891528D01*
X8054289Y6878980D01*
X8043621Y6868312D01*
X8032140Y6868312D01*
X8021675Y6877964D01*
X7998636Y6877964D01*
X7998358Y6877050D01*
X7998424Y6799021D01*
X8040420Y6799021D01*
X8040420Y6821170D01*
X8044027Y6830466D01*
X8045856Y6839254D01*
X8049666Y6843471D01*
X8049666Y6846468D01*
X8059470Y6858406D01*
X8064195Y6863181D01*
X8076184Y6872986D01*
X8078978Y6872986D01*
X8084921Y6877659D01*
X8089849Y6877659D01*
X8096859Y6881571D01*
X8124799Y6882231D01*
X8128304Y6880910D01*
X8135620Y6877659D01*
X8139226Y6877659D01*
X8149742Y6872071D01*
X8163458Y6861302D01*
X8175498Y6846265D01*
X8175498Y6843623D01*
X8180120Y6837730D01*
X8180120Y6833260D01*
X8185048Y6822541D01*
X8184032Y6794347D01*
X8180171Y6787337D01*
X8180120Y6782409D01*
X8175498Y6776516D01*
X8175498Y6773722D01*
X8165642Y6761734D01*
X8160918Y6757009D01*
X8148929Y6747154D01*
X8146135Y6747154D01*
X8140192Y6742480D01*
X8136381Y6742480D01*
X8123123Y6737858D01*
X8101482Y6737959D01*
X8092186Y6741515D01*
X8083600Y6743344D01*
X8079790Y6747154D01*
X8075117Y6747154D01*
X8049666Y6772656D01*
X8049666Y6777278D01*
X8045805Y6781139D01*
X8044027Y6789674D01*
X8040420Y6799021D01*
X7998424Y6799021D01*
X7998510Y6741922D01*
X8002117Y6732625D01*
X8003387Y6725615D01*
X8007705Y6720027D01*
X8007705Y6717538D01*
X8019846Y6705244D01*
X8022539Y6705244D01*
X8028076Y6700875D01*
X8035086Y6699605D01*
X8044383Y6695998D01*
X8179562Y6695846D01*
X8195868Y6700824D01*
X8199374Y6702958D01*
X8206587Y6706260D01*
X8217408Y6717233D01*
X8217408Y6719417D01*
X8222081Y6725361D01*
X8222081Y6730288D01*
X8226145Y6737248D01*
X8226806Y6878574D01*
X8223097Y6888734D01*
X8221268Y6895744D01*
X8215325Y6905193D01*
X8207705Y6912813D01*
X8198256Y6918807D01*
X8191195Y6920585D01*
G37*
G36*
X8113166Y6857593D02*
G01*
X8094522Y6853885D01*
X8078978Y6843674D01*
X8072932Y6834987D01*
X8072932Y6832549D01*
X8068309Y6828332D01*
X8068309Y6823608D01*
X8065566Y6810298D01*
X8068614Y6793179D01*
X8079079Y6776618D01*
X8095691Y6766153D01*
X8112810Y6763054D01*
X8126120Y6765798D01*
X8130133Y6765798D01*
X8146186Y6776466D01*
X8156194Y6792010D01*
X8160003Y6810095D01*
X8155889Y6829755D01*
X8153298Y6832803D01*
X8146338Y6843572D01*
X8130641Y6853732D01*
G37*
G36*
X6535674Y6692138D02*
G01*
X6531000Y6691833D01*
X6530390Y6652361D01*
X6527800Y6649313D01*
X6521704Y6649262D01*
X6518198Y6646976D01*
X6521704Y6644690D01*
X6543852Y6644690D01*
X6547256Y6646824D01*
X6545529Y6648551D01*
X6535674Y6649872D01*
X6535013Y6682486D01*
X6536283Y6687616D01*
X6543852Y6688328D01*
X6543344Y6690664D01*
G37*
G36*
X7069429Y6691274D02*
G01*
X7066940Y6690461D01*
X7066280Y6647281D01*
X7069429Y6644690D01*
X7073798Y6647840D01*
X7070699Y6660692D01*
X7072172Y6668617D01*
X7075779Y6673748D01*
X7083653Y6673748D01*
X7089648Y6671513D01*
X7089648Y6653936D01*
X7084974Y6649313D01*
X7075830Y6649313D01*
X7074204Y6646722D01*
X7077405Y6644690D01*
X7088378Y6644640D01*
X7094067Y6650329D01*
X7095744Y6659981D01*
X7094169Y6672529D01*
X7087412Y6678218D01*
X7077709Y6676034D01*
X7072782Y6677558D01*
X7071055Y6680149D01*
X7071004Y6689699D01*
G37*
G36*
X6780987Y6690309D02*
G01*
X6777990Y6689293D01*
X6776821Y6677863D01*
X6758889Y6677152D01*
X6754063Y6671056D01*
X6754723Y6645198D01*
X6758178Y6645198D01*
X6759346Y6669684D01*
X6761175Y6672529D01*
X6769049Y6674002D01*
X6773925Y6672427D01*
X6773925Y6669379D01*
X6777329Y6666585D01*
X6777990Y6646976D01*
X6780326Y6646976D01*
G37*
G36*
X6887514Y6677914D02*
G01*
X6882841Y6675170D01*
X6884822Y6652107D01*
X6881672Y6649466D01*
X6872376Y6648703D01*
X6872376Y6645198D01*
X6897979Y6645198D01*
X6897979Y6648703D01*
X6889851Y6649872D01*
X6889191Y6670497D01*
X6891883Y6673748D01*
X6897420Y6673748D01*
X6897420Y6677101D01*
G37*
G36*
X6691782Y6677863D02*
G01*
X6688277Y6676237D01*
X6688277Y6649872D01*
X6676644Y6648703D01*
X6676644Y6645198D01*
X6702298Y6645198D01*
X6702298Y6648703D01*
X6696456Y6649516D01*
X6693560Y6651904D01*
X6693560Y6670090D01*
X6697218Y6673748D01*
X6701688Y6673748D01*
X6701688Y6677101D01*
G37*
G36*
X6952437Y6677558D02*
G01*
X6949846Y6675983D01*
X6949846Y6669430D01*
X6954164Y6663842D01*
X6955637Y6654546D01*
X6958990Y6652107D01*
X6959752Y6645198D01*
X6964680Y6644538D01*
X6968490Y6648297D01*
X6968490Y6656628D01*
X6972046Y6659219D01*
X6973519Y6668516D01*
X6978091Y6674713D01*
X6976414Y6677406D01*
X6973722Y6676491D01*
X6968490Y6666179D01*
X6968490Y6657949D01*
X6961733Y6653936D01*
X6959498Y6653936D01*
X6958075Y6665925D01*
X6954520Y6669887D01*
X6954469Y6674358D01*
G37*
G36*
X6858914Y6677558D02*
G01*
X6853021Y6671208D01*
X6851650Y6663842D01*
X6845553Y6654038D01*
X6843318Y6654698D01*
X6841794Y6662216D01*
X6837984Y6666382D01*
X6837984Y6671614D01*
X6835597Y6676085D01*
X6830771Y6676085D01*
X6832396Y6672021D01*
X6834327Y6665671D01*
X6837984Y6660438D01*
X6837984Y6655409D01*
X6841286Y6652666D01*
X6844080Y6641134D01*
X6846112Y6641134D01*
X6847586Y6635242D01*
X6852513Y6631838D01*
X6857796Y6631838D01*
X6857796Y6633921D01*
X6852005Y6635343D01*
X6852005Y6638798D01*
X6847382Y6641642D01*
X6848856Y6647383D01*
X6851954Y6653377D01*
X6852005Y6657644D01*
X6856628Y6663588D01*
X6856628Y6668008D01*
X6860387Y6673748D01*
G37*
G36*
X6822846Y6677456D02*
G01*
X6819950Y6676491D01*
X6819950Y6664452D01*
X6822287Y6664350D01*
X6824218Y6673951D01*
G37*
G36*
X7130237Y6677355D02*
G01*
X7109002Y6676694D01*
X7106005Y6665010D01*
X7105954Y6647230D01*
X7109663Y6645808D01*
X7111796Y6647129D01*
X7111796Y6670090D01*
X7115454Y6673748D01*
X7122414Y6673748D01*
X7126935Y6671360D01*
X7126935Y6646875D01*
X7130542Y6645503D01*
X7131507Y6646468D01*
X7131913Y6674612D01*
G37*
G36*
X7151624Y6677253D02*
G01*
X7146747Y6668973D01*
X7146747Y6651701D01*
X7141667Y6646976D01*
X7142683Y6646113D01*
X7147712Y6644538D01*
X7153757Y6651040D01*
X7151268Y6657136D01*
X7158278Y6660032D01*
X7167727Y6658406D01*
X7169200Y6652615D01*
X7165441Y6648856D01*
X7155484Y6648703D01*
X7155484Y6645198D01*
X7168642Y6644538D01*
X7173518Y6650786D01*
X7173518Y6657543D01*
X7167829Y6663283D01*
X7154011Y6663283D01*
X7151674Y6666179D01*
X7153452Y6670954D01*
X7157212Y6674053D01*
X7169810Y6672478D01*
X7171232Y6674764D01*
X7167118Y6677202D01*
G37*
G36*
X6804507Y6677253D02*
G01*
X6802120Y6674358D01*
X6801662Y6665010D01*
X6801866Y6654749D01*
X6803491Y6656324D01*
X6806285Y6663842D01*
X6810349Y6673646D01*
X6808927Y6677253D01*
G37*
G36*
X6734911Y6677253D02*
G01*
X6718808Y6676694D01*
X6713423Y6667347D01*
X6713367Y6665214D01*
X6717690Y6665214D01*
X6722008Y6672021D01*
X6724396Y6673748D01*
X6732574Y6673748D01*
X6735267Y6672021D01*
X6736892Y6665569D01*
X6734048Y6662115D01*
X6721957Y6662115D01*
X6717690Y6665214D01*
X6713367Y6665214D01*
X6713321Y6663436D01*
X6716979Y6659778D01*
X6733743Y6659727D01*
X6737045Y6657644D01*
X6734860Y6650024D01*
X6728409Y6648297D01*
X6721094Y6650431D01*
X6719417Y6653072D01*
X6716826Y6651498D01*
X6716826Y6647078D01*
X6721348Y6644640D01*
X6733997Y6644640D01*
X6740144Y6649466D01*
X6740144Y6652514D01*
X6743649Y6655409D01*
X6743649Y6665722D01*
X6738975Y6674815D01*
G37*
G36*
X6675018Y6677253D02*
G01*
X6673443Y6674662D01*
X6676644Y6672630D01*
X6682892Y6672580D01*
X6684365Y6674916D01*
X6682892Y6677253D01*
G37*
G36*
X6580581Y6677253D02*
G01*
X6564782Y6676948D01*
X6559651Y6673799D01*
X6559032Y6671462D01*
X6562902Y6671462D01*
X6569049Y6673748D01*
X6575348Y6673748D01*
X6580225Y6670344D01*
X6581444Y6665722D01*
X6578701Y6662013D01*
X6563614Y6662724D01*
X6562902Y6671462D01*
X6559032Y6671462D01*
X6557365Y6665417D01*
X6559499Y6659778D01*
X6580378Y6659778D01*
X6581902Y6654952D01*
X6576618Y6649313D01*
X6564477Y6649313D01*
X6561581Y6652818D01*
X6559550Y6652818D01*
X6559550Y6649313D01*
X6564477Y6644386D01*
X6578955Y6645300D01*
X6586372Y6652869D01*
X6586372Y6669125D01*
X6582105Y6673342D01*
G37*
G36*
X6871208Y6677202D02*
G01*
X6867804Y6675069D01*
X6869430Y6673443D01*
X6881114Y6672325D01*
X6881114Y6675881D01*
X6878218Y6677101D01*
G37*
G36*
X6462623Y6677202D02*
G01*
X6446469Y6676542D01*
X6441846Y6671919D01*
X6439867Y6665010D01*
X6445605Y6665010D01*
X6446824Y6671513D01*
X6453428Y6674916D01*
X6454140Y6674866D01*
X6461150Y6671767D01*
X6464198Y6665112D01*
X6460083Y6662115D01*
X6447993Y6662115D01*
X6445605Y6665010D01*
X6439867Y6665010D01*
X6439763Y6664655D01*
X6443167Y6659778D01*
X6461404Y6659778D01*
X6464096Y6656578D01*
X6459931Y6649313D01*
X6446774Y6649313D01*
X6445453Y6652818D01*
X6443065Y6652818D01*
X6443065Y6649313D01*
X6447688Y6644640D01*
X6460642Y6644640D01*
X6468719Y6653377D01*
X6470142Y6658813D01*
X6468719Y6669227D01*
G37*
G36*
X6929831Y6677152D02*
G01*
X6914388Y6676694D01*
X6911695Y6671259D01*
X6909053Y6668617D01*
X6909053Y6664553D01*
X6913727Y6664553D01*
X6918452Y6673748D01*
X6927138Y6673494D01*
X6930948Y6672478D01*
X6932371Y6665264D01*
X6929729Y6662115D01*
X6918248Y6662115D01*
X6913727Y6664553D01*
X6909053Y6664553D01*
X6909053Y6661200D01*
X6912762Y6659778D01*
X6929475Y6659727D01*
X6932625Y6657746D01*
X6931050Y6650481D01*
X6928510Y6648958D01*
X6918198Y6649110D01*
X6914134Y6652818D01*
X6912559Y6651244D01*
X6912559Y6648297D01*
X6916216Y6644640D01*
X6929526Y6644640D01*
X6934708Y6648297D01*
X6939381Y6657898D01*
X6939381Y6664147D01*
X6935927Y6672376D01*
G37*
G36*
X6995871Y6677101D02*
G01*
X6991807Y6675932D01*
X6991807Y6673748D01*
X6987133Y6669125D01*
X6987133Y6668516D01*
X6992874Y6668516D01*
X6995871Y6672630D01*
X7002881Y6674561D01*
X7010450Y6671411D01*
X7010400Y6665010D01*
X7008469Y6662013D01*
X6993534Y6662724D01*
X6992874Y6668516D01*
X6987133Y6668516D01*
X6987133Y6663740D01*
X6990029Y6659829D01*
X7009841Y6659219D01*
X7010603Y6652666D01*
X7007809Y6649313D01*
X6995414Y6649313D01*
X6993991Y6651650D01*
X6991807Y6651650D01*
X6991807Y6647078D01*
X6996277Y6644640D01*
X7007656Y6644640D01*
X7014667Y6651040D01*
X7017562Y6661150D01*
X7014565Y6672834D01*
X7009180Y6677050D01*
G37*
G36*
X6658457Y6677101D02*
G01*
X6642862Y6676948D01*
X6637680Y6672275D01*
X6635275Y6665010D01*
X6641338Y6665010D01*
X6642557Y6671513D01*
X6649161Y6674916D01*
X6649872Y6674866D01*
X6656882Y6671767D01*
X6659930Y6665112D01*
X6655816Y6662115D01*
X6643725Y6662115D01*
X6641338Y6665010D01*
X6635275Y6665010D01*
X6635038Y6664299D01*
X6639153Y6659778D01*
X6656070Y6659778D01*
X6659727Y6658356D01*
X6659727Y6656070D01*
X6654952Y6649313D01*
X6642506Y6649313D01*
X6641185Y6652818D01*
X6637629Y6652818D01*
X6637629Y6650380D01*
X6643319Y6644640D01*
X6656374Y6644640D01*
X6664401Y6653377D01*
X6665823Y6660946D01*
X6664248Y6669481D01*
G37*
G36*
X6501688Y6676999D02*
G01*
X6482638Y6676085D01*
X6482638Y6674002D01*
X6486093Y6672681D01*
X6493205Y6675170D01*
X6500723Y6672173D01*
X6502349Y6669735D01*
X6496202Y6663283D01*
X6485686Y6663283D01*
X6479184Y6657035D01*
X6479184Y6651040D01*
X6485077Y6644640D01*
X6500774Y6644640D01*
X6505956Y6648246D01*
X6505956Y6652818D01*
X6504482Y6652818D01*
X6501587Y6648856D01*
X6485991Y6649008D01*
X6483400Y6651599D01*
X6485636Y6658051D01*
X6499809Y6659930D01*
X6507124Y6666636D01*
X6507124Y6671564D01*
G37*
G36*
X6793433Y6675323D02*
G01*
X6791096Y6671056D01*
X6792417Y6650278D01*
X6796227Y6644487D01*
X6800138Y6645249D01*
X6800900Y6653072D01*
X6796328Y6657289D01*
X6794753Y6670852D01*
G37*
G36*
X6811213Y6662115D02*
G01*
X6810959Y6652209D01*
X6811467Y6646367D01*
X6814108Y6644640D01*
X6818782Y6645198D01*
X6818782Y6656882D01*
X6813651Y6662115D01*
G37*
G36*
X6379006Y6652971D02*
G01*
X6372555Y6652209D01*
X6372555Y6645198D01*
X6378600Y6644538D01*
X6381038Y6647535D01*
G37*
G36*
X6414109Y6652818D02*
G01*
X6410452Y6649110D01*
X6410452Y6645859D01*
X6416446Y6644335D01*
X6419545Y6647535D01*
X6417513Y6652818D01*
G37*
G36*
X6334760Y6652818D02*
G01*
X6333337Y6647129D01*
X6334861Y6644640D01*
X6339230Y6644640D01*
X6340754Y6647129D01*
X6339332Y6652818D01*
G37*
G36*
X8297672Y6506006D02*
G01*
X8293150Y6503568D01*
X8293150Y6309563D01*
X8290255Y6305651D01*
X8241284Y6305042D01*
X8241284Y6286398D01*
X8370620Y6286398D01*
X8371331Y6300266D01*
X8370011Y6305600D01*
X8321243Y6305600D01*
X8317636Y6310782D01*
X8317636Y6483604D01*
X8320684Y6486144D01*
X8370620Y6486753D01*
X8371331Y6500672D01*
X8370011Y6506006D01*
G37*
G36*
X7808975Y6506006D02*
G01*
X7806131Y6503212D01*
X7806131Y6417462D01*
X7804403Y6417564D01*
X7794091Y6430467D01*
X7784592Y6438239D01*
X7770114Y6443065D01*
X7751064Y6443065D01*
X7735316Y6438392D01*
X7721193Y6428028D01*
X7717078Y6421526D01*
X7715758Y6420358D01*
X7710525Y6409893D01*
X7707172Y6390081D01*
X7707122Y6288582D01*
X7709916Y6285788D01*
X7727645Y6285788D01*
X7731506Y6288735D01*
X7732166Y6397091D01*
X7738618Y6409893D01*
X7742834Y6414871D01*
X7755483Y6421424D01*
X7781239Y6421221D01*
X7795107Y6414160D01*
X7801457Y6407454D01*
X7806131Y6393789D01*
X7806131Y6287211D01*
X7809839Y6285788D01*
X7825790Y6285788D01*
X7829448Y6287211D01*
X7829448Y6504635D01*
X7826552Y6505803D01*
G37*
G36*
X7092442Y6506006D02*
G01*
X7089648Y6503212D01*
X7089597Y6420358D01*
X7087565Y6417106D01*
X7083501Y6425031D01*
X7069988Y6438138D01*
X7053783Y6443065D01*
X7036003Y6443065D01*
X7021474Y6439204D01*
X7007504Y6429349D01*
X7002678Y6423863D01*
X6996836Y6413398D01*
X6992366Y6401714D01*
X6992366Y6286398D01*
X7014514Y6286398D01*
X7015886Y6393586D01*
X7020559Y6405880D01*
X7027773Y6414820D01*
X7040118Y6421424D01*
X7065772Y6421221D01*
X7077557Y6415684D01*
X7084110Y6410502D01*
X7089648Y6400088D01*
X7089648Y6288582D01*
X7092442Y6285788D01*
X7111339Y6285788D01*
X7114133Y6288582D01*
X7114133Y6501485D01*
X7111695Y6506006D01*
G37*
G36*
X9231071Y6494373D02*
G01*
X9228683Y6489852D01*
X9228683Y6311646D01*
X9227261Y6307937D01*
X9133281Y6307937D01*
X9129674Y6302756D01*
X9129674Y6288582D01*
X9132468Y6285788D01*
X9249460Y6285788D01*
X9253118Y6287211D01*
X9253118Y6489852D01*
X9250730Y6494373D01*
G37*
G36*
X8644636Y6494373D02*
G01*
X8625789Y6490614D01*
X8612936Y6484518D01*
X8600694Y6472072D01*
X8596223Y6463284D01*
X8591943Y6451041D01*
X8618016Y6451041D01*
X8623452Y6461150D01*
X8628735Y6466433D01*
X8641334Y6472224D01*
X8697976Y6472021D01*
X8700922Y6470853D01*
X8700922Y6399123D01*
X8697569Y6396329D01*
X8637219Y6397091D01*
X8625992Y6404051D01*
X8618778Y6412992D01*
X8618016Y6451041D01*
X8591943Y6451041D01*
X8590991Y6448348D01*
X8590991Y6421526D01*
X8596020Y6404305D01*
X8599576Y6400393D01*
X8599576Y6398107D01*
X8606586Y6388506D01*
X8618931Y6380327D01*
X8631580Y6375095D01*
X8695690Y6374333D01*
X8700922Y6373164D01*
X8700922Y6288430D01*
X8704173Y6285738D01*
X8724798Y6286398D01*
X8725408Y6491173D01*
X8722766Y6494373D01*
G37*
G36*
X7929575Y6494373D02*
G01*
X7911592Y6490817D01*
X7899958Y6485636D01*
X7892186Y6480454D01*
X7885125Y6471615D01*
X7878419Y6458407D01*
X7875778Y6441338D01*
X7876795Y6420358D01*
X7901686Y6420358D01*
X7901686Y6446367D01*
X7906512Y6458813D01*
X7912049Y6465214D01*
X7923225Y6471615D01*
X7982661Y6472326D01*
X7985556Y6469430D01*
X7985556Y6400444D01*
X7982559Y6396329D01*
X7922056Y6397091D01*
X7911592Y6402882D01*
X7906359Y6408166D01*
X7901686Y6420358D01*
X7876795Y6420358D01*
X7877098Y6414109D01*
X7882331Y6401714D01*
X7889392Y6391249D01*
X7895285Y6385712D01*
X7904225Y6380022D01*
X7921548Y6374333D01*
X7982762Y6374333D01*
X7985556Y6371539D01*
X7985556Y6287211D01*
X7989265Y6285788D01*
X8006689Y6285788D01*
X8011210Y6288227D01*
X8011210Y6489700D01*
X8006537Y6494373D01*
G37*
G36*
X6351625Y6443268D02*
G01*
X6320129Y6442252D01*
X6304584Y6438493D01*
X6289192Y6430365D01*
X6279388Y6423558D01*
X6274866Y6418580D01*
X6285179Y6407912D01*
X6290564Y6405829D01*
X6303111Y6415074D01*
X6315506Y6420764D01*
X6339078Y6423710D01*
X6359093Y6420713D01*
X6369354Y6414211D01*
X6375501Y6406184D01*
X6375501Y6392976D01*
X6370980Y6384544D01*
X6363919Y6380226D01*
X6344666Y6375450D01*
X6322466Y6373114D01*
X6315659Y6370828D01*
X6301130Y6368491D01*
X6287160Y6361582D01*
X6279235Y6353962D01*
X6274308Y6345834D01*
X6271310Y6331254D01*
X6274358Y6313170D01*
X6280048Y6303467D01*
X6290157Y6294170D01*
X6304991Y6286703D01*
X6321298Y6282944D01*
X6352743Y6282944D01*
X6370777Y6286906D01*
X6389624Y6296355D01*
X6393230Y6299200D01*
X6406083Y6311036D01*
X6404508Y6315862D01*
X6393586Y6324396D01*
X6387693Y6322923D01*
X6384239Y6318758D01*
X6369761Y6309106D01*
X6368338Y6309106D01*
X6358585Y6304686D01*
X6336131Y6301841D01*
X6315608Y6304584D01*
X6303670Y6310223D01*
X6298895Y6315506D01*
X6296507Y6320180D01*
X6294983Y6329476D01*
X6298234Y6340246D01*
X6303111Y6345123D01*
X6314338Y6349847D01*
X6337604Y6353556D01*
X6359753Y6356553D01*
X6370878Y6360363D01*
X6374892Y6360414D01*
X6380734Y6364986D01*
X6383172Y6365036D01*
X6393230Y6374739D01*
X6399276Y6387744D01*
X6399072Y6407556D01*
X6393078Y6420713D01*
X6381089Y6432702D01*
X6369050Y6438544D01*
X6352895Y6441998D01*
G37*
G36*
X8473744Y6443065D02*
G01*
X8456726Y6438392D01*
X8448649Y6434328D01*
X8437524Y6425793D01*
X8426145Y6411518D01*
X8421116Y6400546D01*
X8418830Y6396278D01*
X8414918Y6374942D01*
X8414918Y6351625D01*
X8439658Y6351625D01*
X8440978Y6390335D01*
X8447430Y6406032D01*
X8456472Y6415074D01*
X8469579Y6421272D01*
X8494115Y6422034D01*
X8502396Y6419900D01*
X8511743Y6414566D01*
X8517483Y6409893D01*
X8524646Y6400546D01*
X8527491Y6388912D01*
X8529828Y6372606D01*
X8528608Y6339992D01*
X8525205Y6328003D01*
X8521293Y6320485D01*
X8511743Y6310122D01*
X8498789Y6303873D01*
X8469630Y6303975D01*
X8455660Y6311341D01*
X8450630Y6315506D01*
X8442198Y6331305D01*
X8439658Y6351625D01*
X8414918Y6351625D01*
X8414918Y6350457D01*
X8418068Y6332982D01*
X8422538Y6321348D01*
X8428685Y6309715D01*
X8430615Y6308394D01*
X8436051Y6301028D01*
X8447532Y6292037D01*
X8457996Y6286703D01*
X8474303Y6282385D01*
X8494674Y6282334D01*
X8512606Y6287211D01*
X8521750Y6291986D01*
X8532825Y6300368D01*
X8538718Y6307378D01*
X8546998Y6322517D01*
X8553196Y6341160D01*
X8553297Y6384239D01*
X8546236Y6405219D01*
X8541054Y6414566D01*
X8533130Y6424828D01*
X8521598Y6433515D01*
X8510422Y6439001D01*
X8496452Y6442760D01*
G37*
G36*
X7397394Y6443065D02*
G01*
X7376972Y6438239D01*
X7359345Y6428943D01*
X7349439Y6419291D01*
X7349439Y6417005D01*
X7361580Y6405829D01*
X7364272Y6405829D01*
X7373315Y6412992D01*
X7387336Y6420104D01*
X7403642Y6423152D01*
X7417612Y6423152D01*
X7434173Y6420205D01*
X7442098Y6415278D01*
X7447838Y6407556D01*
X7448753Y6393129D01*
X7443724Y6384950D01*
X7435951Y6380124D01*
X7418324Y6375654D01*
X7403642Y6374180D01*
X7374890Y6368440D01*
X7371029Y6366357D01*
X7360361Y6361531D01*
X7352030Y6353962D01*
X7345375Y6341160D01*
X7345476Y6317437D01*
X7352080Y6304432D01*
X7365034Y6292596D01*
X7377988Y6286804D01*
X7398105Y6282182D01*
X7425791Y6283045D01*
X7443266Y6286804D01*
X7456982Y6292900D01*
X7467701Y6300165D01*
X7479944Y6310477D01*
X7479944Y6312357D01*
X7469124Y6323025D01*
X7464907Y6324396D01*
X7458405Y6320993D01*
X7452461Y6315506D01*
X7443266Y6309614D01*
X7430414Y6304635D01*
X7409840Y6301841D01*
X7387336Y6304737D01*
X7375042Y6311646D01*
X7369251Y6320129D01*
X7369251Y6337046D01*
X7377684Y6346393D01*
X7380325Y6346393D01*
X7387132Y6349949D01*
X7412431Y6353251D01*
X7414361Y6354470D01*
X7434173Y6356705D01*
X7448296Y6361480D01*
X7456830Y6366560D01*
X7465872Y6374638D01*
X7471765Y6385966D01*
X7471765Y6407912D01*
X7466330Y6419646D01*
X7459929Y6428028D01*
X7450226Y6434277D01*
X7441641Y6438595D01*
X7424623Y6442811D01*
G37*
G36*
X7210755Y6443065D02*
G01*
X7196277Y6438239D01*
X7188098Y6433362D01*
X7173518Y6418326D01*
X7173518Y6416192D01*
X7169607Y6410198D01*
X7165390Y6398209D01*
X7160717Y6371793D01*
X7160717Y6353657D01*
X7163718Y6335979D01*
X7187539Y6335979D01*
X7187539Y6390081D01*
X7194245Y6404051D01*
X7202779Y6413855D01*
X7216343Y6420764D01*
X7234681Y6421932D01*
X7248194Y6419850D01*
X7255662Y6415735D01*
X7265619Y6406489D01*
X7270242Y6394043D01*
X7270242Y6330137D01*
X7266381Y6320180D01*
X7257999Y6311188D01*
X7242860Y6304026D01*
X7216698Y6304229D01*
X7203541Y6310833D01*
X7192772Y6322771D01*
X7187539Y6335979D01*
X7163718Y6335979D01*
X7165543Y6325412D01*
X7168845Y6319012D01*
X7168946Y6315506D01*
X7173468Y6309715D01*
X7173518Y6307226D01*
X7188911Y6291224D01*
X7197090Y6286804D01*
X7211415Y6282334D01*
X7230059Y6282334D01*
X7244181Y6286652D01*
X7254494Y6292697D01*
X7267803Y6306769D01*
X7270242Y6306769D01*
X7270242Y6228994D01*
X7273493Y6226302D01*
X7292949Y6226962D01*
X7293559Y6437680D01*
X7290612Y6439560D01*
X7273899Y6439611D01*
X7270242Y6438188D01*
X7270242Y6418630D01*
X7268972Y6418630D01*
X7265416Y6421526D01*
X7260336Y6427114D01*
X7254494Y6432448D01*
X7245350Y6438646D01*
X7232345Y6442862D01*
G37*
G36*
X6865010Y6443065D02*
G01*
X6850227Y6439509D01*
X6835292Y6432042D01*
X6819747Y6416852D01*
X6810197Y6397091D01*
X6806082Y6383070D01*
X6805168Y6350457D01*
X6805659Y6348120D01*
X6829856Y6348120D01*
X6829856Y6378702D01*
X6833666Y6395923D01*
X6839153Y6406845D01*
X6847890Y6415379D01*
X6859524Y6421272D01*
X6884009Y6422034D01*
X6893610Y6419951D01*
X6901484Y6415684D01*
X6911289Y6405930D01*
X6916470Y6395923D01*
X6919518Y6376111D01*
X6919569Y6350050D01*
X6917029Y6331813D01*
X6912102Y6320180D01*
X6901992Y6310274D01*
X6889851Y6303975D01*
X6859574Y6303975D01*
X6847890Y6310223D01*
X6840626Y6316878D01*
X6834378Y6326327D01*
X6829856Y6348120D01*
X6805659Y6348120D01*
X6807606Y6338824D01*
X6810959Y6325514D01*
X6816293Y6313779D01*
X6817817Y6313779D01*
X6820357Y6308242D01*
X6828028Y6299504D01*
X6839762Y6290818D01*
X6847484Y6286855D01*
X6865162Y6282334D01*
X6884009Y6282283D01*
X6900316Y6286042D01*
X6912762Y6292189D01*
X6927748Y6305854D01*
X6935622Y6317843D01*
X6939432Y6327038D01*
X6944563Y6346952D01*
X6944563Y6377279D01*
X6939229Y6399174D01*
X6930136Y6416294D01*
X6922566Y6425742D01*
X6910831Y6434277D01*
X6904990Y6437579D01*
X6887514Y6442862D01*
G37*
G36*
X9033510Y6442862D02*
G01*
X9006738Y6442303D01*
X8996273Y6439408D01*
X8981236Y6432042D01*
X8965285Y6416395D01*
X8954719Y6394094D01*
X8951468Y6371437D01*
X8951417Y6354622D01*
X8953966Y6337147D01*
X8976868Y6337147D01*
X8977630Y6392418D01*
X8986570Y6409232D01*
X8993936Y6414719D01*
X9005112Y6421221D01*
X9030055Y6422034D01*
X9039860Y6419951D01*
X9052814Y6411620D01*
X9060027Y6401409D01*
X9064701Y6388912D01*
X9065768Y6341668D01*
X9059621Y6322517D01*
X9047530Y6310223D01*
X9035846Y6303873D01*
X9005570Y6303924D01*
X8999728Y6307124D01*
X8987790Y6314948D01*
X8981998Y6323685D01*
X8980322Y6329476D01*
X8976868Y6337147D01*
X8953966Y6337147D01*
X8955024Y6330035D01*
X8958376Y6323685D01*
X8958376Y6320637D01*
X8969857Y6303670D01*
X8981948Y6292799D01*
X8993936Y6286754D01*
X9011208Y6282334D01*
X9030258Y6282334D01*
X9047937Y6286855D01*
X9063431Y6295186D01*
X9074404Y6306210D01*
X9082836Y6320180D01*
X9089440Y6338824D01*
X9089440Y6385407D01*
X9083192Y6403289D01*
X9074810Y6418783D01*
X9063786Y6429857D01*
X9049359Y6438290D01*
G37*
G36*
X7602829Y6442862D02*
G01*
X7576058Y6442303D01*
X7565593Y6439408D01*
X7550556Y6432042D01*
X7534605Y6416395D01*
X7524038Y6394094D01*
X7520787Y6371437D01*
X7520736Y6354622D01*
X7523315Y6337147D01*
X7546187Y6337147D01*
X7546949Y6392418D01*
X7555890Y6409232D01*
X7563256Y6414719D01*
X7574432Y6421221D01*
X7599375Y6422034D01*
X7609179Y6419951D01*
X7622133Y6411620D01*
X7629347Y6401409D01*
X7634020Y6388912D01*
X7635087Y6341668D01*
X7628940Y6322517D01*
X7616901Y6310223D01*
X7605166Y6303873D01*
X7574889Y6303924D01*
X7569047Y6307124D01*
X7557109Y6314948D01*
X7551318Y6323685D01*
X7549642Y6329476D01*
X7546187Y6337147D01*
X7523315Y6337147D01*
X7524343Y6330035D01*
X7527696Y6323685D01*
X7527696Y6320637D01*
X7539177Y6303670D01*
X7551267Y6292799D01*
X7563256Y6286754D01*
X7580528Y6282334D01*
X7599578Y6282334D01*
X7617256Y6286855D01*
X7632750Y6295186D01*
X7643723Y6306210D01*
X7652156Y6320180D01*
X7658760Y6338824D01*
X7658760Y6385407D01*
X7652512Y6403289D01*
X7644130Y6418783D01*
X7633106Y6429857D01*
X7618679Y6438290D01*
G37*
G36*
X8854744Y6439662D02*
G01*
X8828684Y6439001D01*
X8825534Y6425031D01*
X8821978Y6403136D01*
X8819997Y6399377D01*
X8817152Y6377279D01*
X8815070Y6373266D01*
X8812479Y6353962D01*
X8810447Y6350050D01*
X8808059Y6332982D01*
X8804605Y6317843D01*
X8803335Y6309106D01*
X8801354Y6309106D01*
X8799931Y6312763D01*
X8796477Y6327698D01*
X8794038Y6353962D01*
X8791956Y6362090D01*
X8789365Y6388912D01*
X8787282Y6397091D01*
X8784793Y6422593D01*
X8782050Y6436664D01*
X8779865Y6439611D01*
X8763762Y6439611D01*
X8762339Y6435852D01*
X8764981Y6416852D01*
X8768537Y6394754D01*
X8773058Y6362090D01*
X8776563Y6343497D01*
X8783574Y6294526D01*
X8785148Y6288735D01*
X8787434Y6285788D01*
X8812885Y6285788D01*
X8817254Y6288125D01*
X8818778Y6301536D01*
X8822080Y6314338D01*
X8825534Y6336487D01*
X8832342Y6370269D01*
X8838996Y6407556D01*
X8844737Y6407556D01*
X8848699Y6385407D01*
X8860485Y6324854D01*
X8867140Y6289395D01*
X8870137Y6285788D01*
X8896045Y6285839D01*
X8898991Y6287719D01*
X8902446Y6303873D01*
X8902446Y6310833D01*
X8906967Y6336487D01*
X8911945Y6370269D01*
X8916263Y6395923D01*
X8917736Y6412230D01*
X8920073Y6419596D01*
X8921953Y6436664D01*
X8919667Y6439611D01*
X8903919Y6439611D01*
X8901633Y6436664D01*
X8899093Y6426200D01*
X8896553Y6397091D01*
X8894368Y6390081D01*
X8891879Y6363309D01*
X8889746Y6355130D01*
X8887358Y6328308D01*
X8882583Y6309106D01*
X8880449Y6309106D01*
X8879179Y6316675D01*
X8869832Y6363868D01*
X8865108Y6388912D01*
X8860637Y6409893D01*
X8856878Y6429959D01*
G37*
G36*
X8055406Y6439611D02*
G01*
X8054136Y6436309D01*
X8058962Y6425742D01*
X8058962Y6423863D01*
X8063433Y6414566D01*
X8068564Y6401714D01*
X8072678Y6392418D01*
X8075472Y6383731D01*
X8077606Y6382359D01*
X8077606Y6378448D01*
X8080857Y6372301D01*
X8084769Y6360414D01*
X8086953Y6359042D01*
X8086953Y6355486D01*
X8090255Y6348120D01*
X8097570Y6330645D01*
X8100923Y6323330D01*
X8100923Y6319723D01*
X8103057Y6318402D01*
X8107019Y6306515D01*
X8110220Y6300368D01*
X8110220Y6297625D01*
X8113674Y6291072D01*
X8119770Y6275882D01*
X8123021Y6268923D01*
X8126577Y6258610D01*
X8128558Y6256121D01*
X8130133Y6249466D01*
X8139328Y6235141D01*
X8145068Y6231026D01*
X8159750Y6226403D01*
X8189366Y6226403D01*
X8191804Y6230874D01*
X8191804Y6241948D01*
X8187944Y6246215D01*
X8158429Y6246215D01*
X8153349Y6251600D01*
X8149640Y6262522D01*
X8147507Y6263792D01*
X8147507Y6267297D01*
X8143036Y6277152D01*
X8141411Y6283502D01*
X8139379Y6284772D01*
X8139379Y6291326D01*
X8149285Y6314948D01*
X8163661Y6350457D01*
X8194395Y6425031D01*
X8199069Y6435902D01*
X8197697Y6439611D01*
X8176666Y6439611D01*
X8172043Y6430467D01*
X8168741Y6421526D01*
X8135620Y6338824D01*
X8131606Y6328308D01*
X8127339Y6318453D01*
X8125917Y6318453D01*
X8119567Y6332423D01*
X8119567Y6335776D01*
X8117382Y6337096D01*
X8113471Y6348984D01*
X8110270Y6355130D01*
X8110220Y6357975D01*
X8105800Y6367932D01*
X8085581Y6418021D01*
X8082280Y6425387D01*
X8082280Y6427114D01*
X8076387Y6439611D01*
G37*
G36*
X6760616Y6439611D02*
G01*
X6694119Y6439001D01*
X6692747Y6405219D01*
X6692392Y6404660D01*
X6690410Y6404660D01*
X6687718Y6413703D01*
X6679285Y6425031D01*
X6668262Y6433667D01*
X6654495Y6439001D01*
X6619544Y6439001D01*
X6619544Y6416852D01*
X6658000Y6415633D01*
X6674002Y6410045D01*
X6687413Y6397091D01*
X6692849Y6386576D01*
X6693712Y6310426D01*
X6691122Y6305600D01*
X6636918Y6305600D01*
X6634124Y6302806D01*
X6634124Y6287211D01*
X6637781Y6285788D01*
X6760667Y6285788D01*
X6763461Y6288582D01*
X6763461Y6302806D01*
X6760667Y6305600D01*
X6720941Y6305651D01*
X6717436Y6307836D01*
X6716775Y6413652D01*
X6719112Y6419799D01*
X6760667Y6419799D01*
X6763461Y6422593D01*
X6763461Y6436817D01*
G37*
G36*
X6460744Y6439611D02*
G01*
X6457035Y6438188D01*
X6457035Y6287211D01*
X6460744Y6285788D01*
X6476644Y6285788D01*
X6480352Y6287211D01*
X6480352Y6306769D01*
X6482080Y6306769D01*
X6495796Y6291630D01*
X6504228Y6286398D01*
X6515862Y6282385D01*
X6535216Y6282334D01*
X6547307Y6285941D01*
X6556857Y6290614D01*
X6567678Y6300368D01*
X6576771Y6317843D01*
X6579362Y6338976D01*
X6579362Y6436817D01*
X6576568Y6439611D01*
X6558838Y6439611D01*
X6554978Y6436664D01*
X6554317Y6328308D01*
X6547866Y6315506D01*
X6543649Y6310528D01*
X6531051Y6304127D01*
X6506209Y6304178D01*
X6492290Y6310477D01*
X6484162Y6319012D01*
X6480352Y6331102D01*
X6480352Y6438188D01*
X6476644Y6439611D01*
G37*
M02*
