G04 Layer: BottomSolderMaskLayer*
G04 EasyEDA v6.5.54, 2026-04-10 22:32:50*
G04 3f3be1ec7deb419daeab65e36d49777c,c0d4400111084a648b8aab22d3886a6d,10*
G04 Gerber Generator version 0.2*
G04 Scale: 100 percent, Rotated: No, Reflected: No *
G04 Dimensions in millimeters *
G04 leading zeros omitted , absolute positions ,4 integer and 5 decimal *
%FSLAX45Y45*%
%MOMM*%

%ADD10C,0.9096*%
%ADD11C,0.0149*%

%LPD*%
G36*
X1367891Y7607300D02*
G01*
X1363776Y7602321D01*
X1341882Y7600340D01*
X1333042Y7594549D01*
X1322120Y7594549D01*
X1307439Y7576820D01*
X1307439Y7570774D01*
X1297889Y7561173D01*
X1288999Y7541107D01*
X1278382Y7528966D01*
X1278280Y7524546D01*
X1271168Y7515504D01*
X1271117Y7503922D01*
X1267460Y7494320D01*
X1262024Y7488885D01*
X1262024Y7480757D01*
X1257503Y7476236D01*
X1251356Y7450023D01*
X1246124Y7429753D01*
X1242009Y7422083D01*
X1242009Y7415987D01*
X1232916Y7408875D01*
X1232865Y7399121D01*
X1225651Y7388199D01*
X1225651Y7385456D01*
X1256538Y7385456D01*
X1256538Y7388910D01*
X1260195Y7391146D01*
X1260195Y7385456D01*
X1225651Y7385456D01*
X1225651Y7370622D01*
X1218387Y7361377D01*
X1218387Y7341717D01*
X1212951Y7328814D01*
X1208635Y7323683D01*
X1231696Y7323683D01*
X1229258Y7321245D01*
X1226870Y7323683D01*
X1208635Y7323683D01*
X1203807Y7317943D01*
X1203807Y7298232D01*
X1223822Y7298232D01*
X1223822Y7285481D01*
X1220165Y7285481D01*
X1220165Y7298232D01*
X1203807Y7298232D01*
X1203807Y7283297D01*
X1196695Y7273340D01*
X1194206Y7248194D01*
X1189278Y7241031D01*
X1189278Y7218019D01*
X1184300Y7208215D01*
X1182166Y7181494D01*
X1176020Y7172045D01*
X1174292Y7146391D01*
X1169720Y7140956D01*
X1166977Y7131862D01*
X1160170Y7123175D01*
X1160018Y7099096D01*
X1154226Y7084568D01*
X1152550Y7000951D01*
X1148842Y6996379D01*
X1140206Y6996379D01*
X1140002Y6995464D01*
X1138174Y6917283D01*
X1132230Y6897319D01*
X1132128Y6822744D01*
X1137666Y6806387D01*
X1138732Y6702755D01*
X1142441Y6698234D01*
X1148842Y6698234D01*
X1153007Y6703263D01*
X1153464Y6788200D01*
X1151026Y6823811D01*
X1146048Y6848195D01*
X1148689Y6877303D01*
X1152906Y6887514D01*
X1152906Y6900570D01*
X1166571Y6912305D01*
X1170178Y6964883D01*
X1166622Y6974941D01*
X1179626Y6986879D01*
X1181557Y7010552D01*
X1179271Y7013752D01*
X1168857Y7020407D01*
X1170736Y7032040D01*
X1176375Y7045502D01*
X1180185Y7045502D01*
X1184503Y7029348D01*
X1193698Y7027062D01*
X1198372Y7033463D01*
X1198372Y7041286D01*
X1192987Y7059117D01*
X1197051Y7082739D01*
X1203807Y7091425D01*
X1203807Y7112558D01*
X1208125Y7115200D01*
X1220978Y7115505D01*
X1225397Y7124344D01*
X1221943Y7130796D01*
X1210106Y7132980D01*
X1211478Y7147458D01*
X1205179Y7154418D01*
X1207363Y7160006D01*
X1223416Y7160006D01*
X1225600Y7168235D01*
X1225651Y7194702D01*
X1231188Y7207961D01*
X1234643Y7241438D01*
X1240180Y7252766D01*
X1246276Y7264552D01*
X1248359Y7280960D01*
X1261110Y7282738D01*
X1260754Y7305497D01*
X1254709Y7312152D01*
X1254709Y7318857D01*
X1260551Y7325258D01*
X1263091Y7347000D01*
X1267104Y7351826D01*
X1271219Y7367270D01*
X1281074Y7369403D01*
X1285290Y7370673D01*
X1283258Y7421880D01*
X1289710Y7428992D01*
X1298346Y7453680D01*
X1298397Y7462774D01*
X1305610Y7473645D01*
X1305661Y7482179D01*
X1312926Y7491425D01*
X1312926Y7506462D01*
X1319987Y7519670D01*
X1329537Y7529220D01*
X1328877Y7539126D01*
X1329283Y7543292D01*
X1338478Y7545578D01*
X1342593Y7554569D01*
X1336141Y7561630D01*
X1344066Y7572756D01*
X1347266Y7572756D01*
X1360932Y7556398D01*
X1365859Y7556398D01*
X1378356Y7546848D01*
X1378508Y7535468D01*
X1385519Y7520940D01*
X1385540Y7518196D01*
X1405636Y7518196D01*
X1405636Y7516368D01*
X1403807Y7516368D01*
X1403807Y7518196D01*
X1385540Y7518196D01*
X1385620Y7507681D01*
X1392834Y7491831D01*
X1392889Y7483652D01*
X1420164Y7483652D01*
X1420164Y7478217D01*
X1416558Y7478217D01*
X1416558Y7483652D01*
X1392889Y7483652D01*
X1392936Y7476642D01*
X1396288Y7467803D01*
X1405636Y7457694D01*
X1405636Y7453274D01*
X1414729Y7436205D01*
X1414729Y7429703D01*
X1423822Y7425537D01*
X1423822Y7400442D01*
X1432255Y7394905D01*
X1430680Y7364222D01*
X1443837Y7351064D01*
X1443837Y7338212D01*
X1478381Y7338212D01*
X1478381Y7334554D01*
X1474724Y7334554D01*
X1474724Y7338212D01*
X1443837Y7338212D01*
X1443837Y7335012D01*
X1439265Y7331354D01*
X1432052Y7329982D01*
X1428648Y7320229D01*
X1433372Y7314590D01*
X1448866Y7314590D01*
X1444091Y7300925D01*
X1451305Y7293203D01*
X1451254Y7262926D01*
X1455166Y7258202D01*
X1462125Y7258202D01*
X1464360Y7252360D01*
X1458010Y7241641D01*
X1460246Y7232751D01*
X1470660Y7232751D01*
X1476044Y7240879D01*
X1482445Y7235596D01*
X1479956Y7198156D01*
X1482101Y7194550D01*
X1507439Y7194550D01*
X1507439Y7176160D01*
X1503832Y7178446D01*
X1503832Y7194550D01*
X1482101Y7194550D01*
X1486966Y7186371D01*
X1489100Y7167270D01*
X1500428Y7146645D01*
X1498650Y7139787D01*
X1501749Y7130034D01*
X1503984Y7109714D01*
X1515618Y7104583D01*
X1514449Y7088225D01*
X1503883Y7068007D01*
X1503527Y7022439D01*
X1511096Y7010044D01*
X1511198Y6995464D01*
X1516532Y6988403D01*
X1516532Y6980021D01*
X1509522Y6966864D01*
X1510842Y6912406D01*
X1517091Y6905498D01*
X1523898Y6905498D01*
X1528165Y6914794D01*
X1524152Y6930034D01*
X1526946Y6946392D01*
X1531112Y6956602D01*
X1531112Y7021626D01*
X1535125Y7024116D01*
X1538325Y7019137D01*
X1538376Y7003186D01*
X1545539Y6991603D01*
X1547926Y6971131D01*
X1543304Y6940956D01*
X1538376Y6931101D01*
X1538376Y6922312D01*
X1545844Y6912813D01*
X1547418Y6889343D01*
X1554937Y6874865D01*
X1560169Y6872884D01*
X1560169Y6854799D01*
X1567789Y6849465D01*
X1560169Y6841845D01*
X1560169Y6815886D01*
X1567586Y6803948D01*
X1568094Y6784136D01*
X1560169Y6774078D01*
X1560169Y6766814D01*
X1567891Y6754317D01*
X1562049Y6739331D01*
X1567688Y6730746D01*
X1573123Y6728663D01*
X1582013Y6732676D01*
X1582013Y6746798D01*
X1589278Y6756044D01*
X1589176Y6777278D01*
X1580235Y6811873D01*
X1580184Y6820001D01*
X1592884Y6825284D01*
X1596999Y6834327D01*
X1594612Y6843775D01*
X1585417Y6847281D01*
X1574952Y6847281D01*
X1573276Y6850024D01*
X1578203Y6864400D01*
X1577086Y6886397D01*
X1574495Y6892391D01*
X1580184Y6911594D01*
X1580184Y6923582D01*
X1570532Y6926021D01*
X1564741Y6922414D01*
X1559864Y6912508D01*
X1554480Y6910476D01*
X1550619Y6914286D01*
X1558290Y6926681D01*
X1562709Y6957314D01*
X1562303Y6994093D01*
X1554988Y7011822D01*
X1553362Y7038644D01*
X1548384Y7041794D01*
X1540408Y7041845D01*
X1538020Y7045655D01*
X1544218Y7058710D01*
X1544116Y7081520D01*
X1538376Y7092594D01*
X1538376Y7110475D01*
X1531112Y7133234D01*
X1531112Y7174738D01*
X1523238Y7190028D01*
X1523847Y7213447D01*
X1516532Y7227417D01*
X1516532Y7234428D01*
X1509725Y7251852D01*
X1506982Y7275474D01*
X1503527Y7284567D01*
X1498549Y7310018D01*
X1493215Y7328814D01*
X1487017Y7338263D01*
X1478381Y7340396D01*
X1478381Y7343190D01*
X1485646Y7352436D01*
X1485646Y7356043D01*
X1472895Y7371283D01*
X1472895Y7375499D01*
X1467053Y7386370D01*
X1465122Y7411059D01*
X1458366Y7414717D01*
X1458366Y7431633D01*
X1448358Y7446365D01*
X1444294Y7450683D01*
X1441805Y7473645D01*
X1434185Y7502753D01*
X1427022Y7517282D01*
X1422501Y7522768D01*
X1420317Y7539583D01*
X1413052Y7551877D01*
X1401826Y7558531D01*
X1393088Y7578242D01*
X1387602Y7580375D01*
X1376273Y7603642D01*
X1370177Y7607198D01*
G37*
G36*
X1104442Y6770928D02*
G01*
X1096416Y6762394D01*
X1099921Y6753250D01*
X1105662Y6751066D01*
X1111402Y6753250D01*
X1114196Y6760870D01*
X1106779Y6770928D01*
G37*
G36*
X1102207Y6712762D02*
G01*
X1096568Y6704685D01*
X1096568Y6687870D01*
X1105763Y6683705D01*
X1112926Y6688175D01*
X1112926Y6703517D01*
X1108710Y6712762D01*
G37*
G36*
X1604619Y6694576D02*
G01*
X1596390Y6688785D01*
X1597456Y6666433D01*
X1608124Y6661353D01*
X1616303Y6670852D01*
X1618894Y6687921D01*
X1610664Y6694576D01*
G37*
G36*
X1106525Y6648653D02*
G01*
X1102156Y6646976D01*
X1098702Y6635496D01*
X1096416Y6625132D01*
X1100632Y6620052D01*
X1109014Y6620052D01*
X1114704Y6625742D01*
X1114704Y6645605D01*
G37*
G36*
X1606042Y6645503D02*
G01*
X1599285Y6635496D01*
X1595475Y6572961D01*
X1588973Y6565798D01*
X1590192Y6557670D01*
X1599692Y6550609D01*
X1611071Y6556502D01*
X1611071Y6562852D01*
X1617472Y6571843D01*
X1620215Y6600952D01*
X1621282Y6610045D01*
X1624076Y6625132D01*
X1616557Y6641693D01*
X1610207Y6645351D01*
G37*
G36*
X1300276Y5330952D02*
G01*
X1298041Y5322062D01*
X1300378Y5318201D01*
X1321308Y5318201D01*
X1328369Y5312867D01*
X1340205Y5312765D01*
X1340205Y5321401D01*
X1335278Y5325516D01*
X1321104Y5330698D01*
G37*
G36*
X1291996Y5318252D02*
G01*
X1284732Y5317286D01*
X1283512Y5306872D01*
X1287068Y5303316D01*
X1294739Y5305755D01*
X1297025Y5314950D01*
G37*
G36*
X1266088Y5310936D02*
G01*
X1262176Y5306212D01*
X1264259Y5298186D01*
X1272692Y5296052D01*
X1276553Y5298440D01*
X1276553Y5306568D01*
X1272184Y5310936D01*
G37*
G36*
X1467612Y5300014D02*
G01*
X1458214Y5295747D01*
X1459280Y5288229D01*
X1469847Y5288991D01*
X1473250Y5292394D01*
X1470863Y5300014D01*
G37*
G36*
X1234389Y5294579D02*
G01*
X1228140Y5286857D01*
X1213815Y5284520D01*
X1212646Y5276392D01*
X1229512Y5276392D01*
X1237183Y5272278D01*
X1247241Y5284571D01*
X1237691Y5294579D01*
G37*
G36*
X1489659Y5276392D02*
G01*
X1487170Y5270042D01*
X1502003Y5256834D01*
X1502003Y5250383D01*
X1522933Y5230012D01*
X1530197Y5219547D01*
X1543253Y5206339D01*
X1547723Y5192776D01*
X1550720Y5192776D01*
X1554835Y5182768D01*
X1567180Y5164582D01*
X1580997Y5147056D01*
X1589278Y5126685D01*
X1589379Y5122773D01*
X1596440Y5113680D01*
X1596542Y5104434D01*
X1603806Y5090160D01*
X1603806Y5076037D01*
X1611071Y5066792D01*
X1611071Y5053330D01*
X1618386Y5046726D01*
X1618386Y5026812D01*
X1626158Y5014264D01*
X1629054Y4991862D01*
X1640586Y4950053D01*
X1636572Y4866386D01*
X1633067Y4808220D01*
X1623669Y4786376D01*
X1618437Y4777282D01*
X1618386Y4749038D01*
X1603806Y4730597D01*
X1603806Y4717288D01*
X1592021Y4704435D01*
X1580692Y4682744D01*
X1569212Y4670501D01*
X1566976Y4660950D01*
X1555445Y4648200D01*
X1545640Y4633468D01*
X1545640Y4629759D01*
X1525981Y4608017D01*
X1524711Y4599178D01*
X1518107Y4597908D01*
X1511350Y4604004D01*
X1504746Y4602734D01*
X1503527Y4594148D01*
X1507439Y4590237D01*
X1507439Y4578197D01*
X1504188Y4578197D01*
X1500225Y4566970D01*
X1482902Y4544923D01*
X1473809Y4536033D01*
X1471980Y4399127D01*
X1478737Y4357776D01*
X1476349Y4341876D01*
X1467459Y4331309D01*
X1465173Y4320032D01*
X1469796Y4314494D01*
X1476349Y4316577D01*
X1480413Y4308957D01*
X1477873Y4273651D01*
X1474927Y4269943D01*
X1471066Y4232249D01*
X1475282Y4227169D01*
X1478534Y4228287D01*
X1487474Y4253687D01*
X1487119Y4458462D01*
X1492910Y4464862D01*
X1492910Y4474819D01*
X1489710Y4480966D01*
X1487119Y4523587D01*
X1496212Y4527753D01*
X1502003Y4542891D01*
X1502003Y4550359D01*
X1509776Y4557318D01*
X1518107Y4575860D01*
X1538376Y4593183D01*
X1538376Y4598720D01*
X1552905Y4614519D01*
X1552905Y4624933D01*
X1560169Y4633315D01*
X1560169Y4639005D01*
X1574393Y4653686D01*
X1581150Y4666538D01*
X1594205Y4682744D01*
X1598371Y4695088D01*
X1611071Y4710633D01*
X1611071Y4714798D01*
X1618945Y4733645D01*
X1625955Y4741519D01*
X1628901Y4770018D01*
X1633423Y4786376D01*
X1638096Y4791862D01*
X1642567Y4810048D01*
X1651000Y4827016D01*
X1646885Y4838801D01*
X1648968Y4950053D01*
X1646224Y4979720D01*
X1640179Y4985766D01*
X1640179Y5007508D01*
X1630730Y5027574D01*
X1627733Y5051501D01*
X1620774Y5060950D01*
X1616202Y5086400D01*
X1611579Y5097322D01*
X1608785Y5110022D01*
X1603806Y5117185D01*
X1603806Y5123383D01*
X1597863Y5129377D01*
X1594866Y5145328D01*
X1582013Y5163616D01*
X1582013Y5169560D01*
X1573834Y5184444D01*
X1559255Y5206390D01*
X1542897Y5228234D01*
X1539494Y5229656D01*
X1532026Y5237683D01*
X1510182Y5262168D01*
X1500174Y5272887D01*
X1500174Y5276392D01*
G37*
G36*
X1191564Y5260035D02*
G01*
X1182878Y5253685D01*
X1175816Y5249722D01*
X1172819Y5238292D01*
X1164742Y5234127D01*
X1156258Y5226405D01*
X1147368Y5207660D01*
X1133500Y5190032D01*
X1121562Y5166410D01*
X1114806Y5153660D01*
X1108608Y5145278D01*
X1102004Y5137658D01*
X1102004Y5133187D01*
X1092657Y5111851D01*
X1087475Y5102199D01*
X1087475Y5072227D01*
X1072896Y5058765D01*
X1072896Y5037886D01*
X1065631Y5028641D01*
X1065631Y5013960D01*
X1060196Y5007914D01*
X1056284Y4986782D01*
X1058468Y4960924D01*
X1059281Y4944567D01*
X1051610Y4936896D01*
X1051001Y4835194D01*
X1057910Y4828946D01*
X1060348Y4807305D01*
X1065631Y4794707D01*
X1065631Y4778502D01*
X1080566Y4748225D01*
X1094486Y4719116D01*
X1096416Y4705045D01*
X1102004Y4698847D01*
X1102004Y4693869D01*
X1112012Y4679137D01*
X1114806Y4677867D01*
X1120292Y4666386D01*
X1134465Y4644186D01*
X1161084Y4616196D01*
X1177442Y4588764D01*
X1189278Y4572965D01*
X1189278Y4567783D01*
X1196543Y4558538D01*
X1196644Y4555490D01*
X1211072Y4533747D01*
X1211072Y4529582D01*
X1216914Y4524705D01*
X1220317Y4515815D01*
X1222502Y4488230D01*
X1222603Y4460951D01*
X1218336Y4443069D01*
X1219047Y4249928D01*
X1216609Y4245914D01*
X1221841Y4241546D01*
X1225651Y4243882D01*
X1225651Y4256532D01*
X1231595Y4258767D01*
X1229410Y4284573D01*
X1232916Y4366412D01*
X1233170Y4516170D01*
X1238351Y4520488D01*
X1238351Y4530852D01*
X1227582Y4536440D01*
X1223518Y4544009D01*
X1213154Y4553661D01*
X1196238Y4586376D01*
X1189685Y4593691D01*
X1187196Y4601870D01*
X1177391Y4606950D01*
X1170584Y4622444D01*
X1151534Y4641494D01*
X1131112Y4667097D01*
X1131112Y4670044D01*
X1116533Y4690973D01*
X1116533Y4694021D01*
X1109624Y4700270D01*
X1107135Y4713528D01*
X1102004Y4723485D01*
X1102004Y4732172D01*
X1094740Y4738776D01*
X1094740Y4742230D01*
X1088796Y4755489D01*
X1078382Y4777587D01*
X1078382Y4783226D01*
X1072896Y4796282D01*
X1072845Y4811877D01*
X1065834Y4839106D01*
X1069695Y4853686D01*
X1071473Y4871161D01*
X1065123Y4878171D01*
X1064717Y4915509D01*
X1072896Y4928666D01*
X1072896Y4992268D01*
X1080160Y5001514D01*
X1080160Y5016195D01*
X1084072Y5018582D01*
X1090879Y5012385D01*
X1094740Y5014772D01*
X1094689Y5024577D01*
X1087475Y5035499D01*
X1087475Y5053787D01*
X1092758Y5061305D01*
X1098296Y5077307D01*
X1098346Y5095849D01*
X1109218Y5111851D01*
X1109268Y5120487D01*
X1117142Y5133644D01*
X1123492Y5140960D01*
X1134719Y5160924D01*
X1138732Y5170017D01*
X1146403Y5185359D01*
X1158087Y5198110D01*
X1160576Y5206390D01*
X1174191Y5220919D01*
X1184706Y5235295D01*
X1194866Y5246370D01*
X1196949Y5254548D01*
X1194866Y5260035D01*
G37*
G36*
X1606346Y4774590D02*
G01*
X1599539Y4769612D01*
X1606905Y4765649D01*
X1610817Y4769561D01*
X1608886Y4774590D01*
G37*
G36*
X1482191Y4154576D02*
G01*
X1479346Y4150055D01*
X1480413Y4109110D01*
X1473200Y4099915D01*
X1474724Y4056379D01*
X1483918Y4056379D01*
X1486966Y4064558D01*
X1489710Y4137304D01*
X1489913Y4148886D01*
X1485188Y4154576D01*
G37*
G36*
X1227582Y4118203D02*
G01*
X1223670Y4110939D01*
X1223619Y4074515D01*
X1225702Y4071162D01*
X1218082Y4064050D01*
X1219250Y4053687D01*
X1231849Y4053687D01*
X1236675Y4075480D01*
X1238859Y4090924D01*
X1234135Y4096562D01*
X1234694Y4111193D01*
X1230985Y4118203D01*
G37*
D10*
G01*
X7162800Y5524500D03*
M02*
