G04 Layer: TopLayer*
G04 EasyEDA v6.5.54, 2026-04-10 22:32:50*
G04 3f3be1ec7deb419daeab65e36d49777c,c0d4400111084a648b8aab22d3886a6d,10*
G04 Gerber Generator version 0.2*
G04 Scale: 100 percent, Rotated: No, Reflected: No *
G04 Dimensions in millimeters *
G04 leading zeros omitted , absolute positions ,4 integer and 5 decimal *
%FSLAX45Y45*%
%MOMM*%

%AMMACRO1*21,1,$1,$2,0,0,$3*%
%ADD10C,0.2540*%
%ADD11C,0.3000*%
%ADD12R,0.7501X0.3000*%
%ADD13R,0.9000X0.8000*%
%ADD14MACRO1,1X1.3995X-90.0000*%
%ADD15R,1.3995X1.0000*%
%ADD16MACRO1,0.864X0.8065X0.0000*%
%ADD17R,0.8640X0.8065*%
%ADD18R,0.0153X0.8065*%
%ADD19R,0.4000X0.2200*%
%ADD20R,0.2200X0.4000*%
%ADD21R,0.2800X0.4000*%
%ADD22C,0.8080*%
%ADD23C,0.6096*%

%LPD*%
D10*
X6654800Y5486400D02*
G01*
X6133287Y4964887D01*
X6133287Y4885994D01*
X6781800Y5397500D02*
G01*
X6781800Y4826000D01*
X6143243Y4826000D01*
X6087417Y6542049D02*
G01*
X6126380Y6542049D01*
X6185486Y6482943D01*
X6185486Y6047130D01*
X6112690Y5974334D01*
X6087417Y6620002D02*
G01*
X6087417Y6542049D01*
X6112690Y5906363D02*
G01*
X6112690Y5974334D01*
X6083302Y4885994D02*
G01*
X6083302Y5095747D01*
X6228793Y5241239D01*
X6228793Y5790260D01*
X6180660Y5838393D01*
X6112690Y5838393D01*
X6112690Y5906363D02*
G01*
X6112690Y5838393D01*
X6112690Y5472455D02*
G01*
X6039589Y5545556D01*
X6039589Y6284163D01*
X6087417Y6331991D01*
X6112690Y5404180D02*
G01*
X6112690Y5472455D01*
X6087417Y6409944D02*
G01*
X6087417Y6331991D01*
X6083302Y4766005D02*
G01*
X6133289Y4766005D01*
X6083302Y4718050D02*
G01*
X6074183Y4708931D01*
X6016678Y4708931D01*
X5964709Y4760899D01*
X5964709Y5037251D01*
X6112690Y5185232D01*
X6083302Y4766005D02*
G01*
X6083302Y4718050D01*
X6112690Y5253507D02*
G01*
X6112690Y5185232D01*
X6112690Y5698388D02*
G01*
X6185689Y5625388D01*
X6185689Y5326506D01*
X6180990Y5321807D01*
X6112690Y5321807D01*
X6112690Y5766358D02*
G01*
X6112690Y5698388D01*
X6112690Y5253507D02*
G01*
X6112690Y5321807D01*
X7162800Y5524500D02*
G01*
X7109109Y5524500D01*
X7092602Y5541007D01*
X7092602Y7590990D01*
X7092701Y7593459D01*
X7093000Y7595920D01*
X7093508Y7598333D01*
X7094202Y7600695D01*
X7095083Y7602984D01*
X7096175Y7605217D01*
X7097428Y7607325D01*
X7098865Y7609334D01*
X7100440Y7611237D01*
X7102203Y7612992D01*
X7104049Y7614592D01*
X7106058Y7616037D01*
X7108167Y7617307D01*
X7110399Y7618399D01*
X7112693Y7619311D01*
X7115050Y7620025D01*
X7117468Y7620558D01*
X7119899Y7620861D01*
X7122368Y7620993D01*
X7122591Y7620993D01*
D11*
X9125305Y3331006D02*
G01*
X9125305Y7590993D01*
X9185300Y3331006D02*
G01*
X9185300Y7590993D01*
X9245295Y3331006D02*
G01*
X9245295Y7590993D01*
X9305290Y3331006D02*
G01*
X9305290Y7590993D01*
X9365284Y3331006D02*
G01*
X9365284Y7590993D01*
X7135291Y3301009D02*
G01*
X9095308Y3301009D01*
X7135291Y3241014D02*
G01*
X9095308Y3241014D01*
X7135291Y3180994D02*
G01*
X9095308Y3180994D01*
X7135291Y3120999D02*
G01*
X9095308Y3120999D01*
X7135291Y3061004D02*
G01*
X9095308Y3061004D01*
X7135291Y7620990D02*
G01*
X9095308Y7620990D01*
X7135291Y7680985D02*
G01*
X9095308Y7680985D01*
X7135291Y7741005D02*
G01*
X9095308Y7741005D01*
X7135291Y7801000D02*
G01*
X9095308Y7801000D01*
X7135291Y7860995D02*
G01*
X9095308Y7860995D01*
X7105294Y3331006D02*
G01*
X7105294Y5461000D01*
X7045299Y5520994D01*
X7045299Y7590993D01*
X6985304Y3331006D02*
G01*
X6985304Y5420995D01*
X6925309Y5480989D01*
X6925309Y7590993D01*
X7045299Y3331006D02*
G01*
X7045299Y5441010D01*
X6985304Y5501004D01*
X6985304Y7590993D01*
X6925309Y3331006D02*
G01*
X6925309Y5401005D01*
X6865289Y5461000D01*
X6865289Y7590993D01*
X7105294Y7590993D02*
G01*
X7105294Y5541010D01*
X7121804Y5524500D01*
X7162800Y5524500D01*
X6769100Y5397500D02*
G01*
X6781800Y5397500D01*
X6848805Y5397500D01*
X6865289Y5380989D01*
X6865289Y3331006D01*
D12*
G01*
X6781800Y5397500D03*
D13*
G01*
X6112687Y5766358D03*
G01*
X6112687Y5906363D03*
D14*
G01*
X6087407Y6619999D03*
D15*
G01*
X6087414Y6409944D03*
D16*
G01*
X6112680Y5253513D03*
D17*
G01*
X6112687Y5404154D03*
D19*
G01*
X6143294Y4826000D03*
D20*
G01*
X6133287Y4766005D03*
G01*
X6083300Y4766005D03*
G01*
X6033287Y4766005D03*
D19*
G01*
X6023305Y4826000D03*
D20*
G01*
X6033312Y4885994D03*
G01*
X6083300Y4885994D03*
D21*
G01*
X6133287Y4885994D03*
D11*
G75*
G01*
X7105294Y7590993D02*
G02*
X7135292Y7620991I29998J0D01*
G75*
G01*
X7045300Y7590993D02*
G02*
X7135292Y7680985I89992J0D01*
G75*
G01*
X6985305Y7590993D02*
G02*
X7135292Y7741006I149987J26D01*
G75*
G01*
X6925310Y7590993D02*
G02*
X7135292Y7801000I210007J0D01*
G75*
G01*
X6865290Y7590993D02*
G02*
X7135292Y7860995I270002J0D01*
G75*
G01*
X7105294Y3331007D02*
G03*
X7135292Y3301009I29998J0D01*
G75*
G01*
X7045300Y3331007D02*
G03*
X7135292Y3241015I89992J0D01*
G75*
G01*
X6985305Y3331007D02*
G03*
X7135292Y3180994I149987J-26D01*
G75*
G01*
X6925310Y3331007D02*
G03*
X7135292Y3121000I210007J0D01*
G75*
G01*
X6865290Y3331007D02*
G03*
X7135292Y3061005I270002J0D01*
G75*
G01*
X9125306Y3331007D02*
G02*
X9095308Y3301009I-29998J0D01*
G75*
G01*
X9185300Y3331007D02*
G02*
X9095308Y3241015I-89992J0D01*
G75*
G01*
X9245295Y3331007D02*
G02*
X9095308Y3180994I-149987J-26D01*
G75*
G01*
X9305290Y3331007D02*
G02*
X9095308Y3121000I-210007J0D01*
G75*
G01*
X9365310Y3331007D02*
G02*
X9095308Y3061005I-270002J0D01*
G75*
G01*
X9125306Y7590993D02*
G03*
X9095308Y7620991I-29998J0D01*
G75*
G01*
X9185300Y7590993D02*
G03*
X9095308Y7680985I-89992J0D01*
G75*
G01*
X9245295Y7590993D02*
G03*
X9095308Y7741006I-149987J26D01*
G75*
G01*
X9305290Y7590993D02*
G03*
X9095308Y7801000I-210007J0D01*
G75*
G01*
X9365310Y7590993D02*
G03*
X9095308Y7860995I-270002J0D01*
D22*
G01*
X7162800Y5524500D03*
D23*
G01*
X6654800Y5486400D03*
M02*
