G04 Layer: TopSolderMaskLayer*
G04 EasyEDA v6.5.54, 2026-04-10 22:32:50*
G04 3f3be1ec7deb419daeab65e36d49777c,c0d4400111084a648b8aab22d3886a6d,10*
G04 Gerber Generator version 0.2*
G04 Scale: 100 percent, Rotated: No, Reflected: No *
G04 Dimensions in millimeters *
G04 leading zeros omitted , absolute positions ,4 integer and 5 decimal *
%FSLAX45Y45*%
%MOMM*%

%AMMACRO1*4,1,8,-0.3961,-0.2008,-0.4258,-0.171,-0.4258,0.171,-0.3961,0.2008,0.3961,0.2008,0.4258,0.171,0.4258,-0.171,0.3961,-0.2008,-0.3961,-0.2008,0*%
%AMMACRO2*4,1,8,-0.4711,-0.4508,-0.5008,-0.421,-0.5008,0.4211,-0.4711,0.4508,0.471,0.4508,0.5008,0.4211,0.5008,-0.421,0.471,-0.4508,-0.4711,-0.4508,0*%
%AMMACRO3*4,1,8,-0.7208,-0.5508,-0.7506,-0.521,-0.7506,0.5211,-0.7208,0.5508,0.7208,0.5508,0.7506,0.5211,0.7506,-0.521,0.7208,-0.5508,-0.7208,-0.5508,0*%
%AMMACRO4*4,1,8,-0.4531,-0.454,-0.4828,-0.4243,-0.4828,0.4243,-0.4531,0.454,0.453,0.454,0.4828,0.4243,0.4828,-0.4243,0.453,-0.454,-0.4531,-0.454,0*%
%AMMACRO5*4,1,8,-0.2211,-0.1608,-0.2508,-0.131,-0.2508,0.1311,-0.2211,0.1608,0.221,0.1608,0.2508,0.1311,0.2508,-0.131,0.221,-0.1608,-0.2211,-0.1608,0*%
%AMMACRO6*4,1,8,-0.1311,-0.2508,-0.1608,-0.221,-0.1608,0.2211,-0.1311,0.2508,0.131,0.2508,0.1608,0.2211,0.1608,-0.221,0.131,-0.2508,-0.1311,-0.2508,0*%
%AMMACRO7*4,1,8,-0.1611,-0.2508,-0.1908,-0.221,-0.1908,0.2211,-0.1611,0.2508,0.161,0.2508,0.1908,0.2211,0.1908,-0.221,0.161,-0.2508,-0.1611,-0.2508,0*%
%ADD10MACRO1*%
%ADD11C,0.9096*%
%ADD12MACRO2*%
%ADD13MACRO3*%
%ADD14MACRO4*%
%ADD15C,0.0173*%
%ADD16MACRO5*%
%ADD17MACRO6*%
%ADD18MACRO7*%

%LPD*%
G36*
X7354468Y5741111D02*
G01*
X7354468Y5740095D01*
X7353909Y5739638D01*
X7351369Y5738723D01*
X7348067Y5735828D01*
X7345019Y5732424D01*
X7344359Y5731103D01*
X7340803Y5727446D01*
X7339634Y5725617D01*
X7339228Y5725617D01*
X7334808Y5719521D01*
X7332065Y5716422D01*
X7332065Y5715965D01*
X7330033Y5713272D01*
X7328865Y5711291D01*
X7328255Y5711037D01*
X7327036Y5708954D01*
X7326122Y5707888D01*
X7324547Y5705246D01*
X7323886Y5704687D01*
X7322769Y5702503D01*
X7321803Y5701436D01*
X7320229Y5698794D01*
X7319568Y5698236D01*
X7318248Y5695645D01*
X7317282Y5694324D01*
X7316216Y5691936D01*
X7315149Y5691225D01*
X7314082Y5688482D01*
X7312761Y5686806D01*
X7312202Y5685282D01*
X7310780Y5683300D01*
X7309662Y5680811D01*
X7308697Y5679643D01*
X7307732Y5676849D01*
X7306513Y5675274D01*
X7305598Y5672531D01*
X7304379Y5670956D01*
X7303465Y5668213D01*
X7302195Y5666689D01*
X7301280Y5663946D01*
X7300010Y5662320D01*
X7299147Y5659272D01*
X7297928Y5657342D01*
X7297216Y5654751D01*
X7295794Y5652211D01*
X7294625Y5648553D01*
X7293813Y5647690D01*
X7292949Y5644032D01*
X7291425Y5641340D01*
X7290358Y5636768D01*
X7289292Y5634990D01*
X7288174Y5630316D01*
X7287158Y5628538D01*
X7286040Y5623864D01*
X7285024Y5621832D01*
X7283856Y5616295D01*
X7282840Y5613704D01*
X7281722Y5607659D01*
X7280656Y5604967D01*
X7279640Y5597550D01*
X7278776Y5595569D01*
X7278116Y5591556D01*
X7278116Y5589676D01*
X7277608Y5586577D01*
X7276388Y5581599D01*
X7275474Y5570677D01*
X7274864Y5565851D01*
X7273798Y5565851D01*
X7273798Y5516372D01*
X7274864Y5516372D01*
X7276592Y5500116D01*
X7277658Y5494985D01*
X7278370Y5488940D01*
X7279995Y5482640D01*
X7280503Y5478221D01*
X7280909Y5476494D01*
X7281976Y5473852D01*
X7282586Y5469585D01*
X7284313Y5464454D01*
X7284974Y5460492D01*
X7286701Y5456224D01*
X7286701Y5455412D01*
X7287514Y5452313D01*
X7288377Y5450890D01*
X7289546Y5446166D01*
X7290765Y5443982D01*
X7291476Y5440629D01*
X7292898Y5437784D01*
X7293406Y5435854D01*
X7294676Y5433314D01*
X7295896Y5429605D01*
X7297470Y5426405D01*
X7297470Y5425694D01*
X7299248Y5422747D01*
X7300163Y5419699D01*
X7301280Y5417769D01*
X7302246Y5414975D01*
X7303414Y5413451D01*
X7304379Y5410657D01*
X7305548Y5409184D01*
X7306564Y5406390D01*
X7307681Y5404866D01*
X7308900Y5402021D01*
X7309764Y5401208D01*
X7310780Y5398973D01*
X7312101Y5397144D01*
X7312964Y5394807D01*
X7314184Y5393283D01*
X7315250Y5390896D01*
X7316216Y5390032D01*
X7317282Y5387746D01*
X7318502Y5386374D01*
X7319365Y5384139D01*
X7320940Y5382107D01*
X7321803Y5380228D01*
X7322616Y5379821D01*
X7323683Y5377637D01*
X7325207Y5375656D01*
X7326122Y5373776D01*
X7326884Y5373370D01*
X7328204Y5371033D01*
X7328865Y5370677D01*
X7331303Y5366918D01*
X7333996Y5363667D01*
X7333996Y5363260D01*
X7335469Y5361635D01*
X7337247Y5358942D01*
X7337552Y5358942D01*
X7338618Y5357368D01*
X7342225Y5353405D01*
X7343444Y5351424D01*
X7343851Y5351424D01*
X7345222Y5349189D01*
X7350252Y5344109D01*
X7353909Y5342280D01*
X7354062Y5341112D01*
X7365644Y5341112D01*
X7365644Y5342382D01*
X7368184Y5343296D01*
X7371740Y5346344D01*
X7374026Y5349392D01*
X7374839Y5351119D01*
X7375347Y5355844D01*
X7375093Y5359095D01*
X7374585Y5361736D01*
X7372299Y5365292D01*
X7370572Y5367223D01*
X7370572Y5367578D01*
X7366457Y5372201D01*
X7363358Y5376164D01*
X7363053Y5376164D01*
X7360970Y5379313D01*
X7360208Y5379923D01*
X7359396Y5381498D01*
X7358075Y5382463D01*
X7357059Y5384495D01*
X7356348Y5385054D01*
X7354620Y5387949D01*
X7354011Y5388203D01*
X7352690Y5390591D01*
X7351928Y5390997D01*
X7351014Y5392877D01*
X7349490Y5394858D01*
X7348423Y5396992D01*
X7347610Y5397449D01*
X7346238Y5400344D01*
X7345222Y5401411D01*
X7344257Y5403596D01*
X7343140Y5404916D01*
X7342124Y5407050D01*
X7341108Y5408269D01*
X7339838Y5410962D01*
X7338568Y5412638D01*
X7337907Y5414314D01*
X7336383Y5416651D01*
X7335926Y5418226D01*
X7333996Y5421426D01*
X7333996Y5422087D01*
X7331862Y5425744D01*
X7331862Y5426405D01*
X7329728Y5430012D01*
X7329728Y5430672D01*
X7327798Y5433923D01*
X7327138Y5437022D01*
X7325817Y5438698D01*
X7324750Y5442000D01*
X7323531Y5444490D01*
X7322820Y5447233D01*
X7321499Y5449468D01*
X7320889Y5452618D01*
X7319670Y5454751D01*
X7318705Y5458866D01*
X7317536Y5461203D01*
X7316317Y5466181D01*
X7315098Y5468569D01*
X7314184Y5473903D01*
X7313168Y5476494D01*
X7312507Y5479288D01*
X7311847Y5483606D01*
X7310831Y5486146D01*
X7309713Y5494121D01*
X7308392Y5498642D01*
X7307986Y5503773D01*
X7307173Y5509158D01*
X7306919Y5509818D01*
X7306259Y5515203D01*
X7305497Y5529376D01*
X7305548Y5553252D01*
X7306513Y5569813D01*
X7307783Y5576265D01*
X7308799Y5585764D01*
X7309713Y5587898D01*
X7310780Y5595975D01*
X7311847Y5598617D01*
X7313320Y5606186D01*
X7314438Y5609183D01*
X7315098Y5613196D01*
X7316165Y5615330D01*
X7317028Y5619292D01*
X7318502Y5622290D01*
X7319162Y5625744D01*
X7320483Y5628335D01*
X7321499Y5632450D01*
X7323074Y5635548D01*
X7323937Y5639054D01*
X7325156Y5640781D01*
X7325868Y5643575D01*
X7327138Y5645505D01*
X7328001Y5648350D01*
X7329271Y5649976D01*
X7330389Y5653328D01*
X7330998Y5653836D01*
X7332319Y5657342D01*
X7333538Y5659272D01*
X7334656Y5662015D01*
X7335774Y5663488D01*
X7336840Y5665927D01*
X7337856Y5667095D01*
X7338771Y5669940D01*
X7339736Y5671108D01*
X7341666Y5674258D01*
X7342022Y5674512D01*
X7343038Y5676849D01*
X7344460Y5678830D01*
X7345019Y5680354D01*
X7348575Y5685282D01*
X7349540Y5687263D01*
X7350658Y5688584D01*
X7357160Y5697778D01*
X7358176Y5699709D01*
X7361275Y5703163D01*
X7362037Y5704433D01*
X7364018Y5706821D01*
X7365034Y5708446D01*
X7365441Y5708446D01*
X7366609Y5710275D01*
X7370368Y5714136D01*
X7370368Y5714441D01*
X7372248Y5716524D01*
X7374483Y5719978D01*
X7375296Y5722924D01*
X7375550Y5726836D01*
X7374737Y5731814D01*
X7371791Y5736183D01*
X7371486Y5736183D01*
X7368997Y5738520D01*
X7366609Y5739434D01*
X7365644Y5740044D01*
X7365644Y5741111D01*
G37*
G36*
X7419086Y5706110D02*
G01*
X7412024Y5704281D01*
X7410703Y5703112D01*
X7408722Y5701893D01*
X7403541Y5696712D01*
X7399324Y5691632D01*
X7394651Y5686602D01*
X7393686Y5684774D01*
X7390434Y5681014D01*
X7389520Y5679186D01*
X7388199Y5678271D01*
X7387336Y5676646D01*
X7383983Y5672175D01*
X7383018Y5670245D01*
X7382052Y5669178D01*
X7380478Y5666536D01*
X7379766Y5665978D01*
X7378700Y5663793D01*
X7375753Y5659729D01*
X7374432Y5656986D01*
X7373162Y5655411D01*
X7372451Y5653481D01*
X7371130Y5651804D01*
X7369962Y5648655D01*
X7368895Y5647334D01*
X7368133Y5644946D01*
X7366711Y5643473D01*
X7365796Y5640273D01*
X7364577Y5638698D01*
X7363663Y5635955D01*
X7362393Y5634380D01*
X7361529Y5631586D01*
X7361529Y5631078D01*
X7360412Y5629402D01*
X7359396Y5626455D01*
X7358125Y5624220D01*
X7357059Y5619953D01*
X7356144Y5618734D01*
X7355128Y5614619D01*
X7353808Y5612384D01*
X7352893Y5607659D01*
X7351826Y5605322D01*
X7350759Y5600192D01*
X7349642Y5598007D01*
X7348474Y5591098D01*
X7347610Y5589168D01*
X7346289Y5580126D01*
X7345273Y5576722D01*
X7344105Y5564682D01*
X7343038Y5558231D01*
X7342631Y5542737D01*
X7342987Y5525973D01*
X7345222Y5506364D01*
X7346696Y5499506D01*
X7347153Y5495391D01*
X7348829Y5489803D01*
X7349286Y5485790D01*
X7350963Y5481015D01*
X7351674Y5477205D01*
X7352893Y5474766D01*
X7353604Y5470601D01*
X7354570Y5468721D01*
X7356195Y5463590D01*
X7357414Y5461203D01*
X7358075Y5458104D01*
X7359396Y5456377D01*
X7360056Y5453278D01*
X7361732Y5450433D01*
X7362393Y5448300D01*
X7363663Y5446369D01*
X7364577Y5442966D01*
X7365796Y5441442D01*
X7366762Y5438648D01*
X7367930Y5437124D01*
X7368946Y5434584D01*
X7370114Y5433212D01*
X7371029Y5430774D01*
X7372248Y5429351D01*
X7373162Y5427116D01*
X7374432Y5425541D01*
X7375448Y5423154D01*
X7376414Y5422290D01*
X7377531Y5420004D01*
X7378649Y5418632D01*
X7379817Y5416143D01*
X7380478Y5415889D01*
X7382154Y5412587D01*
X7382814Y5412333D01*
X7384186Y5409895D01*
X7384897Y5409539D01*
X7386116Y5407101D01*
X7387590Y5405323D01*
X7388148Y5404205D01*
X7389317Y5403138D01*
X7390790Y5400903D01*
X7391196Y5400903D01*
X7392162Y5399278D01*
X7394244Y5396788D01*
X7394244Y5396382D01*
X7404353Y5384850D01*
X7408722Y5380329D01*
X7411466Y5378297D01*
X7414463Y5377332D01*
X7418425Y5376367D01*
X7421422Y5376621D01*
X7426045Y5377840D01*
X7429906Y5380126D01*
X7432344Y5382717D01*
X7434884Y5387695D01*
X7435138Y5392166D01*
X7434630Y5395417D01*
X7432446Y5399836D01*
X7426452Y5406593D01*
X7422489Y5410657D01*
X7421321Y5412486D01*
X7420914Y5412486D01*
X7419949Y5414111D01*
X7416038Y5418836D01*
X7415326Y5420207D01*
X7414006Y5421172D01*
X7412990Y5423204D01*
X7412278Y5423763D01*
X7410551Y5426659D01*
X7409942Y5426913D01*
X7408621Y5429504D01*
X7407960Y5429758D01*
X7406284Y5433110D01*
X7405624Y5433364D01*
X7404506Y5435854D01*
X7403338Y5437174D01*
X7402322Y5439257D01*
X7401306Y5440527D01*
X7400086Y5443220D01*
X7398816Y5444896D01*
X7398156Y5446572D01*
X7396581Y5448909D01*
X7396175Y5450484D01*
X7394244Y5453684D01*
X7394244Y5454345D01*
X7392060Y5458002D01*
X7392060Y5458663D01*
X7390434Y5462066D01*
X7389418Y5465114D01*
X7388199Y5466638D01*
X7387539Y5469839D01*
X7386472Y5471617D01*
X7384745Y5477154D01*
X7383729Y5479288D01*
X7383221Y5482488D01*
X7382052Y5484876D01*
X7380884Y5490616D01*
X7379563Y5493816D01*
X7378496Y5500776D01*
X7377430Y5503468D01*
X7376769Y5509818D01*
X7375347Y5517337D01*
X7374890Y5522722D01*
X7374178Y5538419D01*
X7374432Y5551982D01*
X7375347Y5565749D01*
X7376363Y5569813D01*
X7377582Y5578957D01*
X7378750Y5582666D01*
X7379614Y5588965D01*
X7380884Y5591657D01*
X7381544Y5595416D01*
X7383018Y5599074D01*
X7383932Y5603798D01*
X7385202Y5606034D01*
X7385862Y5609132D01*
X7386320Y5610047D01*
X7387081Y5610910D01*
X7388199Y5615279D01*
X7389469Y5617108D01*
X7390180Y5619902D01*
X7391653Y5621985D01*
X7392568Y5625084D01*
X7393736Y5627014D01*
X7394448Y5629198D01*
X7395514Y5630875D01*
X7397089Y5634126D01*
X7398258Y5635853D01*
X7398816Y5637326D01*
X7400239Y5639206D01*
X7400950Y5641441D01*
X7402525Y5643168D01*
X7403338Y5645251D01*
X7404506Y5646572D01*
X7405471Y5648553D01*
X7406436Y5649620D01*
X7408824Y5653024D01*
X7409738Y5655005D01*
X7410703Y5656072D01*
X7412177Y5658408D01*
X7413345Y5659729D01*
X7414006Y5661101D01*
X7415123Y5661812D01*
X7415987Y5663539D01*
X7419848Y5668060D01*
X7420457Y5669381D01*
X7426502Y5675833D01*
X7432548Y5682843D01*
X7433614Y5685282D01*
X7434427Y5686196D01*
X7434935Y5688736D01*
X7434732Y5694121D01*
X7432141Y5699506D01*
X7431176Y5700369D01*
X7430160Y5701944D01*
X7428585Y5702604D01*
X7426909Y5703976D01*
G37*
G36*
X7479080Y5670499D02*
G01*
X7474203Y5670143D01*
X7472527Y5669686D01*
X7468362Y5667502D01*
X7463790Y5663387D01*
X7452664Y5652109D01*
X7451953Y5650839D01*
X7448194Y5646572D01*
X7445959Y5643422D01*
X7444231Y5641695D01*
X7443165Y5639866D01*
X7439863Y5635599D01*
X7438796Y5633466D01*
X7438136Y5632907D01*
X7436967Y5630875D01*
X7435392Y5628741D01*
X7434783Y5627217D01*
X7433360Y5625236D01*
X7432243Y5622747D01*
X7431227Y5621528D01*
X7430312Y5619089D01*
X7429347Y5617972D01*
X7428179Y5614974D01*
X7426959Y5613501D01*
X7425994Y5610707D01*
X7424572Y5608116D01*
X7423861Y5605830D01*
X7422845Y5604611D01*
X7421981Y5601055D01*
X7420457Y5598363D01*
X7419390Y5593740D01*
X7418324Y5591962D01*
X7417206Y5587339D01*
X7416190Y5585256D01*
X7415022Y5579059D01*
X7414056Y5576722D01*
X7412939Y5568543D01*
X7412075Y5565952D01*
X7410754Y5550154D01*
X7410348Y5537098D01*
X7410551Y5536895D01*
X7411821Y5517134D01*
X7412736Y5514340D01*
X7414006Y5506313D01*
X7415479Y5501640D01*
X7415733Y5499506D01*
X7417409Y5494528D01*
X7418324Y5490159D01*
X7419797Y5487009D01*
X7420457Y5483860D01*
X7421727Y5481929D01*
X7422388Y5479135D01*
X7424115Y5476290D01*
X7424724Y5473141D01*
X7425994Y5471515D01*
X7426959Y5468721D01*
X7428128Y5467248D01*
X7429144Y5464454D01*
X7430262Y5462930D01*
X7431278Y5460390D01*
X7432497Y5459018D01*
X7433411Y5456936D01*
X7434580Y5455412D01*
X7435697Y5452973D01*
X7436510Y5452516D01*
X7437780Y5450027D01*
X7438898Y5448757D01*
X7440015Y5446522D01*
X7440828Y5446064D01*
X7442047Y5443626D01*
X7443927Y5441442D01*
X7443927Y5441035D01*
X7448753Y5435092D01*
X7449007Y5435092D01*
X7451242Y5432094D01*
X7451598Y5431993D01*
X7452766Y5430266D01*
X7456678Y5426049D01*
X7465669Y5417159D01*
X7469835Y5414111D01*
X7473137Y5412282D01*
X7477150Y5411724D01*
X7481976Y5412079D01*
X7483652Y5412536D01*
X7488326Y5414924D01*
X7489190Y5415889D01*
X7490358Y5416651D01*
X7491475Y5418836D01*
X7492441Y5420156D01*
X7493609Y5424220D01*
X7493863Y5428081D01*
X7492695Y5432755D01*
X7491628Y5434076D01*
X7490612Y5436057D01*
X7478623Y5447741D01*
X7474762Y5452313D01*
X7474458Y5452313D01*
X7473492Y5453888D01*
X7469835Y5458155D01*
X7467904Y5460796D01*
X7466634Y5463286D01*
X7465822Y5463692D01*
X7462367Y5469585D01*
X7461351Y5470499D01*
X7460538Y5472379D01*
X7458964Y5474716D01*
X7458506Y5476290D01*
X7456576Y5479491D01*
X7456576Y5480151D01*
X7454442Y5483809D01*
X7454442Y5484469D01*
X7452512Y5487670D01*
X7451902Y5490768D01*
X7450581Y5492445D01*
X7449921Y5495645D01*
X7448448Y5498744D01*
X7447737Y5502046D01*
X7446314Y5505754D01*
X7445552Y5510225D01*
X7444181Y5514746D01*
X7443216Y5522925D01*
X7442403Y5527090D01*
X7441692Y5533237D01*
X7441946Y5552846D01*
X7443216Y5559298D01*
X7444181Y5568086D01*
X7445400Y5571286D01*
X7446264Y5576620D01*
X7447381Y5578805D01*
X7448245Y5582716D01*
X7449667Y5585714D01*
X7450328Y5589168D01*
X7452055Y5592470D01*
X7452766Y5594959D01*
X7453782Y5596534D01*
X7454900Y5599988D01*
X7456119Y5601563D01*
X7457084Y5604357D01*
X7458303Y5605780D01*
X7459421Y5608320D01*
X7460488Y5609691D01*
X7461758Y5612384D01*
X7464704Y5616498D01*
X7465669Y5618429D01*
X7468006Y5621375D01*
X7469936Y5624525D01*
X7471054Y5625287D01*
X7472527Y5627573D01*
X7472883Y5627573D01*
X7474254Y5629706D01*
X7483297Y5639714D01*
X7484160Y5640171D01*
X7490409Y5645962D01*
X7491628Y5648452D01*
X7492695Y5649468D01*
X7493203Y5651093D01*
X7493660Y5655970D01*
X7493101Y5660593D01*
X7492492Y5662015D01*
X7491222Y5663641D01*
X7490663Y5664962D01*
X7487666Y5667705D01*
X7486396Y5668213D01*
X7483602Y5669889D01*
G37*
G36*
X7547965Y5668162D02*
G01*
X7544003Y5667095D01*
X7541412Y5665571D01*
X7538618Y5663031D01*
X7536738Y5660034D01*
X7535672Y5655818D01*
X7535570Y5649366D01*
X7536332Y5644540D01*
X7538669Y5640120D01*
X7541717Y5636260D01*
X7547000Y5631992D01*
X7550200Y5630824D01*
X7551115Y5629960D01*
X7552029Y5629503D01*
X7554112Y5629046D01*
X7557160Y5627573D01*
X7562951Y5626658D01*
X7565745Y5625642D01*
X7567472Y5625388D01*
X7576261Y5624982D01*
X7582306Y5625388D01*
X7589164Y5627624D01*
X7590688Y5628792D01*
X7592009Y5629452D01*
X7593838Y5631332D01*
X7594701Y5633161D01*
X7595920Y5634431D01*
X7597292Y5641441D01*
X7597292Y5645099D01*
X7595870Y5652211D01*
X7594853Y5653430D01*
X7593838Y5655411D01*
X7588148Y5660948D01*
X7585456Y5662218D01*
X7584694Y5663031D01*
X7582408Y5663539D01*
X7581696Y5662980D01*
X7580680Y5660948D01*
X7580274Y5660644D01*
X7580274Y5658205D01*
X7582052Y5657037D01*
X7582509Y5657037D01*
X7584033Y5655462D01*
X7585506Y5654700D01*
X7589469Y5650636D01*
X7590739Y5647537D01*
X7591298Y5645302D01*
X7591298Y5642102D01*
X7589875Y5637784D01*
X7589062Y5636158D01*
X7588707Y5636158D01*
X7586268Y5634075D01*
X7580325Y5632094D01*
X7575397Y5632094D01*
X7571536Y5632500D01*
X7569403Y5633110D01*
X7560767Y5634075D01*
X7557668Y5635294D01*
X7554214Y5635955D01*
X7553248Y5636412D01*
X7552385Y5637225D01*
X7549540Y5638088D01*
X7545679Y5641238D01*
X7542885Y5644540D01*
X7541514Y5650026D01*
X7541717Y5653684D01*
X7542428Y5656072D01*
X7543495Y5658256D01*
X7547406Y5660898D01*
X7550607Y5662371D01*
X7550302Y5664250D01*
X7549540Y5665724D01*
X7549032Y5667349D01*
G37*
G36*
X7537246Y5566765D02*
G01*
X7536383Y5566003D01*
X7536383Y5530900D01*
X7537145Y5529376D01*
X7538364Y5528818D01*
X7546390Y5527802D01*
X7548016Y5527802D01*
X7550658Y5526684D01*
X7561427Y5525465D01*
X7563358Y5524601D01*
X7566050Y5524093D01*
X7571028Y5523687D01*
X7578648Y5521960D01*
X7584033Y5521553D01*
X7591552Y5519826D01*
X7595463Y5519521D01*
X7596378Y5520537D01*
X7596378Y5525160D01*
X7595260Y5526481D01*
X7593025Y5526481D01*
X7590485Y5527548D01*
X7579715Y5528767D01*
X7577581Y5529732D01*
X7571740Y5530392D01*
X7569911Y5531053D01*
X7569149Y5532170D01*
X7568946Y5557672D01*
X7567472Y5559094D01*
X7565186Y5560060D01*
X7563866Y5559348D01*
X7563053Y5557570D01*
X7563053Y5533440D01*
X7561884Y5532628D01*
X7557363Y5532678D01*
X7549591Y5534456D01*
X7544053Y5534914D01*
X7543292Y5535320D01*
X7542733Y5536285D01*
X7542530Y5564886D01*
X7542022Y5565952D01*
X7541361Y5566511D01*
G37*
G36*
X7537145Y5462524D02*
G01*
X7536383Y5461000D01*
X7536383Y5458002D01*
X7537145Y5456682D01*
X7539939Y5455767D01*
X7542275Y5455310D01*
X7547356Y5454904D01*
X7554975Y5453176D01*
X7560360Y5452719D01*
X7567879Y5451043D01*
X7574788Y5450332D01*
X7578648Y5449112D01*
X7584795Y5448401D01*
X7586929Y5447741D01*
X7586929Y5447385D01*
X7584236Y5446522D01*
X7580782Y5445810D01*
X7578191Y5444794D01*
X7572349Y5443931D01*
X7567675Y5442458D01*
X7562596Y5441746D01*
X7558836Y5440476D01*
X7552944Y5439613D01*
X7548321Y5438140D01*
X7541869Y5437174D01*
X7540752Y5436616D01*
X7536942Y5435498D01*
X7536383Y5434787D01*
X7536383Y5426608D01*
X7536789Y5425643D01*
X7537602Y5425186D01*
X7543596Y5424525D01*
X7548118Y5423306D01*
X7556500Y5422392D01*
X7561021Y5421122D01*
X7569403Y5420207D01*
X7573924Y5418988D01*
X7582306Y5418074D01*
X7586827Y5416854D01*
X7595514Y5415940D01*
X7596378Y5417362D01*
X7596378Y5419852D01*
X7595920Y5421731D01*
X7595209Y5422341D01*
X7586827Y5423306D01*
X7582306Y5424525D01*
X7573924Y5425440D01*
X7570012Y5426506D01*
X7562494Y5427573D01*
X7560767Y5427573D01*
X7558227Y5428640D01*
X7548321Y5429758D01*
X7546492Y5430215D01*
X7546492Y5430520D01*
X7549388Y5431688D01*
X7552029Y5433110D01*
X7558074Y5434025D01*
X7562697Y5435447D01*
X7569047Y5436412D01*
X7571638Y5437428D01*
X7577480Y5438343D01*
X7582052Y5439765D01*
X7586167Y5440273D01*
X7588758Y5440883D01*
X7591755Y5441950D01*
X7595362Y5442356D01*
X7596276Y5443270D01*
X7596428Y5451957D01*
X7595514Y5452922D01*
X7586167Y5454853D01*
X7580782Y5455310D01*
X7573264Y5457037D01*
X7567879Y5457444D01*
X7560360Y5459171D01*
X7554975Y5459628D01*
X7547457Y5461304D01*
X7542174Y5461762D01*
X7539075Y5462371D01*
G37*
G36*
X3754729Y3851859D02*
G01*
X3653028Y3851300D01*
X3645357Y3843629D01*
X3628999Y3844391D01*
X3603142Y3846626D01*
X3582009Y3842715D01*
X3575964Y3837228D01*
X3561283Y3837228D01*
X3552037Y3829964D01*
X3531158Y3829964D01*
X3517747Y3815435D01*
X3487724Y3815435D01*
X3478072Y3810203D01*
X3456736Y3800906D01*
X3452266Y3800906D01*
X3444697Y3794302D01*
X3436264Y3788054D01*
X3423564Y3781298D01*
X3399891Y3769360D01*
X3382264Y3755542D01*
X3363518Y3746652D01*
X3355797Y3738168D01*
X3351631Y3730040D01*
X3340201Y3727094D01*
X3336290Y3720033D01*
X3329889Y3711295D01*
X3329889Y3708044D01*
X3335375Y3705961D01*
X3343554Y3708044D01*
X3354679Y3718153D01*
X3369005Y3728720D01*
X3383534Y3742334D01*
X3391814Y3744823D01*
X3404565Y3756507D01*
X3419906Y3764178D01*
X3429000Y3768191D01*
X3449015Y3779418D01*
X3456279Y3785768D01*
X3469436Y3793591D01*
X3478072Y3793693D01*
X3494074Y3804513D01*
X3512616Y3804564D01*
X3528618Y3810152D01*
X3536187Y3815435D01*
X3554476Y3815384D01*
X3565347Y3808171D01*
X3575151Y3808171D01*
X3577539Y3812032D01*
X3571341Y3818839D01*
X3573729Y3822700D01*
X3588410Y3822700D01*
X3597656Y3829964D01*
X3661308Y3829964D01*
X3674465Y3838143D01*
X3711752Y3837787D01*
X3718763Y3831437D01*
X3736289Y3833215D01*
X3750818Y3837076D01*
X3778097Y3830065D01*
X3793642Y3829964D01*
X3806698Y3824528D01*
X3812336Y3824528D01*
X3834434Y3814114D01*
X3847744Y3808171D01*
X3851148Y3808171D01*
X3857751Y3800906D01*
X3866438Y3800906D01*
X3876395Y3795725D01*
X3889654Y3793236D01*
X3895902Y3786327D01*
X3898950Y3786327D01*
X3919880Y3771798D01*
X3922826Y3771798D01*
X3948480Y3751326D01*
X3967479Y3732326D01*
X3982974Y3725468D01*
X3988054Y3715664D01*
X3996283Y3713175D01*
X4003548Y3706672D01*
X4036263Y3689756D01*
X4045965Y3679342D01*
X4053484Y3675329D01*
X4059072Y3664508D01*
X4069435Y3664508D01*
X4073753Y3669741D01*
X4223562Y3669995D01*
X4305350Y3673500D01*
X4331157Y3671315D01*
X4333443Y3677259D01*
X4346041Y3677259D01*
X4348378Y3681069D01*
X4344060Y3686301D01*
X4339996Y3683812D01*
X4146854Y3684524D01*
X4128973Y3680307D01*
X4101744Y3680409D01*
X4074109Y3682593D01*
X4065219Y3685946D01*
X4060342Y3691788D01*
X4056176Y3691788D01*
X4034434Y3706215D01*
X4031386Y3706317D01*
X4022140Y3713632D01*
X4016959Y3713632D01*
X4001160Y3725418D01*
X3973779Y3741775D01*
X3945737Y3768445D01*
X3923537Y3782618D01*
X3912057Y3788054D01*
X3910837Y3790899D01*
X3896055Y3800906D01*
X3891076Y3800906D01*
X3884879Y3806494D01*
X3870807Y3808425D01*
X3841699Y3822293D01*
X3811422Y3837228D01*
X3795217Y3837228D01*
X3782618Y3842512D01*
X3760978Y3844950D01*
G37*
G36*
X1964791Y3806494D02*
G01*
X1954479Y3804208D01*
X1942947Y3800703D01*
X1941271Y3796334D01*
X1944319Y3788156D01*
X1964182Y3788156D01*
X1969922Y3793896D01*
X1969922Y3802278D01*
G37*
G36*
X1827530Y3806444D02*
G01*
X1818995Y3798417D01*
X1818995Y3796131D01*
X1829054Y3788664D01*
X1836674Y3791508D01*
X1838858Y3797249D01*
X1836674Y3802989D01*
G37*
G36*
X1885238Y3806342D02*
G01*
X1877161Y3800703D01*
X1877161Y3794201D01*
X1886457Y3789984D01*
X1901748Y3789984D01*
X1906219Y3797147D01*
X1902053Y3806342D01*
G37*
G36*
X1767179Y3770782D02*
G01*
X1692656Y3770680D01*
X1672640Y3764686D01*
X1594459Y3762908D01*
X1593545Y3762705D01*
X1593545Y3754069D01*
X1589024Y3750310D01*
X1505356Y3748684D01*
X1490827Y3742842D01*
X1466748Y3742690D01*
X1458112Y3735933D01*
X1449019Y3733190D01*
X1443532Y3728618D01*
X1417878Y3726891D01*
X1408430Y3720693D01*
X1381709Y3718560D01*
X1371904Y3713632D01*
X1348892Y3713632D01*
X1341729Y3708704D01*
X1316634Y3706164D01*
X1306626Y3699052D01*
X1272032Y3699052D01*
X1261160Y3689908D01*
X1248206Y3684524D01*
X1228598Y3684524D01*
X1226286Y3682695D01*
X1304442Y3682695D01*
X1304442Y3679088D01*
X1291742Y3679088D01*
X1291742Y3682695D01*
X1226286Y3682695D01*
X1219352Y3677259D01*
X1201724Y3677208D01*
X1199963Y3676040D01*
X1266291Y3676040D01*
X1268679Y3673601D01*
X1266291Y3671214D01*
X1266291Y3676040D01*
X1199963Y3676040D01*
X1190802Y3669995D01*
X1181100Y3669995D01*
X1173937Y3660901D01*
X1167841Y3660901D01*
X1160170Y3656787D01*
X1139901Y3651504D01*
X1113688Y3645408D01*
X1111037Y3642715D01*
X1198778Y3642715D01*
X1201013Y3646322D01*
X1204468Y3646322D01*
X1204468Y3642715D01*
X1111037Y3642715D01*
X1109167Y3640886D01*
X1101090Y3640886D01*
X1095654Y3635451D01*
X1086053Y3631793D01*
X1074470Y3631692D01*
X1065377Y3624630D01*
X1060958Y3624529D01*
X1048867Y3613912D01*
X1028750Y3605022D01*
X1019149Y3595420D01*
X1013104Y3595420D01*
X995375Y3580739D01*
X995375Y3569868D01*
X989584Y3561029D01*
X987602Y3539083D01*
X982624Y3534968D01*
X982726Y3532682D01*
X986282Y3526637D01*
X1009548Y3515309D01*
X1011682Y3509822D01*
X1031392Y3501085D01*
X1032600Y3499053D01*
X1073556Y3499053D01*
X1073556Y3497275D01*
X1071727Y3497275D01*
X1071727Y3499053D01*
X1032600Y3499053D01*
X1038047Y3489807D01*
X1043934Y3486353D01*
X1111707Y3486353D01*
X1111707Y3482695D01*
X1106271Y3482695D01*
X1106271Y3486353D01*
X1043934Y3486353D01*
X1050340Y3482594D01*
X1067155Y3480409D01*
X1072642Y3475837D01*
X1087170Y3468674D01*
X1116279Y3461054D01*
X1139240Y3458565D01*
X1143558Y3454501D01*
X1158290Y3444544D01*
X1175258Y3444544D01*
X1178864Y3437737D01*
X1203553Y3435858D01*
X1214475Y3430015D01*
X1218641Y3429965D01*
X1220774Y3428187D01*
X1255369Y3428187D01*
X1255369Y3424529D01*
X1251712Y3424529D01*
X1251712Y3428187D01*
X1220774Y3428187D01*
X1233881Y3417265D01*
X1237538Y3417265D01*
X1246784Y3424529D01*
X1249527Y3424529D01*
X1251661Y3415893D01*
X1261110Y3409696D01*
X1279906Y3404311D01*
X1305356Y3399383D01*
X1306140Y3399078D01*
X1411528Y3399078D01*
X1413764Y3395421D01*
X1395374Y3395421D01*
X1395374Y3399078D01*
X1306140Y3399078D01*
X1314450Y3395878D01*
X1338072Y3393186D01*
X1355496Y3386328D01*
X1362506Y3386328D01*
X1376527Y3379063D01*
X1399895Y3379673D01*
X1415237Y3371799D01*
X1456690Y3371799D01*
X1479448Y3364534D01*
X1497380Y3364534D01*
X1508455Y3358794D01*
X1531213Y3358642D01*
X1544269Y3364839D01*
X1548079Y3362502D01*
X1548130Y3354527D01*
X1551330Y3349548D01*
X1578102Y3347872D01*
X1595882Y3340557D01*
X1632661Y3340150D01*
X1663242Y3344621D01*
X1675638Y3352241D01*
X1679498Y3348431D01*
X1677416Y3342995D01*
X1667510Y3338169D01*
X1663903Y3332378D01*
X1666341Y3322726D01*
X1678330Y3322726D01*
X1697532Y3328415D01*
X1703527Y3325825D01*
X1725523Y3324707D01*
X1739900Y3329635D01*
X1742643Y3327958D01*
X1742643Y3317494D01*
X1746148Y3308248D01*
X1755648Y3305860D01*
X1764639Y3309975D01*
X1769973Y3322726D01*
X1778101Y3322624D01*
X1812645Y3313684D01*
X1833880Y3313633D01*
X1843125Y3320897D01*
X1857248Y3320897D01*
X1861312Y3329736D01*
X1859178Y3335223D01*
X1850593Y3340862D01*
X1835607Y3334969D01*
X1823110Y3342690D01*
X1815846Y3342690D01*
X1805787Y3334816D01*
X1785975Y3335324D01*
X1774037Y3342690D01*
X1748078Y3342690D01*
X1740509Y3335121D01*
X1735175Y3342690D01*
X1717090Y3342690D01*
X1715058Y3347974D01*
X1700580Y3355492D01*
X1677111Y3357016D01*
X1667611Y3364534D01*
X1658823Y3364534D01*
X1649018Y3359556D01*
X1618792Y3354933D01*
X1598320Y3357372D01*
X1586738Y3364534D01*
X1570837Y3364585D01*
X1565808Y3367735D01*
X1568297Y3371799D01*
X1633321Y3371799D01*
X1643532Y3375914D01*
X1659889Y3378708D01*
X1675130Y3374745D01*
X1684477Y3379012D01*
X1684477Y3385769D01*
X1677517Y3392017D01*
X1623060Y3393389D01*
X1609902Y3386328D01*
X1601520Y3386328D01*
X1594459Y3391662D01*
X1579930Y3391814D01*
X1567484Y3399383D01*
X1521968Y3398977D01*
X1501749Y3388410D01*
X1485341Y3387242D01*
X1480261Y3398875D01*
X1459890Y3401161D01*
X1450136Y3404260D01*
X1443329Y3402482D01*
X1422654Y3413760D01*
X1403553Y3415893D01*
X1391818Y3422954D01*
X1354378Y3420465D01*
X1349044Y3426815D01*
X1357172Y3432251D01*
X1357172Y3442614D01*
X1348333Y3444849D01*
X1337564Y3438550D01*
X1331722Y3440785D01*
X1331722Y3447694D01*
X1326997Y3451656D01*
X1296720Y3451555D01*
X1288999Y3458768D01*
X1275384Y3454044D01*
X1275384Y3469538D01*
X1269695Y3474262D01*
X1259941Y3470808D01*
X1258620Y3463594D01*
X1254912Y3459073D01*
X1238859Y3459073D01*
X1225702Y3472230D01*
X1195019Y3470605D01*
X1189482Y3479088D01*
X1164386Y3479088D01*
X1160221Y3488182D01*
X1153718Y3488182D01*
X1136650Y3497275D01*
X1132281Y3497275D01*
X1122172Y3506622D01*
X1113332Y3509975D01*
X1098092Y3510076D01*
X1082243Y3517239D01*
X1068984Y3517392D01*
X1054455Y3524402D01*
X1043076Y3524504D01*
X1033526Y3537000D01*
X1033526Y3541928D01*
X1017168Y3555593D01*
X1017168Y3558844D01*
X1028293Y3566718D01*
X1035354Y3560318D01*
X1044346Y3564382D01*
X1046683Y3573627D01*
X1050798Y3573983D01*
X1060704Y3573373D01*
X1070254Y3582873D01*
X1083513Y3589985D01*
X1098499Y3589985D01*
X1107744Y3597249D01*
X1116279Y3597300D01*
X1127201Y3604514D01*
X1136294Y3604564D01*
X1160983Y3613200D01*
X1168044Y3619601D01*
X1219250Y3617569D01*
X1220520Y3621786D01*
X1222654Y3631641D01*
X1238097Y3635806D01*
X1242923Y3639769D01*
X1264666Y3642309D01*
X1271117Y3648151D01*
X1277823Y3648151D01*
X1284427Y3642156D01*
X1307185Y3641801D01*
X1309014Y3654501D01*
X1325372Y3656634D01*
X1348486Y3668217D01*
X1381963Y3671722D01*
X1395272Y3677259D01*
X1421739Y3677310D01*
X1429918Y3679494D01*
X1429918Y3695547D01*
X1435506Y3697681D01*
X1442466Y3691382D01*
X1456944Y3692804D01*
X1459179Y3680917D01*
X1465580Y3677462D01*
X1474470Y3681933D01*
X1474724Y3694734D01*
X1477416Y3699052D01*
X1498498Y3699052D01*
X1507185Y3705860D01*
X1530807Y3709924D01*
X1548688Y3704539D01*
X1556512Y3704539D01*
X1562912Y3709212D01*
X1560576Y3718356D01*
X1544472Y3722674D01*
X1544472Y3726535D01*
X1557883Y3732123D01*
X1569567Y3734054D01*
X1576171Y3723640D01*
X1579372Y3721354D01*
X1603095Y3723233D01*
X1615033Y3736238D01*
X1625041Y3732682D01*
X1677619Y3736340D01*
X1689404Y3749954D01*
X1702409Y3749954D01*
X1712620Y3754221D01*
X1741728Y3756863D01*
X1766112Y3751884D01*
X1801723Y3749446D01*
X1886712Y3749852D01*
X1891741Y3754069D01*
X1891741Y3760419D01*
X1887169Y3764178D01*
X1783537Y3765194D01*
G37*
G36*
X3313531Y3690213D02*
G01*
X3305403Y3689096D01*
X3303117Y3674770D01*
X3295345Y3668471D01*
X3295345Y3665220D01*
X3305352Y3655669D01*
X3317646Y3665728D01*
X3313531Y3673398D01*
G37*
G36*
X4525873Y3684778D02*
G01*
X4518761Y3677158D01*
X4515408Y3679240D01*
X4478985Y3679190D01*
X4471720Y3675329D01*
X4471720Y3671925D01*
X4478731Y3668166D01*
X4493361Y3668725D01*
X4499000Y3664051D01*
X4514443Y3666236D01*
X4536287Y3671062D01*
X4536287Y3683609D01*
G37*
G36*
X3283712Y3640734D02*
G01*
X3278987Y3636822D01*
X3278987Y3630726D01*
X3283356Y3626358D01*
X3291535Y3626358D01*
X3293872Y3630168D01*
X3291738Y3638651D01*
G37*
G36*
X3283051Y3619347D02*
G01*
X3272637Y3618179D01*
X3271723Y3610864D01*
X3274974Y3605834D01*
X3284220Y3608171D01*
X3286607Y3615791D01*
G37*
G36*
X3267862Y3604869D02*
G01*
X3258972Y3602634D01*
X3259277Y3581806D01*
X3264458Y3567633D01*
X3268522Y3562705D01*
X3277158Y3562705D01*
X3277057Y3574542D01*
X3271723Y3581603D01*
X3271723Y3602482D01*
G37*
G36*
X3294176Y3444697D02*
G01*
X3289909Y3435248D01*
X3289909Y3432048D01*
X3297529Y3429609D01*
X3300933Y3433013D01*
X3301746Y3443630D01*
G37*
G36*
X4269892Y3437686D02*
G01*
X4258614Y3435451D01*
X4248048Y3426561D01*
X4232148Y3424174D01*
X4190796Y3430879D01*
X4053890Y3429050D01*
X4045000Y3419957D01*
X4023004Y3402634D01*
X4011726Y3398723D01*
X4011726Y3395421D01*
X3999737Y3395421D01*
X3995775Y3399383D01*
X3987190Y3398164D01*
X3985971Y3391509D01*
X3992016Y3384804D01*
X3990797Y3378149D01*
X3981907Y3376929D01*
X3960215Y3357270D01*
X3956456Y3357270D01*
X3941724Y3347465D01*
X3928973Y3335883D01*
X3919423Y3333648D01*
X3907180Y3322218D01*
X3885488Y3310890D01*
X3872636Y3299104D01*
X3859326Y3299053D01*
X3840937Y3284524D01*
X3812641Y3284474D01*
X3803548Y3279190D01*
X3781704Y3269843D01*
X3723538Y3266338D01*
X3639921Y3262325D01*
X3598062Y3273856D01*
X3575710Y3276752D01*
X3563112Y3284524D01*
X3543198Y3284524D01*
X3536594Y3291789D01*
X3523132Y3291789D01*
X3513886Y3299053D01*
X3499764Y3299053D01*
X3485489Y3306318D01*
X3476244Y3306419D01*
X3467150Y3313531D01*
X3463239Y3313633D01*
X3442919Y3321913D01*
X3425342Y3335680D01*
X3407156Y3348075D01*
X3397199Y3352139D01*
X3397199Y3355136D01*
X3383635Y3359607D01*
X3370376Y3372713D01*
X3359912Y3379978D01*
X3339592Y3400907D01*
X3333140Y3400907D01*
X3319881Y3415690D01*
X3313531Y3413201D01*
X3313531Y3402685D01*
X3317036Y3402685D01*
X3327755Y3392728D01*
X3360267Y3363417D01*
X3361740Y3359962D01*
X3383534Y3343656D01*
X3405479Y3329076D01*
X3420414Y3320897D01*
X3426307Y3320897D01*
X3444595Y3308045D01*
X3460546Y3305048D01*
X3466541Y3299053D01*
X3472738Y3299053D01*
X3479901Y3294075D01*
X3492601Y3291332D01*
X3503523Y3286709D01*
X3528974Y3282137D01*
X3538474Y3275126D01*
X3562400Y3272180D01*
X3582415Y3262680D01*
X3604209Y3262680D01*
X3610203Y3256686D01*
X3639921Y3253943D01*
X3751122Y3255975D01*
X3762908Y3251911D01*
X3779926Y3260344D01*
X3798062Y3264814D01*
X3803548Y3269437D01*
X3819906Y3273958D01*
X3848404Y3276904D01*
X3856278Y3283915D01*
X3875125Y3291789D01*
X3879291Y3291789D01*
X3894836Y3304540D01*
X3907180Y3308705D01*
X3923385Y3321761D01*
X3936288Y3328517D01*
X3950970Y3342690D01*
X3956608Y3342690D01*
X3964990Y3349955D01*
X3975455Y3349955D01*
X3991203Y3364534D01*
X3996740Y3364534D01*
X4014063Y3384804D01*
X4032656Y3393084D01*
X4039565Y3400907D01*
X4047032Y3400907D01*
X4062222Y3406648D01*
X4066336Y3415792D01*
X4109008Y3413201D01*
X4115104Y3410000D01*
X4125061Y3410000D01*
X4131462Y3415792D01*
X4336288Y3415385D01*
X4361637Y3424326D01*
X4362754Y3427628D01*
X4357674Y3431794D01*
X4320032Y3427933D01*
X4316272Y3424986D01*
X4280966Y3422497D01*
X4273346Y3426561D01*
X4275429Y3433114D01*
G37*
G36*
X4490008Y3429711D02*
G01*
X4480814Y3422446D01*
X4439920Y3423513D01*
X4435348Y3420668D01*
X4435348Y3417671D01*
X4441037Y3412947D01*
X4452620Y3413201D01*
X4525365Y3415944D01*
X4533544Y3418992D01*
X4533544Y3428187D01*
G37*
G36*
X2024176Y3313887D02*
G01*
X2017014Y3307435D01*
X1954479Y3303574D01*
X1944471Y3296818D01*
X1944573Y3292703D01*
X1948281Y3286353D01*
X1964842Y3278835D01*
X1979930Y3281578D01*
X1988972Y3282696D01*
X2018080Y3285439D01*
X2027072Y3291789D01*
X2033473Y3291789D01*
X2039366Y3303219D01*
X2032254Y3312718D01*
G37*
G36*
X1901139Y3306521D02*
G01*
X1895348Y3298240D01*
X1895348Y3292195D01*
X1902002Y3284016D01*
X1919071Y3286556D01*
X1928622Y3294786D01*
X1923491Y3305454D01*
G37*
G36*
X3820312Y3303371D02*
G01*
X3815384Y3296564D01*
X3815384Y3294024D01*
X3820363Y3292094D01*
X3824274Y3296005D01*
G37*
D10*
G01*
X6781800Y5397500D03*
D11*
G01*
X7162800Y5524500D03*
D12*
G01*
X6112680Y5766353D03*
G01*
X6112680Y5906353D03*
D13*
G01*
X6087407Y6619999D03*
G01*
X6087407Y6409941D03*
D14*
G01*
X6112680Y5253513D03*
G01*
X6112680Y5404163D03*
D16*
G01*
X6143294Y4826000D03*
D17*
G01*
X6133287Y4766000D03*
G01*
X6083300Y4766000D03*
G01*
X6033287Y4766000D03*
D16*
G01*
X6023305Y4826000D03*
D17*
G01*
X6033312Y4885999D03*
G01*
X6083300Y4885999D03*
D18*
G01*
X6133287Y4885999D03*
M02*
